NimbusMonL-Bold.ufo
<glyph name="quotedbl" format="1">
  <advance width="600"/>
  <unicode hex="0022"/>
  <outline>
    <contour>
      <point x="136" y="602" type="line"/>
      <point x="264" y="602" type="line"/>
      <point x="233" y="348" type="line" smooth="yes"/>
      <point x="229" y="322"/>
      <point x="221" y="312"/>
      <point x="201" y="312" type="curve" smooth="yes"/>
      <point x="182" y="312"/>
      <point x="173" y="322"/>
      <point x="170" y="347" type="curve" smooth="yes"/>
    </contour>
    <contour>
      <point x="336" y="602" type="line"/>
      <point x="464" y="602" type="line"/>
      <point x="433" y="348" type="line" smooth="yes"/>
      <point x="429" y="322"/>
      <point x="421" y="312"/>
      <point x="401" y="312" type="curve" smooth="yes"/>
      <point x="382" y="312"/>
      <point x="373" y="322"/>
      <point x="370" y="347" type="curve" smooth="yes"/>
    </contour>
  </outline>
</glyph>
<glyph name="numbersign" format="1">
  <advance width="600"/>
  <unicode hex="0023"/>
  <outline>
    <contour>
      <point x="447" y="444" type="line"/>
      <point x="472" y="444" type="line" smooth="yes"/>
      <point x="499" y="444"/>
      <point x="507" y="442"/>
      <point x="517" y="435" type="curve" smooth="yes"/>
      <point x="530" y="425"/>
      <point x="538" y="410"/>
      <point x="538" y="394" type="curve" smooth="yes"/>
      <point x="538" y="377"/>
      <point x="529" y="360"/>
      <point x="514" y="351" type="curve" smooth="yes"/>
      <point x="505" y="346"/>
      <point x="496" y="344"/>
      <point x="472" y="344" type="curve" smooth="yes"/>
      <point x="440" y="344" type="line"/>
      <point x="432" y="238" type="line"/>
      <point x="451" y="238" type="line" smooth="yes"/>
      <point x="478" y="238"/>
      <point x="488" y="236"/>
      <point x="497" y="229" type="curve" smooth="yes"/>
      <point x="510" y="219"/>
      <point x="518" y="204"/>
      <point x="518" y="188" type="curve" smooth="yes"/>
      <point x="518" y="171"/>
      <point x="509" y="155"/>
      <point x="494" y="146" type="curve" smooth="yes"/>
      <point x="485" y="141"/>
      <point x="475" y="139"/>
      <point x="452" y="139" type="curve" smooth="yes"/>
      <point x="425" y="139" type="line"/>
      <point x="414" y="-29" type="line" smooth="yes"/>
      <point x="413" y="-44"/>
      <point x="406" y="-67"/>
      <point x="401" y="-73" type="curve" smooth="yes"/>
      <point x="391" y="-85"/>
      <point x="376" y="-92"/>
      <point x="362" y="-92" type="curve" smooth="yes"/>
      <point x="335" y="-92"/>
      <point x="311" y="-67"/>
      <point x="313" y="-41" type="curve" smooth="yes"/>
      <point x="315" y="-22" type="line"/>
      <point x="326" y="139" type="line"/>
      <point x="254" y="139" type="line"/>
      <point x="242" y="-29" type="line"/>
      <point x="242" y="-70"/>
      <point x="225" y="-92"/>
      <point x="192" y="-92" type="curve" smooth="yes"/>
      <point x="163" y="-92"/>
      <point x="142" y="-70"/>
      <point x="142" y="-40" type="curve" smooth="yes"/>
      <point x="142" y="-36"/>
      <point x="142" y="-29"/>
      <point x="143" y="-22" type="curve" smooth="yes"/>
      <point x="154" y="139" type="line"/>
      <point x="128" y="139" type="line" smooth="yes"/>
      <point x="103" y="139"/>
      <point x="93" y="141"/>
      <point x="83" y="148" type="curve" smooth="yes"/>
      <point x="70" y="158"/>
      <point x="62" y="173"/>
      <point x="62" y="189" type="curve" smooth="yes"/>
      <point x="62" y="205"/>
      <point x="71" y="222"/>
      <point x="86" y="231" type="curve" smooth="yes"/>
      <point x="95" y="237"/>
      <point x="102" y="238"/>
      <point x="128" y="238" type="curve" smooth="yes"/>
      <point x="161" y="238" type="line"/>
      <point x="168" y="344" type="line"/>
      <point x="149" y="344" type="line" smooth="yes"/>
      <point x="122" y="344"/>
      <point x="113" y="346"/>
      <point x="103" y="353" type="curve" smooth="yes"/>
      <point x="90" y="363"/>
      <point x="82" y="379"/>
      <point x="82" y="394" type="curve" smooth="yes"/>
      <point x="82" y="411"/>
      <point x="91" y="428"/>
      <point x="106" y="437" type="curve" smooth="yes"/>
      <point x="115" y="443"/>
      <point x="122" y="444"/>
      <point x="149" y="444" type="curve" smooth="yes"/>
      <point x="175" y="444" type="line"/>
      <point x="187" y="612" type="line" smooth="yes"/>
      <point x="188" y="638"/>
      <point x="190" y="645"/>
      <point x="198" y="656" type="curve" smooth="yes"/>
      <point x="208" y="668"/>
      <point x="223" y="675"/>
      <point x="238" y="675" type="curve" smooth="yes"/>
      <point x="267" y="675"/>
      <point x="289" y="651"/>
      <point x="288" y="623" type="curve" smooth="yes"/>
      <point x="287" y="605" type="line"/>
      <point x="276" y="444" type="line"/>
      <point x="347" y="444" type="line"/>
      <point x="359" y="612" type="line" smooth="yes"/>
      <point x="360" y="640"/>
      <point x="362" y="646"/>
      <point x="370" y="656" type="curve" smooth="yes"/>
      <point x="380" y="668"/>
      <point x="395" y="675"/>
      <point x="410" y="675" type="curve" smooth="yes"/>
      <point x="436" y="675"/>
      <point x="462" y="650"/>
      <point x="460" y="627" type="curve" smooth="yes"/>
      <point x="458" y="605" type="line"/>
    </contour>
    <contour>
      <point x="340" y="344" type="line"/>
      <point x="269" y="344" type="line"/>
      <point x="261" y="238" type="line"/>
      <point x="333" y="238" type="line"/>
    </contour>
  </outline>
</glyph>
<glyph name="ampersand" format="1">
  <advance width="600"/>
  <unicode hex="0026"/>
  <outline>
    <contour>
      <point x="365" y="198" type="line"/>
      <point x="388" y="280" type="line"/>
      <point x="441" y="280" type="line" smooth="yes"/>
      <point x="468" y="280"/>
      <point x="477" y="278"/>
      <point x="487" y="270" type="curve" smooth="yes"/>
      <point x="500" y="260"/>
      <point x="507" y="246"/>
      <point x="507" y="229" type="curve" smooth="yes"/>
      <point x="507" y="203"/>
      <point x="488" y="182"/>
      <point x="464" y="180" type="curve"/>
      <point x="453" y="139"/>
      <point x="446" y="121"/>
      <point x="434" y="100" type="curve"/>
      <point x="442" y="100" type="line" smooth="yes"/>
      <point x="469" y="100"/>
      <point x="477" y="98"/>
      <point x="487" y="91" type="curve" smooth="yes"/>
      <point x="500" y="81"/>
      <point x="508" y="66"/>
      <point x="508" y="50" type="curve" smooth="yes"/>
      <point x="508" y="33"/>
      <point x="499" y="16"/>
      <point x="484" y="7" type="curve" smooth="yes"/>
      <point x="476" y="2"/>
      <point x="463" y="0"/>
      <point x="442" y="0" type="curve" smooth="yes"/>
      <point x="381" y="0" type="line"/>
      <point x="370" y="15" type="line"/>
      <point x="340" y="-6"/>
      <point x="310" y="-14"/>
      <point x="257" y="-14" type="curve" smooth="yes"/>
      <point x="147" y="-14"/>
      <point x="75" y="48"/>
      <point x="75" y="144" type="curve" smooth="yes"/>
      <point x="75" y="211"/>
      <point x="109" y="267"/>
      <point x="171" y="303" type="curve"/>
      <point x="144" y="349"/>
      <point x="137" y="368"/>
      <point x="137" y="399" type="curve" smooth="yes"/>
      <point x="137" y="480"/>
      <point x="208" y="550"/>
      <point x="289" y="550" type="curve" smooth="yes"/>
      <point x="313" y="550"/>
      <point x="333" y="545"/>
      <point x="359" y="533" type="curve"/>
      <point x="371" y="537"/>
      <point x="380" y="540"/>
      <point x="387" y="540" type="curve" smooth="yes"/>
      <point x="412" y="540"/>
      <point x="435" y="515"/>
      <point x="435" y="490" type="curve" smooth="yes"/>
      <point x="435" y="467"/>
      <point x="426" y="456"/>
      <point x="394" y="438" type="curve" smooth="yes"/>
      <point x="353" y="416" type="line"/>
      <point x="324" y="442"/>
      <point x="310" y="450"/>
      <point x="290" y="450" type="curve" smooth="yes"/>
      <point x="261" y="450"/>
      <point x="237" y="428"/>
      <point x="237" y="400" type="curve" smooth="yes"/>
      <point x="237" y="389"/>
      <point x="246" y="370"/>
      <point x="265" y="343" type="curve" smooth="yes"/>
    </contour>
    <contour>
      <point x="312" y="100" type="curve"/>
      <point x="228" y="220" type="line"/>
      <point x="193" y="204"/>
      <point x="175" y="177"/>
      <point x="175" y="144" type="curve" smooth="yes"/>
      <point x="175" y="105"/>
      <point x="202" y="86"/>
      <point x="257" y="86" type="curve" smooth="yes"/>
      <point x="282" y="86"/>
      <point x="293" y="89"/>
    </contour>
  </outline>
</glyph>
<glyph name="quotesingle" format="1">
  <advance width="600"/>
  <unicode hex="0027"/>
  <outline>
    <contour>
      <point x="236" y="602" type="line"/>
      <point x="364" y="602" type="line"/>
      <point x="333" y="348" type="line" smooth="yes"/>
      <point x="329" y="322"/>
      <point x="321" y="312"/>
      <point x="301" y="312" type="curve" smooth="yes"/>
      <point x="282" y="312"/>
      <point x="273" y="322"/>
      <point x="270" y="347" type="curve" smooth="yes"/>
    </contour>
  </outline>
</glyph>
<glyph name="parenright" format="1">
  <advance width="600"/>
  <unicode hex="0029"/>
  <outline>
    <contour>
      <point x="168" y="632" type="curve" smooth="yes"/>
      <point x="192" y="632"/>
      <point x="205" y="621"/>
      <point x="234" y="574" type="curve" smooth="yes"/>
      <point x="305" y="461"/>
      <point x="341" y="346"/>
      <point x="341" y="236" type="curve" smooth="yes"/>
      <point x="341" y="129"/>
      <point x="298" y="1"/>
      <point x="225" y="-109" type="curve" smooth="yes"/>
      <point x="202" y="-144"/>
      <point x="190" y="-153"/>
      <point x="168" y="-153" type="curve" smooth="yes"/>
      <point x="139" y="-153"/>
      <point x="117" y="-131"/>
      <point x="117" y="-104" type="curve" smooth="yes"/>
      <point x="117" y="-92"/>
      <point x="119" y="-86"/>
      <point x="129" y="-70" type="curve" smooth="yes"/>
      <point x="199" y="42"/>
      <point x="230" y="138"/>
      <point x="230" y="239" type="curve" smooth="yes"/>
      <point x="230" y="341"/>
      <point x="198" y="437"/>
      <point x="129" y="549" type="curve" smooth="yes"/>
      <point x="119" y="565"/>
      <point x="117" y="571"/>
      <point x="117" y="583" type="curve" smooth="yes"/>
      <point x="117" y="610"/>
      <point x="139" y="632"/>
    </contour>
  </outline>
</glyph>
<glyph name="comma" format="1">
  <advance width="600"/>
  <unicode hex="002C"/>
  <outline>
    <contour>
      <point x="219" y="134" type="line"/>
      <point x="351" y="134" type="line"/>
      <point x="210" y="-134" type="line" smooth="yes"/>
      <point x="202" y="-150"/>
      <point x="190" y="-158"/>
      <point x="178" y="-158" type="curve" smooth="yes"/>
      <point x="161" y="-158"/>
      <point x="147" y="-145"/>
      <point x="147" y="-130" type="curve" smooth="yes"/>
      <point x="147" y="-124"/>
      <point x="147" y="-122"/>
      <point x="150" y="-111" type="curve" smooth="yes"/>
    </contour>
  </outline>
</glyph>
<glyph name="hyphen" format="1">
  <advance width="600"/>
  <unicode hex="002D"/>
  <outline>
    <contour>
      <point x="492" y="229" type="curve" smooth="yes"/>
      <point x="108" y="229" type="line" smooth="yes"/>
      <point x="83" y="229"/>
      <point x="72" y="231"/>
      <point x="63" y="238" type="curve" smooth="yes"/>
      <point x="50" y="248"/>
      <point x="42" y="263"/>
      <point x="42" y="279" type="curve" smooth="yes"/>
      <point x="42" y="296"/>
      <point x="51" y="312"/>
      <point x="66" y="322" type="curve" smooth="yes"/>
      <point x="75" y="328"/>
      <point x="83" y="329"/>
      <point x="108" y="329" type="curve" smooth="yes"/>
      <point x="492" y="329" type="line" smooth="yes"/>
      <point x="518" y="329"/>
      <point x="528" y="327"/>
      <point x="538" y="320" type="curve" smooth="yes"/>
      <point x="551" y="310"/>
      <point x="558" y="295"/>
      <point x="558" y="279" type="curve" smooth="yes"/>
      <point x="558" y="262"/>
      <point x="549" y="245"/>
      <point x="534" y="236" type="curve" smooth="yes"/>
      <point x="526" y="231"/>
      <point x="514" y="229"/>
    </contour>
  </outline>
</glyph>
<glyph name="one" format="1">
  <advance width="600"/>
  <unicode hex="0031"/>
  <outline>
    <contour>
      <point x="350" y="638" type="line"/>
      <point x="350" y="100" type="line"/>
      <point x="451" y="100" type="line" smooth="yes"/>
      <point x="478" y="100"/>
      <point x="486" y="98"/>
      <point x="496" y="91" type="curve" smooth="yes"/>
      <point x="509" y="81"/>
      <point x="517" y="66"/>
      <point x="517" y="50" type="curve" smooth="yes"/>
      <point x="517" y="33"/>
      <point x="508" y="17"/>
      <point x="493" y="7" type="curve" smooth="yes"/>
      <point x="486" y="3"/>
      <point x="471" y="0"/>
      <point x="451" y="0" type="curve" smooth="yes"/>
      <point x="149" y="0" type="line" smooth="yes"/>
      <point x="126" y="0"/>
      <point x="112" y="3"/>
      <point x="104" y="10" type="curve"/>
      <point x="91" y="19"/>
      <point x="83" y="35"/>
      <point x="83" y="50" type="curve" smooth="yes"/>
      <point x="83" y="67"/>
      <point x="92" y="84"/>
      <point x="107" y="93" type="curve" smooth="yes"/>
      <point x="116" y="99"/>
      <point x="123" y="100"/>
      <point x="149" y="100" type="curve" smooth="yes"/>
      <point x="250" y="100" type="line"/>
      <point x="250" y="509" type="line"/>
      <point x="163" y="486" type="line" smooth="yes"/>
      <point x="144" y="481"/>
      <point x="141" y="480"/>
      <point x="131" y="480" type="curve" smooth="yes"/>
      <point x="105" y="480"/>
      <point x="85" y="503"/>
      <point x="85" y="532" type="curve" smooth="yes"/>
      <point x="85" y="561"/>
      <point x="98" y="573"/>
      <point x="138" y="583" type="curve" smooth="yes"/>
    </contour>
  </outline>
</glyph>
<glyph name="four" format="1">
  <advance width="600"/>
  <unicode hex="0034"/>
  <outline>
    <contour>
      <point x="447" y="622" type="line"/>
      <point x="447" y="238" type="line"/>
      <point x="486" y="238"/>
      <point x="508" y="220"/>
      <point x="508" y="188" type="curve" smooth="yes"/>
      <point x="508" y="156"/>
      <point x="487" y="139"/>
      <point x="447" y="138" type="curve"/>
      <point x="447" y="100" type="line"/>
      <point x="486" y="100"/>
      <point x="508" y="82"/>
      <point x="508" y="50" type="curve" smooth="yes"/>
      <point x="508" y="33"/>
      <point x="499" y="17"/>
      <point x="484" y="7" type="curve" smooth="yes"/>
      <point x="477" y="3"/>
      <point x="462" y="0"/>
      <point x="441" y="0" type="curve" smooth="yes"/>
      <point x="309" y="0" type="line" smooth="yes"/>
      <point x="286" y="0"/>
      <point x="272" y="3"/>
      <point x="264" y="10" type="curve"/>
      <point x="251" y="19"/>
      <point x="243" y="35"/>
      <point x="243" y="50" type="curve" smooth="yes"/>
      <point x="243" y="67"/>
      <point x="252" y="84"/>
      <point x="267" y="93" type="curve" smooth="yes"/>
      <point x="276" y="99"/>
      <point x="285" y="100"/>
      <point x="309" y="100" type="curve" smooth="yes"/>
      <point x="347" y="100" type="line"/>
      <point x="347" y="138" type="line"/>
      <point x="75" y="138" type="line"/>
      <point x="75" y="221" type="line"/>
      <point x="316" y="622" type="line"/>
    </contour>
    <contour>
      <point x="347" y="238" type="line"/>
      <point x="347" y="480" type="line"/>
      <point x="197" y="238" type="line"/>
    </contour>
  </outline>
</glyph>
<glyph name="eight" format="1">
  <advance width="600"/>
  <unicode hex="0038"/>
  <outline>
    <contour>
      <point x="420" y="319" type="curve"/>
      <point x="484" y="279"/>
      <point x="517" y="227"/>
      <point x="517" y="165" type="curve" smooth="yes"/>
      <point x="517" y="58"/>
      <point x="429" y="-15"/>
      <point x="299" y="-15" type="curve" smooth="yes"/>
      <point x="171" y="-15"/>
      <point x="83" y="58"/>
      <point x="83" y="165" type="curve" smooth="yes"/>
      <point x="83" y="227"/>
      <point x="116" y="279"/>
      <point x="180" y="319" type="curve"/>
      <point x="120" y="359"/>
      <point x="92" y="402"/>
      <point x="92" y="455" type="curve" smooth="yes"/>
      <point x="92" y="557"/>
      <point x="184" y="638"/>
      <point x="300" y="638" type="curve" smooth="yes"/>
      <point x="415" y="638"/>
      <point x="508" y="557"/>
      <point x="508" y="457" type="curve" smooth="yes"/>
      <point x="508" y="402"/>
      <point x="480" y="359"/>
    </contour>
    <contour>
      <point x="300" y="538" type="curve" smooth="yes"/>
      <point x="236" y="538"/>
      <point x="192" y="502"/>
      <point x="192" y="451" type="curve" smooth="yes"/>
      <point x="192" y="400"/>
      <point x="237" y="364"/>
      <point x="300" y="364" type="curve" smooth="yes"/>
      <point x="363" y="364"/>
      <point x="408" y="400"/>
      <point x="408" y="450" type="curve" smooth="yes"/>
      <point x="408" y="502"/>
      <point x="364" y="538"/>
    </contour>
    <contour>
      <point x="300" y="263" type="curve" smooth="yes"/>
      <point x="236" y="263"/>
      <point x="183" y="223"/>
      <point x="183" y="173" type="curve" smooth="yes"/>
      <point x="183" y="122"/>
      <point x="232" y="85"/>
      <point x="300" y="85" type="curve" smooth="yes"/>
      <point x="368" y="85"/>
      <point x="417" y="122"/>
      <point x="417" y="172" type="curve" smooth="yes"/>
      <point x="417" y="223"/>
      <point x="366" y="263"/>
    </contour>
  </outline>
</glyph>
<glyph name="nine" format="1">
  <advance width="600"/>
  <unicode hex="0039"/>
  <outline>
    <contour>
      <point x="438" y="299" type="curve"/>
      <point x="390" y="248"/>
      <point x="352" y="229"/>
      <point x="302" y="229" type="curve" smooth="yes"/>
      <point x="196" y="229"/>
      <point x="111" y="321"/>
      <point x="111" y="434" type="curve" smooth="yes"/>
      <point x="111" y="491"/>
      <point x="129" y="542"/>
      <point x="163" y="579" type="curve" smooth="yes"/>
      <point x="199" y="619"/>
      <point x="248" y="638"/>
      <point x="315" y="638" type="curve" smooth="yes"/>
      <point x="398" y="638"/>
      <point x="459" y="604"/>
      <point x="497" y="536" type="curve" smooth="yes"/>
      <point x="523" y="489"/>
      <point x="541" y="409"/>
      <point x="541" y="338" type="curve" smooth="yes"/>
      <point x="541" y="250"/>
      <point x="515" y="173"/>
      <point x="464" y="109" type="curve"/>
      <point x="397" y="27"/>
      <point x="315" y="-15"/>
      <point x="223" y="-15" type="curve" smooth="yes"/>
      <point x="153" y="-15"/>
      <point x="106" y="11"/>
      <point x="106" y="50" type="curve" smooth="yes"/>
      <point x="106" y="78"/>
      <point x="129" y="101"/>
      <point x="157" y="101" type="curve" smooth="yes"/>
      <point x="166" y="101"/>
      <point x="176" y="99"/>
      <point x="192" y="93" type="curve" smooth="yes"/>
      <point x="203" y="89"/>
      <point x="208" y="88"/>
      <point x="217" y="88" type="curve" smooth="yes"/>
      <point x="323" y="88"/>
      <point x="415" y="176"/>
    </contour>
    <contour>
      <point x="428" y="414" type="curve"/>
      <point x="413" y="501"/>
      <point x="377" y="538"/>
      <point x="312" y="538" type="curve" smooth="yes"/>
      <point x="249" y="538"/>
      <point x="211" y="498"/>
      <point x="211" y="433" type="curve" smooth="yes"/>
      <point x="211" y="375"/>
      <point x="254" y="329"/>
      <point x="308" y="329" type="curve" smooth="yes"/>
      <point x="351" y="329"/>
      <point x="401" y="365"/>
    </contour>
  </outline>
</glyph>
<glyph name="question" format="1">
  <advance width="600"/>
  <unicode hex="003F"/>
  <outline>
    <contour>
      <point x="104" y="460" type="curve" smooth="yes"/>
      <point x="104" y="539" type="line"/>
      <point x="200" y="585"/>
      <point x="244" y="598"/>
      <point x="308" y="598" type="curve" smooth="yes"/>
      <point x="432" y="598"/>
      <point x="517" y="521"/>
      <point x="517" y="409" type="curve" smooth="yes"/>
      <point x="517" y="328"/>
      <point x="474" y="281"/>
      <point x="353" y="228" type="curve"/>
      <point x="349" y="192"/>
      <point x="332" y="174"/>
      <point x="303" y="174" type="curve" smooth="yes"/>
      <point x="286" y="174"/>
      <point x="269" y="183"/>
      <point x="260" y="198" type="curve" smooth="yes"/>
      <point x="255" y="207"/>
      <point x="253" y="217"/>
      <point x="253" y="240" type="curve" smooth="yes"/>
      <point x="253" y="296" type="line"/>
      <point x="381" y="345"/>
      <point x="417" y="371"/>
      <point x="417" y="414" type="curve" smooth="yes"/>
      <point x="417" y="464"/>
      <point x="373" y="498"/>
      <point x="309" y="498" type="curve" smooth="yes"/>
      <point x="271" y="498"/>
      <point x="237" y="490"/>
      <point x="204" y="474" type="curve"/>
      <point x="204" y="460" type="line" smooth="yes"/>
      <point x="204" y="434"/>
      <point x="202" y="424"/>
      <point x="195" y="415" type="curve" smooth="yes"/>
      <point x="185" y="402"/>
      <point x="169" y="394"/>
      <point x="154" y="394" type="curve" smooth="yes"/>
      <point x="137" y="394"/>
      <point x="120" y="404"/>
      <point x="111" y="418" type="curve" smooth="yes"/>
      <point x="106" y="426"/>
      <point x="104" y="437"/>
    </contour>
    <contour>
      <point x="311" y="-15" type="curve" smooth="yes"/>
      <point x="294" y="-15" type="line" smooth="yes"/>
      <point x="257" y="-15"/>
      <point x="227" y="15"/>
      <point x="227" y="51" type="curve" smooth="yes"/>
      <point x="227" y="87"/>
      <point x="257" y="117"/>
      <point x="294" y="117" type="curve" smooth="yes"/>
      <point x="311" y="117" type="line" smooth="yes"/>
      <point x="348" y="117"/>
      <point x="377" y="88"/>
      <point x="377" y="51" type="curve" smooth="yes"/>
      <point x="377" y="14"/>
      <point x="348" y="-15"/>
    </contour>
  </outline>
</glyph>
<glyph name="at" format="1">
  <advance width="600"/>
  <unicode hex="0040"/>
  <outline>
    <contour>
      <point x="407" y="397" type="curve"/>
      <point x="407" y="429" type="line" smooth="yes"/>
      <point x="407" y="495"/>
      <point x="364" y="541"/>
      <point x="302" y="541" type="curve" smooth="yes"/>
      <point x="218" y="541"/>
      <point x="155" y="445"/>
      <point x="155" y="317" type="curve" smooth="yes"/>
      <point x="155" y="161" type="line" smooth="yes"/>
      <point x="155" y="85"/>
      <point x="172" y="23"/>
      <point x="206" y="-24" type="curve"/>
      <point x="230" y="-59"/>
      <point x="261" y="-74"/>
      <point x="305" y="-74" type="curve" smooth="yes"/>
      <point x="349" y="-74"/>
      <point x="389" y="-62"/>
      <point x="408" y="-42" type="curve" smooth="yes"/>
      <point x="422" y="-28"/>
      <point x="427" y="-25"/>
      <point x="439" y="-25" type="curve" smooth="yes"/>
      <point x="461" y="-25"/>
      <point x="479" y="-43"/>
      <point x="479" y="-66" type="curve" smooth="yes"/>
      <point x="479" y="-113"/>
      <point x="397" y="-152"/>
      <point x="302" y="-152" type="curve" smooth="yes"/>
      <point x="220" y="-152"/>
      <point x="165" y="-119"/>
      <point x="123" y="-45" type="curve" smooth="yes"/>
      <point x="93" y="9"/>
      <point x="76" y="81"/>
      <point x="76" y="154" type="curve" smooth="yes"/>
      <point x="76" y="323" type="line" smooth="yes"/>
      <point x="76" y="495"/>
      <point x="171" y="620"/>
      <point x="301" y="620" type="curve" smooth="yes"/>
      <point x="409" y="620"/>
      <point x="486" y="540"/>
      <point x="486" y="429" type="curve" smooth="yes"/>
      <point x="486" y="148" type="line"/>
      <point x="502" y="141"/>
      <point x="509" y="130"/>
      <point x="509" y="113" type="curve" smooth="yes"/>
      <point x="509" y="85"/>
      <point x="491" y="72"/>
      <point x="454" y="72" type="curve" smooth="yes"/>
      <point x="407" y="72" type="line"/>
      <point x="407" y="75" type="line"/>
      <point x="392" y="73"/>
      <point x="383" y="72"/>
      <point x="374" y="72" type="curve" smooth="yes"/>
      <point x="289" y="72"/>
      <point x="218" y="143"/>
      <point x="218" y="226" type="curve" smooth="yes"/>
      <point x="218" y="319"/>
      <point x="295" y="389"/>
    </contour>
    <contour>
      <point x="407" y="155" type="curve"/>
      <point x="407" y="316" type="line"/>
      <point x="341" y="310"/>
      <point x="297" y="274"/>
      <point x="297" y="225" type="curve" smooth="yes"/>
      <point x="297" y="184"/>
      <point x="333" y="153"/>
      <point x="381" y="153" type="curve" smooth="yes"/>
      <point x="388" y="153"/>
      <point x="393" y="153"/>
    </contour>
  </outline>
</glyph>
<glyph name="B" format="1">
  <advance width="600"/>
  <unicode hex="0042"/>
  <outline>
    <contour>
      <point x="94" y="100" type="line"/>
      <point x="94" y="483" type="line"/>
      <point x="79" y="483" type="line" smooth="yes"/>
      <point x="54" y="483"/>
      <point x="43" y="485"/>
      <point x="34" y="492" type="curve" smooth="yes"/>
      <point x="21" y="502"/>
      <point x="13" y="518"/>
      <point x="13" y="533" type="curve" smooth="yes"/>
      <point x="13" y="550"/>
      <point x="23" y="567"/>
      <point x="37" y="576" type="curve" smooth="yes"/>
      <point x="46" y="582"/>
      <point x="55" y="583"/>
      <point x="79" y="583" type="curve" smooth="yes"/>
      <point x="332" y="583" type="line" smooth="yes"/>
      <point x="445" y="583"/>
      <point x="528" y="513"/>
      <point x="528" y="418" type="curve" smooth="yes"/>
      <point x="528" y="372"/>
      <point x="509" y="339"/>
      <point x="465" y="305" type="curve"/>
      <point x="537" y="269"/>
      <point x="571" y="223"/>
      <point x="571" y="160" type="curve" smooth="yes"/>
      <point x="571" y="64"/>
      <point x="492" y="0"/>
      <point x="374" y="0" type="curve" smooth="yes"/>
      <point x="79" y="0" type="line" smooth="yes"/>
      <point x="56" y="0"/>
      <point x="42" y="3"/>
      <point x="34" y="10" type="curve"/>
      <point x="21" y="19"/>
      <point x="13" y="35"/>
      <point x="13" y="50" type="curve" smooth="yes"/>
      <point x="13" y="67"/>
      <point x="22" y="84"/>
      <point x="37" y="93" type="curve" smooth="yes"/>
      <point x="46" y="99"/>
      <point x="55" y="100"/>
      <point x="79" y="100" type="curve" smooth="yes"/>
    </contour>
    <contour>
      <point x="194" y="342" type="line"/>
      <point x="307" y="342" type="line" smooth="yes"/>
      <point x="379" y="342"/>
      <point x="428" y="373"/>
      <point x="428" y="419" type="curve" smooth="yes"/>
      <point x="428" y="459"/>
      <point x="390" y="483"/>
      <point x="327" y="483" type="curve" smooth="yes"/>
      <point x="194" y="483" type="line"/>
    </contour>
    <contour>
      <point x="194" y="100" type="line"/>
      <point x="369" y="100" type="line" smooth="yes"/>
      <point x="437" y="100"/>
      <point x="471" y="118"/>
      <point x="471" y="154" type="curve" smooth="yes"/>
      <point x="471" y="178"/>
      <point x="454" y="204"/>
      <point x="428" y="220" type="curve" smooth="yes"/>
      <point x="403" y="235"/>
      <point x="371" y="242"/>
      <point x="329" y="242" type="curve" smooth="yes"/>
      <point x="194" y="242" type="line"/>
    </contour>
  </outline>
</glyph>
<glyph name="D" format="1">
  <advance width="600"/>
  <unicode hex="0044"/>
  <outline>
    <contour>
      <point x="74" y="100" type="curve"/>
      <point x="74" y="483" type="line"/>
      <point x="35" y="483"/>
      <point x="13" y="501"/>
      <point x="13" y="533" type="curve" smooth="yes"/>
      <point x="13" y="550"/>
      <point x="22" y="567"/>
      <point x="37" y="576" type="curve" smooth="yes"/>
      <point x="46" y="582"/>
      <point x="53" y="583"/>
      <point x="80" y="583" type="curve" smooth="yes"/>
      <point x="292" y="583" type="line" smooth="yes"/>
      <point x="438" y="583"/>
      <point x="550" y="462"/>
      <point x="550" y="305" type="curve" smooth="yes"/>
      <point x="550" y="258" type="line" smooth="yes"/>
      <point x="550" y="185"/>
      <point x="526" y="123"/>
      <point x="480" y="75" type="curve" smooth="yes"/>
      <point x="431" y="23"/>
      <point x="371" y="0"/>
      <point x="284" y="0" type="curve" smooth="yes"/>
      <point x="80" y="0" type="line" smooth="yes"/>
      <point x="56" y="0"/>
      <point x="43" y="3"/>
      <point x="34" y="10" type="curve" smooth="yes"/>
      <point x="21" y="19"/>
      <point x="13" y="35"/>
      <point x="13" y="50" type="curve" smooth="yes"/>
      <point x="13" y="82"/>
      <point x="36" y="100"/>
    </contour>
    <contour>
      <point x="174" y="100" type="line"/>
      <point x="285" y="100" type="line" smooth="yes"/>
      <point x="345" y="100"/>
      <point x="378" y="112"/>
      <point x="409" y="144" type="curve"/>
      <point x="437" y="175"/>
      <point x="450" y="210"/>
      <point x="450" y="261" type="curve" smooth="yes"/>
      <point x="450" y="307" type="line" smooth="yes"/>
      <point x="450" y="354"/>
      <point x="434" y="398"/>
      <point x="405" y="432" type="curve" smooth="yes"/>
      <point x="375" y="467"/>
      <point x="337" y="483"/>
      <point x="284" y="483" type="curve" smooth="yes"/>
      <point x="174" y="483" type="line"/>
    </contour>
  </outline>
</glyph>
<glyph name="I" format="1">
  <advance width="600"/>
  <unicode hex="0049"/>
  <outline>
    <contour>
      <point x="350" y="483" type="line"/>
      <point x="350" y="100" type="line"/>
      <point x="451" y="100" type="line" smooth="yes"/>
      <point x="478" y="100"/>
      <point x="486" y="98"/>
      <point x="496" y="91" type="curve" smooth="yes"/>
      <point x="510" y="81"/>
      <point x="517" y="66"/>
      <point x="517" y="50" type="curve" smooth="yes"/>
      <point x="517" y="17"/>
      <point x="495" y="0"/>
      <point x="451" y="0" type="curve" smooth="yes"/>
      <point x="149" y="0" type="line" smooth="yes"/>
      <point x="125" y="0"/>
      <point x="113" y="3"/>
      <point x="104" y="10" type="curve" smooth="yes"/>
      <point x="91" y="19"/>
      <point x="83" y="35"/>
      <point x="83" y="50" type="curve" smooth="yes"/>
      <point x="83" y="67"/>
      <point x="92" y="84"/>
      <point x="107" y="93" type="curve" smooth="yes"/>
      <point x="116" y="99"/>
      <point x="123" y="100"/>
      <point x="149" y="100" type="curve" smooth="yes"/>
      <point x="250" y="100" type="line"/>
      <point x="250" y="483" type="line"/>
      <point x="149" y="483" type="line" smooth="yes"/>
      <point x="124" y="483"/>
      <point x="113" y="485"/>
      <point x="104" y="492" type="curve" smooth="yes"/>
      <point x="91" y="502"/>
      <point x="83" y="517"/>
      <point x="83" y="533" type="curve" smooth="yes"/>
      <point x="83" y="550"/>
      <point x="92" y="567"/>
      <point x="107" y="576" type="curve" smooth="yes"/>
      <point x="116" y="582"/>
      <point x="123" y="583"/>
      <point x="149" y="583" type="curve" smooth="yes"/>
      <point x="451" y="583" type="line" smooth="yes"/>
      <point x="478" y="583"/>
      <point x="486" y="581"/>
      <point x="496" y="574" type="curve" smooth="yes"/>
      <point x="510" y="564"/>
      <point x="517" y="549"/>
      <point x="517" y="533" type="curve" smooth="yes"/>
      <point x="517" y="516"/>
      <point x="508" y="499"/>
      <point x="493" y="490" type="curve" smooth="yes"/>
      <point x="485" y="485"/>
      <point x="474" y="483"/>
      <point x="451" y="483" type="curve" smooth="yes"/>
    </contour>
  </outline>
</glyph>
<glyph name="K" format="1">
  <advance width="600"/>
  <unicode hex="004B"/>
  <outline>
    <contour>
      <point x="194" y="208" type="line"/>
      <point x="194" y="100" type="line"/>
      <point x="229" y="100" type="line" smooth="yes"/>
      <point x="256" y="100"/>
      <point x="264" y="98"/>
      <point x="274" y="91" type="curve" smooth="yes"/>
      <point x="287" y="81"/>
      <point x="295" y="66"/>
      <point x="295" y="50" type="curve" smooth="yes"/>
      <point x="295" y="33"/>
      <point x="286" y="16"/>
      <point x="271" y="7" type="curve" smooth="yes"/>
      <point x="264" y="3"/>
      <point x="249" y="0"/>
      <point x="229" y="0" type="curve" smooth="yes"/>
      <point x="79" y="0" type="line" smooth="yes"/>
      <point x="56" y="0"/>
      <point x="42" y="3"/>
      <point x="34" y="10" type="curve"/>
      <point x="21" y="19"/>
      <point x="13" y="35"/>
      <point x="13" y="50" type="curve" smooth="yes"/>
      <point x="13" y="67"/>
      <point x="22" y="84"/>
      <point x="37" y="93" type="curve" smooth="yes"/>
      <point x="46" y="99"/>
      <point x="55" y="100"/>
      <point x="79" y="100" type="curve" smooth="yes"/>
      <point x="94" y="100" type="line"/>
      <point x="94" y="483" type="line"/>
      <point x="79" y="483" type="line" smooth="yes"/>
      <point x="54" y="483"/>
      <point x="43" y="485"/>
      <point x="34" y="492" type="curve" smooth="yes"/>
      <point x="21" y="502"/>
      <point x="13" y="517"/>
      <point x="13" y="533" type="curve" smooth="yes"/>
      <point x="13" y="550"/>
      <point x="22" y="567"/>
      <point x="37" y="576" type="curve" smooth="yes"/>
      <point x="46" y="582"/>
      <point x="53" y="583"/>
      <point x="79" y="583" type="curve" smooth="yes"/>
      <point x="229" y="583" type="line" smooth="yes"/>
      <point x="256" y="583"/>
      <point x="265" y="581"/>
      <point x="274" y="574" type="curve" smooth="yes"/>
      <point x="287" y="564"/>
      <point x="295" y="549"/>
      <point x="295" y="533" type="curve" smooth="yes"/>
      <point x="295" y="516"/>
      <point x="286" y="499"/>
      <point x="271" y="490" type="curve" smooth="yes"/>
      <point x="263" y="485"/>
      <point x="252" y="483"/>
      <point x="229" y="483" type="curve" smooth="yes"/>
      <point x="194" y="483" type="line"/>
      <point x="194" y="334" type="line"/>
      <point x="372" y="487" type="line"/>
      <point x="351" y="495"/>
      <point x="341" y="509"/>
      <point x="341" y="532" type="curve" smooth="yes"/>
      <point x="341" y="560"/>
      <point x="357" y="578"/>
      <point x="386" y="581" type="curve" smooth="yes"/>
      <point x="398" y="583"/>
      <point x="399" y="583"/>
      <point x="407" y="583" type="curve" smooth="yes"/>
      <point x="507" y="583" type="line" smooth="yes"/>
      <point x="534" y="583"/>
      <point x="543" y="581"/>
      <point x="553" y="574" type="curve"/>
      <point x="565" y="564"/>
      <point x="573" y="549"/>
      <point x="573" y="533" type="curve" smooth="yes"/>
      <point x="573" y="500"/>
      <point x="552" y="483"/>
      <point x="511" y="483" type="curve"/>
      <point x="335" y="330" type="line"/>
      <point x="396" y="298"/>
      <point x="458" y="215"/>
      <point x="504" y="100" type="curve"/>
      <point x="536" y="100" type="line" smooth="yes"/>
      <point x="563" y="100"/>
      <point x="571" y="98"/>
      <point x="581" y="91" type="curve" smooth="yes"/>
      <point x="594" y="81"/>
      <point x="602" y="66"/>
      <point x="602" y="50" type="curve" smooth="yes"/>
      <point x="602" y="33"/>
      <point x="593" y="16"/>
      <point x="578" y="7" type="curve" smooth="yes"/>
      <point x="571" y="3"/>
      <point x="556" y="0"/>
      <point x="536" y="0" type="curve" smooth="yes"/>
      <point x="426" y="0" type="line"/>
      <point x="379" y="143"/>
      <point x="315" y="240"/>
      <point x="254" y="259" type="curve"/>
    </contour>
  </outline>
</glyph>
<glyph name="O" format="1">
  <advance width="600"/>
  <unicode hex="004F"/>
  <outline>
    <contour>
      <point x="300" y="597" type="curve" smooth="yes"/>
      <point x="367" y="597"/>
      <point x="432" y="570"/>
      <point x="485" y="520" type="curve" smooth="yes"/>
      <point x="548" y="460"/>
      <point x="579" y="383"/>
      <point x="579" y="287" type="curve" smooth="yes"/>
      <point x="579" y="123"/>
      <point x="452" y="-14"/>
      <point x="300" y="-14" type="curve" smooth="yes"/>
      <point x="146" y="-14"/>
      <point x="21" y="123"/>
      <point x="21" y="292" type="curve" smooth="yes"/>
      <point x="21" y="460"/>
      <point x="146" y="597"/>
    </contour>
    <contour>
      <point x="300" y="497" type="curve" smooth="yes"/>
      <point x="202" y="497"/>
      <point x="121" y="404"/>
      <point x="121" y="292" type="curve" smooth="yes"/>
      <point x="121" y="179"/>
      <point x="202" y="86"/>
      <point x="300" y="86" type="curve" smooth="yes"/>
      <point x="397" y="86"/>
      <point x="479" y="179"/>
      <point x="479" y="289" type="curve" smooth="yes"/>
      <point x="479" y="404"/>
      <point x="399" y="497"/>
    </contour>
  </outline>
</glyph>
<glyph name="Q" format="1">
  <advance width="600"/>
  <unicode hex="0051"/>
  <outline>
    <contour>
      <point x="271" y="-6" type="curve"/>
      <point x="267" y="-30" type="line"/>
      <point x="291" y="-26"/>
      <point x="303" y="-25"/>
      <point x="318" y="-25" type="curve" smooth="yes"/>
      <point x="344" y="-25"/>
      <point x="370" y="-29"/>
      <point x="402" y="-38" type="curve" smooth="yes"/>
      <point x="425" y="-44"/>
      <point x="432" y="-45"/>
      <point x="443" y="-45" type="curve" smooth="yes"/>
      <point x="458" y="-45"/>
      <point x="467" y="-42"/>
      <point x="486" y="-30" type="curve" smooth="yes"/>
      <point x="509" y="-15"/>
      <point x="515" y="-13"/>
      <point x="526" y="-13" type="curve" smooth="yes"/>
      <point x="555" y="-13"/>
      <point x="577" y="-35"/>
      <point x="577" y="-63" type="curve" smooth="yes"/>
      <point x="577" y="-84"/>
      <point x="567" y="-98"/>
      <point x="539" y="-114" type="curve" smooth="yes"/>
      <point x="503" y="-136"/>
      <point x="475" y="-145"/>
      <point x="444" y="-145" type="curve" smooth="yes"/>
      <point x="419" y="-145"/>
      <point x="415" y="-144"/>
      <point x="367" y="-125" type="curve" smooth="yes"/>
      <point x="356" y="-121"/>
      <point x="333" y="-117"/>
      <point x="319" y="-117" type="curve" smooth="yes"/>
      <point x="298" y="-117"/>
      <point x="236" y="-127"/>
      <point x="193" y="-138" type="curve" smooth="yes"/>
      <point x="181" y="-141"/>
      <point x="171" y="-143"/>
      <point x="165" y="-143" type="curve" smooth="yes"/>
      <point x="139" y="-143"/>
      <point x="117" y="-119"/>
      <point x="117" y="-91" type="curve" smooth="yes"/>
      <point x="117" y="-76"/>
      <point x="121" y="-68"/>
      <point x="137" y="-53" type="curve" smooth="yes"/>
      <point x="199" y="7" type="line"/>
      <point x="124" y="50"/>
      <point x="93" y="77"/>
      <point x="65" y="124" type="curve" smooth="yes"/>
      <point x="37" y="173"/>
      <point x="21" y="231"/>
      <point x="21" y="292" type="curve" smooth="yes"/>
      <point x="21" y="460"/>
      <point x="146" y="597"/>
      <point x="300" y="597" type="curve" smooth="yes"/>
      <point x="453" y="597"/>
      <point x="579" y="460"/>
      <point x="579" y="294" type="curve" smooth="yes"/>
      <point x="579" y="183"/>
      <point x="524" y="84"/>
      <point x="429" y="27" type="curve" smooth="yes"/>
      <point x="391" y="4"/>
      <point x="345" y="-7"/>
      <point x="289" y="-7" type="curve" smooth="yes"/>
      <point x="287" y="-7"/>
      <point x="279" y="-7"/>
    </contour>
    <contour>
      <point x="300" y="497" type="curve" smooth="yes"/>
      <point x="202" y="497"/>
      <point x="121" y="404"/>
      <point x="121" y="291" type="curve" smooth="yes"/>
      <point x="121" y="179"/>
      <point x="202" y="85"/>
      <point x="300" y="85" type="curve" smooth="yes"/>
      <point x="397" y="85"/>
      <point x="479" y="178"/>
      <point x="479" y="288" type="curve" smooth="yes"/>
      <point x="479" y="404"/>
      <point x="399" y="497"/>
    </contour>
  </outline>
</glyph>
<glyph name="Z" format="1">
  <advance width="600"/>
  <unicode hex="005A"/>
  <outline>
    <contour>
      <point x="201" y="100" type="line"/>
      <point x="427" y="100" type="line"/>
      <point x="427" y="172" type="line" smooth="yes"/>
      <point x="427" y="197"/>
      <point x="429" y="208"/>
      <point x="436" y="218" type="curve"/>
      <point x="446" y="230"/>
      <point x="461" y="238"/>
      <point x="477" y="238" type="curve" smooth="yes"/>
      <point x="494" y="238"/>
      <point x="511" y="229"/>
      <point x="520" y="214" type="curve" smooth="yes"/>
      <point x="526" y="205"/>
      <point x="527" y="198"/>
      <point x="527" y="172" type="curve" smooth="yes"/>
      <point x="527" y="0" type="line"/>
      <point x="73" y="0" type="line"/>
      <point x="73" y="100" type="line"/>
      <point x="375" y="483" type="line"/>
      <point x="196" y="483" type="line"/>
      <point x="196" y="413" type="line" smooth="yes"/>
      <point x="196" y="386"/>
      <point x="194" y="377"/>
      <point x="187" y="368" type="curve" smooth="yes"/>
      <point x="177" y="355"/>
      <point x="162" y="347"/>
      <point x="146" y="347" type="curve" smooth="yes"/>
      <point x="129" y="347"/>
      <point x="113" y="356"/>
      <point x="103" y="371" type="curve" smooth="yes"/>
      <point x="98" y="380"/>
      <point x="96" y="388"/>
      <point x="96" y="413" type="curve" smooth="yes"/>
      <point x="96" y="583" type="line"/>
      <point x="504" y="583" type="line"/>
      <point x="504" y="486" type="line"/>
    </contour>
  </outline>
</glyph>
<glyph name="bracketleft" format="1">
  <advance width="600"/>
  <unicode hex="005B"/>
  <outline>
    <contour>
      <point x="350" y="527" type="line"/>
      <point x="350" y="-48" type="line"/>
      <point x="409" y="-48" type="line" smooth="yes"/>
      <point x="436" y="-48"/>
      <point x="444" y="-50"/>
      <point x="454" y="-57" type="curve" smooth="yes"/>
      <point x="467" y="-67"/>
      <point x="475" y="-82"/>
      <point x="475" y="-98" type="curve" smooth="yes"/>
      <point x="475" y="-115"/>
      <point x="466" y="-131"/>
      <point x="451" y="-141" type="curve" smooth="yes"/>
      <point x="443" y="-146"/>
      <point x="431" y="-148"/>
      <point x="409" y="-148" type="curve" smooth="yes"/>
      <point x="250" y="-148" type="line"/>
      <point x="250" y="627" type="line"/>
      <point x="408" y="627" type="line" smooth="yes"/>
      <point x="435" y="627"/>
      <point x="443" y="625"/>
      <point x="454" y="618" type="curve"/>
      <point x="467" y="608"/>
      <point x="474" y="593"/>
      <point x="474" y="577" type="curve" smooth="yes"/>
      <point x="474" y="560"/>
      <point x="465" y="543"/>
      <point x="450" y="534" type="curve" smooth="yes"/>
      <point x="442" y="529"/>
      <point x="430" y="527"/>
      <point x="408" y="527" type="curve" smooth="yes"/>
    </contour>
  </outline>
</glyph>
<glyph name="asciicircum" format="1">
  <advance width="600"/>
  <unicode hex="005E"/>
  <outline>
    <contour>
      <point x="299" y="494" type="line"/>
      <point x="182" y="356" type="line" smooth="yes"/>
      <point x="160" y="330"/>
      <point x="153" y="325"/>
      <point x="133" y="325" type="curve" smooth="yes"/>
      <point x="106" y="325"/>
      <point x="83" y="348"/>
      <point x="83" y="375" type="curve" smooth="yes"/>
      <point x="83" y="390"/>
      <point x="87" y="398"/>
      <point x="105" y="419" type="curve" smooth="yes"/>
      <point x="299" y="652" type="line"/>
      <point x="495" y="419" type="line" smooth="yes"/>
      <point x="513" y="398"/>
      <point x="517" y="390"/>
      <point x="517" y="375" type="curve" smooth="yes"/>
      <point x="517" y="348"/>
      <point x="494" y="325"/>
      <point x="467" y="325" type="curve" smooth="yes"/>
      <point x="448" y="325"/>
      <point x="439" y="330"/>
      <point x="418" y="355" type="curve" smooth="yes"/>
    </contour>
  </outline>
</glyph>
<glyph name="m" format="1">
  <advance width="600"/>
  <unicode hex="006D"/>
  <outline>
    <contour>
      <point x="141" y="437" type="line"/>
      <point x="141" y="413" type="line"/>
      <point x="176" y="441"/>
      <point x="196" y="450"/>
      <point x="226" y="450" type="curve" smooth="yes"/>
      <point x="265" y="450"/>
      <point x="298" y="434"/>
      <point x="328" y="401" type="curve"/>
      <point x="359" y="435"/>
      <point x="391" y="450"/>
      <point x="432" y="450" type="curve" smooth="yes"/>
      <point x="507" y="450"/>
      <point x="563" y="394"/>
      <point x="563" y="319" type="curve" smooth="yes"/>
      <point x="563" y="100" type="line"/>
      <point x="601" y="100"/>
      <point x="623" y="82"/>
      <point x="623" y="50" type="curve" smooth="yes"/>
      <point x="623" y="17"/>
      <point x="601" y="0"/>
      <point x="557" y="0" type="curve" smooth="yes"/>
      <point x="463" y="0" type="line"/>
      <point x="463" y="311" type="line" smooth="yes"/>
      <point x="463" y="340"/>
      <point x="454" y="350"/>
      <point x="428" y="350" type="curve" smooth="yes"/>
      <point x="402" y="350"/>
      <point x="386" y="341"/>
      <point x="352" y="305" type="curve"/>
      <point x="352" y="100" type="line"/>
      <point x="390" y="100"/>
      <point x="412" y="81"/>
      <point x="412" y="50" type="curve" smooth="yes"/>
      <point x="412" y="33"/>
      <point x="403" y="17"/>
      <point x="388" y="7" type="curve" smooth="yes"/>
      <point x="380" y="2"/>
      <point x="367" y="0"/>
      <point x="346" y="0" type="curve" smooth="yes"/>
      <point x="252" y="0" type="line"/>
      <point x="252" y="311" type="line" smooth="yes"/>
      <point x="252" y="339"/>
      <point x="242" y="350"/>
      <point x="217" y="350" type="curve" smooth="yes"/>
      <point x="190" y="350"/>
      <point x="171" y="339"/>
      <point x="141" y="305" type="curve"/>
      <point x="141" y="100" type="line"/>
      <point x="180" y="100"/>
      <point x="202" y="82"/>
      <point x="202" y="50" type="curve" smooth="yes"/>
      <point x="202" y="33"/>
      <point x="193" y="17"/>
      <point x="178" y="7" type="curve" smooth="yes"/>
      <point x="170" y="2"/>
      <point x="157" y="0"/>
      <point x="136" y="0" type="curve" smooth="yes"/>
      <point x="48" y="0" type="line" smooth="yes"/>
      <point x="24" y="0"/>
      <point x="11" y="3"/>
      <point x="2" y="10" type="curve" smooth="yes"/>
      <point x="-11" y="19"/>
      <point x="-19" y="35"/>
      <point x="-19" y="50" type="curve" smooth="yes"/>
      <point x="-19" y="82"/>
      <point x="3" y="100"/>
      <point x="41" y="100" type="curve"/>
      <point x="41" y="337" type="line"/>
      <point x="3" y="338"/>
      <point x="-19" y="356"/>
      <point x="-19" y="387" type="curve" smooth="yes"/>
      <point x="-19" y="413"/>
      <point x="-2" y="432"/>
      <point x="27" y="435" type="curve" smooth="yes"/>
      <point x="38" y="437"/>
      <point x="40" y="437"/>
      <point x="48" y="437" type="curve" smooth="yes"/>
    </contour>
  </outline>
</glyph>
<glyph name="n" format="1">
  <advance width="600"/>
  <unicode hex="006E"/>
  <outline>
    <contour>
      <point x="195" y="437" type="line"/>
      <point x="195" y="389" type="line"/>
      <point x="243" y="435"/>
      <point x="277" y="450"/>
      <point x="332" y="450" type="curve" smooth="yes"/>
      <point x="377" y="450"/>
      <point x="418" y="437"/>
      <point x="451" y="413" type="curve" smooth="yes"/>
      <point x="491" y="383"/>
      <point x="510" y="341"/>
      <point x="510" y="282" type="curve" smooth="yes"/>
      <point x="510" y="100" type="line"/>
      <point x="549" y="100"/>
      <point x="571" y="82"/>
      <point x="571" y="50" type="curve" smooth="yes"/>
      <point x="571" y="33"/>
      <point x="562" y="16"/>
      <point x="547" y="7" type="curve" smooth="yes"/>
      <point x="539" y="2"/>
      <point x="526" y="0"/>
      <point x="505" y="0" type="curve" smooth="yes"/>
      <point x="416" y="0" type="line" smooth="yes"/>
      <point x="371" y="0"/>
      <point x="349" y="17"/>
      <point x="349" y="50" type="curve" smooth="yes"/>
      <point x="349" y="82"/>
      <point x="371" y="100"/>
      <point x="410" y="100" type="curve"/>
      <point x="410" y="278" type="line" smooth="yes"/>
      <point x="410" y="327"/>
      <point x="382" y="350"/>
      <point x="320" y="350" type="curve" smooth="yes"/>
      <point x="274" y="350"/>
      <point x="242" y="333"/>
      <point x="195" y="282" type="curve"/>
      <point x="195" y="100" type="line"/>
      <point x="201" y="100" type="line" smooth="yes"/>
      <point x="228" y="100"/>
      <point x="236" y="98"/>
      <point x="246" y="91" type="curve" smooth="yes"/>
      <point x="259" y="81"/>
      <point x="267" y="66"/>
      <point x="267" y="50" type="curve" smooth="yes"/>
      <point x="267" y="33"/>
      <point x="258" y="17"/>
      <point x="243" y="7" type="curve" smooth="yes"/>
      <point x="235" y="2"/>
      <point x="222" y="0"/>
      <point x="201" y="0" type="curve" smooth="yes"/>
      <point x="89" y="0" type="line" smooth="yes"/>
      <point x="65" y="0"/>
      <point x="53" y="3"/>
      <point x="43" y="10" type="curve" smooth="yes"/>
      <point x="31" y="19"/>
      <point x="23" y="35"/>
      <point x="23" y="50" type="curve" smooth="yes"/>
      <point x="23" y="67"/>
      <point x="32" y="84"/>
      <point x="47" y="93" type="curve" smooth="yes"/>
      <point x="56" y="98"/>
      <point x="64" y="100"/>
      <point x="89" y="100" type="curve" smooth="yes"/>
      <point x="95" y="100" type="line"/>
      <point x="95" y="337" type="line"/>
      <point x="56" y="338"/>
      <point x="34" y="355"/>
      <point x="34" y="387" type="curve" smooth="yes"/>
      <point x="34" y="414"/>
      <point x="51" y="432"/>
      <point x="80" y="435" type="curve" smooth="yes"/>
      <point x="91" y="437"/>
      <point x="93" y="437"/>
      <point x="101" y="437" type="curve" smooth="yes"/>
    </contour>
  </outline>
</glyph>
<glyph name="o" format="1">
  <advance width="600"/>
  <unicode hex="006F"/>
  <outline>
    <contour>
      <point x="303" y="450" type="curve" smooth="yes"/>
      <point x="444" y="450"/>
      <point x="558" y="346"/>
      <point x="558" y="217" type="curve" smooth="yes"/>
      <point x="558" y="87"/>
      <point x="444" y="-16"/>
      <point x="300" y="-16" type="curve" smooth="yes"/>
      <point x="156" y="-16"/>
      <point x="42" y="87"/>
      <point x="42" y="217" type="curve" smooth="yes"/>
      <point x="42" y="349"/>
      <point x="155" y="450"/>
    </contour>
    <contour>
      <point x="302" y="350" type="curve" smooth="yes"/>
      <point x="211" y="350"/>
      <point x="142" y="293"/>
      <point x="142" y="217" type="curve" smooth="yes"/>
      <point x="142" y="142"/>
      <point x="211" y="84"/>
      <point x="300" y="84" type="curve" smooth="yes"/>
      <point x="389" y="84"/>
      <point x="458" y="142"/>
      <point x="458" y="217" type="curve" smooth="yes"/>
      <point x="458" y="291"/>
      <point x="389" y="350"/>
    </contour>
  </outline>
</glyph>
<glyph name="w" format="1">
  <advance width="600"/>
  <unicode hex="0077"/>
  <outline>
    <contour>
      <point x="301" y="181" type="line"/>
      <point x="233" y="0" type="line"/>
      <point x="139" y="0" type="line"/>
      <point x="54" y="338" type="line"/>
      <point x="20" y="340"/>
      <point x="0" y="358"/>
      <point x="0" y="387" type="curve" smooth="yes"/>
      <point x="0" y="414"/>
      <point x="17" y="432"/>
      <point x="45" y="435" type="curve" smooth="yes"/>
      <point x="57" y="437"/>
      <point x="58" y="437"/>
      <point x="66" y="437" type="curve" smooth="yes"/>
      <point x="158" y="437" type="line" smooth="yes"/>
      <point x="184" y="437"/>
      <point x="194" y="435"/>
      <point x="204" y="428" type="curve"/>
      <point x="216" y="418"/>
      <point x="224" y="403"/>
      <point x="224" y="387" type="curve" smooth="yes"/>
      <point x="224" y="370"/>
      <point x="215" y="354"/>
      <point x="201" y="345" type="curve" smooth="yes"/>
      <point x="193" y="340"/>
      <point x="185" y="338"/>
      <point x="160" y="338" type="curve"/>
      <point x="199" y="185" type="line"/>
      <point x="259" y="343" type="line"/>
      <point x="347" y="343" type="line"/>
      <point x="408" y="185" type="line"/>
      <point x="448" y="338" type="line"/>
      <point x="441" y="338" type="line" smooth="yes"/>
      <point x="415" y="338"/>
      <point x="405" y="340"/>
      <point x="396" y="347" type="curve" smooth="yes"/>
      <point x="383" y="356"/>
      <point x="375" y="372"/>
      <point x="375" y="387" type="curve" smooth="yes"/>
      <point x="375" y="402"/>
      <point x="383" y="418"/>
      <point x="396" y="427" type="curve"/>
      <point x="404" y="434"/>
      <point x="420" y="437"/>
      <point x="441" y="437" type="curve" smooth="yes"/>
      <point x="534" y="437" type="line" smooth="yes"/>
      <point x="560" y="437"/>
      <point x="570" y="435"/>
      <point x="579" y="428" type="curve" smooth="yes"/>
      <point x="592" y="418"/>
      <point x="600" y="403"/>
      <point x="600" y="387" type="curve" smooth="yes"/>
      <point x="600" y="358"/>
      <point x="581" y="340"/>
      <point x="548" y="338" type="curve"/>
      <point x="464" y="0" type="line"/>
      <point x="372" y="0" type="line"/>
    </contour>
  </outline>
</glyph>
<glyph name="x" format="1">
  <advance width="600"/>
  <unicode hex="0078"/>
  <outline>
    <contour>
      <point x="373" y="227" type="line"/>
      <point x="525" y="100" type="line"/>
      <point x="559" y="98"/>
      <point x="579" y="80"/>
      <point x="579" y="50" type="curve" smooth="yes"/>
      <point x="579" y="33"/>
      <point x="569" y="16"/>
      <point x="555" y="7" type="curve" smooth="yes"/>
      <point x="547" y="2"/>
      <point x="534" y="0"/>
      <point x="513" y="0" type="curve" smooth="yes"/>
      <point x="401" y="0" type="line" smooth="yes"/>
      <point x="376" y="0"/>
      <point x="364" y="3"/>
      <point x="354" y="10" type="curve" smooth="yes"/>
      <point x="341" y="20"/>
      <point x="334" y="34"/>
      <point x="334" y="51" type="curve" smooth="yes"/>
      <point x="334" y="74"/>
      <point x="349" y="93"/>
      <point x="374" y="100" type="curve"/>
      <point x="299" y="161" type="line"/>
      <point x="226" y="100" type="line"/>
      <point x="254" y="88"/>
      <point x="264" y="75"/>
      <point x="264" y="51" type="curve" smooth="yes"/>
      <point x="264" y="17"/>
      <point x="242" y="0"/>
      <point x="198" y="0" type="curve" smooth="yes"/>
      <point x="87" y="0" type="line" smooth="yes"/>
      <point x="43" y="0"/>
      <point x="21" y="17"/>
      <point x="21" y="50" type="curve" smooth="yes"/>
      <point x="21" y="80"/>
      <point x="41" y="98"/>
      <point x="75" y="100" type="curve"/>
      <point x="220" y="228" type="line"/>
      <point x="92" y="337" type="line"/>
      <point x="59" y="340"/>
      <point x="40" y="358"/>
      <point x="40" y="387" type="curve" smooth="yes"/>
      <point x="40" y="414"/>
      <point x="57" y="432"/>
      <point x="85" y="435" type="curve" smooth="yes"/>
      <point x="97" y="437"/>
      <point x="98" y="437"/>
      <point x="106" y="437" type="curve" smooth="yes"/>
      <point x="198" y="437" type="line" smooth="yes"/>
      <point x="224" y="437"/>
      <point x="234" y="435"/>
      <point x="244" y="427" type="curve" smooth="yes"/>
      <point x="256" y="418"/>
      <point x="264" y="403"/>
      <point x="264" y="388" type="curve" smooth="yes"/>
      <point x="264" y="370"/>
      <point x="255" y="353"/>
      <point x="238" y="342" type="curve"/>
      <point x="299" y="293" type="line"/>
      <point x="360" y="343" type="line"/>
      <point x="341" y="356"/>
      <point x="334" y="369"/>
      <point x="334" y="386" type="curve" smooth="yes"/>
      <point x="334" y="414"/>
      <point x="351" y="432"/>
      <point x="379" y="435" type="curve" smooth="yes"/>
      <point x="391" y="437"/>
      <point x="392" y="437"/>
      <point x="400" y="437" type="curve" smooth="yes"/>
      <point x="491" y="437" type="line" smooth="yes"/>
      <point x="517" y="437"/>
      <point x="527" y="435"/>
      <point x="537" y="428" type="curve" smooth="yes"/>
      <point x="550" y="418"/>
      <point x="558" y="403"/>
      <point x="558" y="387" type="curve" smooth="yes"/>
      <point x="558" y="358"/>
      <point x="539" y="340"/>
      <point x="505" y="337" type="curve"/>
    </contour>
  </outline>
</glyph>
<glyph name="y" format="1">
  <advance width="600"/>
  <unicode hex="0079"/>
  <outline>
    <contour>
      <point x="242" y="3" type="line"/>
      <point x="70" y="337" type="line"/>
      <point x="39" y="341"/>
      <point x="21" y="359"/>
      <point x="21" y="387" type="curve" smooth="yes"/>
      <point x="21" y="414"/>
      <point x="38" y="432"/>
      <point x="67" y="435" type="curve" smooth="yes"/>
      <point x="78" y="437"/>
      <point x="80" y="437"/>
      <point x="87" y="437" type="curve" smooth="yes"/>
      <point x="177" y="437" type="line" smooth="yes"/>
      <point x="203" y="437"/>
      <point x="213" y="435"/>
      <point x="223" y="428" type="curve"/>
      <point x="235" y="418"/>
      <point x="243" y="403"/>
      <point x="243" y="387" type="curve" smooth="yes"/>
      <point x="243" y="356"/>
      <point x="222" y="338"/>
      <point x="184" y="337" type="curve"/>
      <point x="298" y="114" type="line"/>
      <point x="418" y="337" type="line"/>
      <point x="377" y="337"/>
      <point x="354" y="355"/>
      <point x="354" y="387" type="curve" smooth="yes"/>
      <point x="354" y="414"/>
      <point x="371" y="432"/>
      <point x="400" y="435" type="curve" smooth="yes"/>
      <point x="411" y="437"/>
      <point x="413" y="437"/>
      <point x="421" y="437" type="curve" smooth="yes"/>
      <point x="513" y="437" type="line" smooth="yes"/>
      <point x="539" y="437"/>
      <point x="549" y="435"/>
      <point x="558" y="428" type="curve" smooth="yes"/>
      <point x="572" y="418"/>
      <point x="579" y="403"/>
      <point x="579" y="387" type="curve" smooth="yes"/>
      <point x="579" y="358"/>
      <point x="560" y="340"/>
      <point x="527" y="337" type="curve"/>
      <point x="297" y="-105" type="line"/>
      <point x="302" y="-105" type="line" smooth="yes"/>
      <point x="328" y="-105"/>
      <point x="338" y="-107"/>
      <point x="348" y="-114" type="curve"/>
      <point x="360" y="-124"/>
      <point x="368" y="-139"/>
      <point x="368" y="-155" type="curve" smooth="yes"/>
      <point x="368" y="-172"/>
      <point x="359" y="-188"/>
      <point x="344" y="-198" type="curve" smooth="yes"/>
      <point x="336" y="-203"/>
      <point x="324" y="-205"/>
      <point x="302" y="-205" type="curve" smooth="yes"/>
      <point x="87" y="-205" type="line" smooth="yes"/>
      <point x="62" y="-205"/>
      <point x="51" y="-203"/>
      <point x="42" y="-195" type="curve"/>
      <point x="29" y="-186"/>
      <point x="21" y="-171"/>
      <point x="21" y="-155" type="curve" smooth="yes"/>
      <point x="21" y="-138"/>
      <point x="30" y="-121"/>
      <point x="45" y="-112" type="curve" smooth="yes"/>
      <point x="54" y="-107"/>
      <point x="63" y="-105"/>
      <point x="87" y="-105" type="curve" smooth="yes"/>
      <point x="187" y="-105" type="line"/>
    </contour>
  </outline>
</glyph>
<glyph name="paragraph" format="1">
  <advance width="600"/>
  <unicode hex="00B6"/>
  <outline>
    <contour>
      <point x="468" y="505" type="line"/>
      <point x="468" y="-96" type="line"/>
      <point x="504" y="-96" type="line" smooth="yes"/>
      <point x="541" y="-96"/>
      <point x="558" y="-109"/>
      <point x="558" y="-135" type="curve" smooth="yes"/>
      <point x="558" y="-161"/>
      <point x="540" y="-174"/>
      <point x="504" y="-174" type="curve" smooth="yes"/>
      <point x="411" y="-174" type="line" smooth="yes"/>
      <point x="390" y="-174"/>
      <point x="380" y="-165"/>
      <point x="371" y="-140" type="curve"/>
      <point x="360" y="-168"/>
      <point x="352" y="-174"/>
      <point x="328" y="-174" type="curve" smooth="yes"/>
      <point x="191" y="-174" type="line" smooth="yes"/>
      <point x="156" y="-174"/>
      <point x="138" y="-161"/>
      <point x="138" y="-135" type="curve" smooth="yes"/>
      <point x="138" y="-122"/>
      <point x="146" y="-109"/>
      <point x="157" y="-102" type="curve" smooth="yes"/>
      <point x="165" y="-97"/>
      <point x="170" y="-96"/>
      <point x="191" y="-96" type="curve" smooth="yes"/>
      <point x="270" y="-96" type="line"/>
      <point x="270" y="185" type="line"/>
      <point x="141" y="198"/>
      <point x="49" y="272"/>
      <point x="49" y="361" type="curve" smooth="yes"/>
      <point x="49" y="407" type="line" smooth="yes"/>
      <point x="49" y="504"/>
      <point x="163" y="583"/>
      <point x="305" y="583" type="curve" smooth="yes"/>
      <point x="502" y="583" type="line" smooth="yes"/>
      <point x="538" y="583"/>
      <point x="556" y="570"/>
      <point x="556" y="544" type="curve" smooth="yes"/>
      <point x="556" y="518"/>
      <point x="539" y="505"/>
      <point x="502" y="505" type="curve" smooth="yes"/>
    </contour>
    <contour>
      <point x="270" y="266" type="curve"/>
      <point x="270" y="500" type="line"/>
      <point x="203" y="486"/>
      <point x="162" y="450"/>
      <point x="162" y="405" type="curve" smooth="yes"/>
      <point x="162" y="361" type="line" smooth="yes"/>
      <point x="162" y="316"/>
      <point x="203" y="280"/>
    </contour>
    <contour>
      <point x="392" y="505" type="line"/>
      <point x="348" y="505" type="line"/>
      <point x="348" y="-96" type="line"/>
      <point x="361" y="-102"/>
      <point x="366" y="-108"/>
      <point x="371" y="-124" type="curve"/>
      <point x="375" y="-109"/>
      <point x="381" y="-102"/>
      <point x="392" y="-96" type="curve"/>
    </contour>
  </outline>
</glyph>
<glyph name="cedilla" format="1">
  <advance width="600"/>
  <unicode hex="00B8"/>
  <outline>
    <contour>
      <point x="262" y="0" type="line"/>
      <point x="332" y="0" type="line"/>
      <point x="332" y="-41" type="line"/>
      <point x="383" y="-52"/>
      <point x="407" y="-81"/>
      <point x="407" y="-132" type="curve" smooth="yes"/>
      <point x="407" y="-189"/>
      <point x="362" y="-229"/>
      <point x="300" y="-229" type="curve" smooth="yes"/>
      <point x="273" y="-229"/>
      <point x="232" y="-218"/>
      <point x="208" y="-205" type="curve" smooth="yes"/>
      <point x="189" y="-194"/>
      <point x="180" y="-182"/>
      <point x="180" y="-166" type="curve" smooth="yes"/>
      <point x="180" y="-147"/>
      <point x="196" y="-131"/>
      <point x="215" y="-131" type="curve" smooth="yes"/>
      <point x="223" y="-131"/>
      <point x="226" y="-132"/>
      <point x="244" y="-142" type="curve" smooth="yes"/>
      <point x="262" y="-152"/>
      <point x="284" y="-159"/>
      <point x="301" y="-159" type="curve" smooth="yes"/>
      <point x="324" y="-159"/>
      <point x="337" y="-150"/>
      <point x="337" y="-134" type="curve" smooth="yes"/>
      <point x="337" y="-113"/>
      <point x="318" y="-100"/>
      <point x="284" y="-100" type="curve" smooth="yes"/>
      <point x="279" y="-100"/>
      <point x="275" y="-100"/>
      <point x="262" y="-102" type="curve"/>
    </contour>
  </outline>
</glyph>
<glyph name="guillemotright" format="1">
  <advance width="600"/>
  <unicode hex="00BB"/>
  <outline>
    <contour>
      <point x="430" y="217" type="line"/>
      <point x="279" y="358" type="line" smooth="yes"/>
      <point x="268" y="368"/>
      <point x="263" y="376"/>
      <point x="263" y="385" type="curve" smooth="yes"/>
      <point x="263" y="401"/>
      <point x="278" y="415"/>
      <point x="296" y="415" type="curve" smooth="yes"/>
      <point x="305" y="415"/>
      <point x="310" y="413"/>
      <point x="324" y="402" type="curve" smooth="yes"/>
      <point x="571" y="217" type="line"/>
      <point x="324" y="33" type="line" smooth="yes"/>
      <point x="310" y="22"/>
      <point x="305" y="20"/>
      <point x="295" y="20" type="curve" smooth="yes"/>
      <point x="278" y="20"/>
      <point x="263" y="34"/>
      <point x="263" y="50" type="curve" smooth="yes"/>
      <point x="263" y="59"/>
      <point x="267" y="67"/>
      <point x="279" y="77" type="curve" smooth="yes"/>
    </contour>
    <contour>
      <point x="200" y="217" type="line"/>
      <point x="49" y="358" type="line" smooth="yes"/>
      <point x="38" y="368"/>
      <point x="33" y="376"/>
      <point x="33" y="385" type="curve" smooth="yes"/>
      <point x="33" y="401"/>
      <point x="48" y="415"/>
      <point x="66" y="415" type="curve" smooth="yes"/>
      <point x="75" y="415"/>
      <point x="80" y="413"/>
      <point x="94" y="402" type="curve" smooth="yes"/>
      <point x="341" y="217" type="line"/>
      <point x="94" y="33" type="line" smooth="yes"/>
      <point x="80" y="22"/>
      <point x="75" y="20"/>
      <point x="65" y="20" type="curve" smooth="yes"/>
      <point x="48" y="20"/>
      <point x="33" y="34"/>
      <point x="33" y="50" type="curve" smooth="yes"/>
      <point x="33" y="59"/>
      <point x="37" y="67"/>
      <point x="49" y="77" type="curve" smooth="yes"/>
    </contour>
  </outline>
</glyph>
<glyph name="Acircumflex" format="1">
  <advance width="600"/>
  <unicode hex="00C2"/>
  <outline>
    <contour>
      <point x="416" y="158" type="line"/>
      <point x="178" y="158" type="line"/>
      <point x="155" y="100" type="line"/>
      <point x="178" y="100" type="line" smooth="yes"/>
      <point x="205" y="100"/>
      <point x="213" y="98"/>
      <point x="223" y="91" type="curve" smooth="yes"/>
      <point x="236" y="81"/>
      <point x="244" y="66"/>
      <point x="244" y="50" type="curve" smooth="yes"/>
      <point x="244" y="33"/>
      <point x="235" y="16"/>
      <point x="220" y="7" type="curve" smooth="yes"/>
      <point x="212" y="2"/>
      <point x="199" y="0"/>
      <point x="178" y="0" type="curve" smooth="yes"/>
      <point x="45" y="0" type="line" smooth="yes"/>
      <point x="1" y="0"/>
      <point x="-21" y="17"/>
      <point x="-21" y="50" type="curve" smooth="yes"/>
      <point x="-21" y="67"/>
      <point x="-12" y="84"/>
      <point x="3" y="93" type="curve" smooth="yes"/>
      <point x="12" y="99"/>
      <point x="21" y="100"/>
      <point x="46" y="100" type="curve"/>
      <point x="201" y="483" type="line"/>
      <point x="138" y="483" type="line" smooth="yes"/>
      <point x="112" y="483"/>
      <point x="102" y="485"/>
      <point x="92" y="492" type="curve" smooth="yes"/>
      <point x="79" y="502"/>
      <point x="71" y="517"/>
      <point x="71" y="533" type="curve" smooth="yes"/>
      <point x="71" y="550"/>
      <point x="80" y="566"/>
      <point x="95" y="576" type="curve" smooth="yes"/>
      <point x="104" y="582"/>
      <point x="111" y="583"/>
      <point x="138" y="583" type="curve" smooth="yes"/>
      <point x="354" y="583" type="line"/>
      <point x="553" y="100" type="line"/>
      <point x="581" y="100"/>
      <point x="590" y="98"/>
      <point x="600" y="90" type="curve" smooth="yes"/>
      <point x="613" y="81"/>
      <point x="621" y="66"/>
      <point x="621" y="50" type="curve" smooth="yes"/>
      <point x="621" y="33"/>
      <point x="612" y="16"/>
      <point x="597" y="7" type="curve" smooth="yes"/>
      <point x="589" y="2"/>
      <point x="576" y="0"/>
      <point x="555" y="0" type="curve" smooth="yes"/>
      <point x="416" y="0" type="line" smooth="yes"/>
      <point x="392" y="0"/>
      <point x="380" y="3"/>
      <point x="371" y="10" type="curve" smooth="yes"/>
      <point x="358" y="19"/>
      <point x="350" y="34"/>
      <point x="350" y="50" type="curve" smooth="yes"/>
      <point x="350" y="67"/>
      <point x="359" y="84"/>
      <point x="374" y="93" type="curve" smooth="yes"/>
      <point x="383" y="99"/>
      <point x="390" y="100"/>
      <point x="416" y="100" type="curve" smooth="yes"/>
      <point x="439" y="100" type="line"/>
    </contour>
    <contour>
      <point x="375" y="258" type="line"/>
      <point x="297" y="450" type="line"/>
      <point x="218" y="258" type="line"/>
    </contour>
    <contour>
      <point x="284" y="750" type="line"/>
      <point x="171" y="653" type="line" smooth="yes"/>
      <point x="159" y="643"/>
      <point x="152" y="640"/>
      <point x="143" y="640" type="curve" smooth="yes"/>
      <point x="124" y="640"/>
      <point x="108" y="657"/>
      <point x="108" y="675" type="curve" smooth="yes"/>
      <point x="108" y="689"/>
      <point x="110" y="692"/>
      <point x="132" y="711" type="curve" smooth="yes"/>
      <point x="284" y="839" type="line"/>
      <point x="435" y="711" type="line"/>
      <point x="444" y="703" type="line" smooth="yes"/>
      <point x="455" y="694"/>
      <point x="459" y="687"/>
      <point x="459" y="675" type="curve" smooth="yes"/>
      <point x="459" y="657"/>
      <point x="443" y="640"/>
      <point x="425" y="640" type="curve" smooth="yes"/>
      <point x="415" y="640"/>
      <point x="407" y="644"/>
      <point x="396" y="653" type="curve" smooth="yes"/>
    </contour>
  </outline>
</glyph>
<glyph name="Aring" format="1">
  <advance width="600"/>
  <unicode hex="00C5"/>
  <outline>
    <contour>
      <point x="416" y="158" type="line"/>
      <point x="178" y="158" type="line"/>
      <point x="155" y="100" type="line"/>
      <point x="178" y="100" type="line" smooth="yes"/>
      <point x="205" y="100"/>
      <point x="213" y="98"/>
      <point x="223" y="91" type="curve" smooth="yes"/>
      <point x="236" y="81"/>
      <point x="244" y="66"/>
      <point x="244" y="50" type="curve" smooth="yes"/>
      <point x="244" y="33"/>
      <point x="235" y="16"/>
      <point x="220" y="7" type="curve" smooth="yes"/>
      <point x="212" y="2"/>
      <point x="199" y="0"/>
      <point x="178" y="0" type="curve" smooth="yes"/>
      <point x="45" y="0" type="line" smooth="yes"/>
      <point x="1" y="0"/>
      <point x="-21" y="17"/>
      <point x="-21" y="50" type="curve" smooth="yes"/>
      <point x="-21" y="67"/>
      <point x="-12" y="84"/>
      <point x="3" y="93" type="curve" smooth="yes"/>
      <point x="12" y="99"/>
      <point x="21" y="100"/>
      <point x="46" y="100" type="curve"/>
      <point x="201" y="483" type="line"/>
      <point x="138" y="483" type="line" smooth="yes"/>
      <point x="112" y="483"/>
      <point x="102" y="485"/>
      <point x="92" y="492" type="curve" smooth="yes"/>
      <point x="79" y="502"/>
      <point x="71" y="517"/>
      <point x="71" y="533" type="curve" smooth="yes"/>
      <point x="71" y="550"/>
      <point x="80" y="566"/>
      <point x="95" y="576" type="curve" smooth="yes"/>
      <point x="104" y="582"/>
      <point x="111" y="583"/>
      <point x="138" y="583" type="curve" smooth="yes"/>
      <point x="354" y="583" type="line"/>
      <point x="553" y="100" type="line"/>
      <point x="581" y="100"/>
      <point x="590" y="98"/>
      <point x="600" y="90" type="curve" smooth="yes"/>
      <point x="613" y="81"/>
      <point x="621" y="66"/>
      <point x="621" y="50" type="curve" smooth="yes"/>
      <point x="621" y="33"/>
      <point x="612" y="16"/>
      <point x="597" y="7" type="curve" smooth="yes"/>
      <point x="589" y="2"/>
      <point x="576" y="0"/>
      <point x="555" y="0" type="curve" smooth="yes"/>
      <point x="416" y="0" type="line" smooth="yes"/>
      <point x="392" y="0"/>
      <point x="380" y="3"/>
      <point x="371" y="10" type="curve" smooth="yes"/>
      <point x="358" y="19"/>
      <point x="350" y="34"/>
      <point x="350" y="50" type="curve" smooth="yes"/>
      <point x="350" y="67"/>
      <point x="359" y="84"/>
      <point x="374" y="93" type="curve" smooth="yes"/>
      <point x="383" y="99"/>
      <point x="390" y="100"/>
      <point x="416" y="100" type="curve" smooth="yes"/>
      <point x="439" y="100" type="line"/>
    </contour>
    <contour>
      <point x="375" y="258" type="line"/>
      <point x="297" y="450" type="line"/>
      <point x="218" y="258" type="line"/>
    </contour>
    <contour>
      <point x="283" y="871" type="curve" smooth="yes"/>
      <point x="351" y="871"/>
      <point x="406" y="816"/>
      <point x="406" y="749" type="curve" smooth="yes"/>
      <point x="406" y="685"/>
      <point x="349" y="630"/>
      <point x="283" y="630" type="curve" smooth="yes"/>
      <point x="216" y="630"/>
      <point x="160" y="685"/>
      <point x="160" y="751" type="curve" smooth="yes"/>
      <point x="160" y="816"/>
      <point x="216" y="871"/>
    </contour>
    <contour>
      <point x="283" y="818" type="curve" smooth="yes"/>
      <point x="245" y="818"/>
      <point x="213" y="787"/>
      <point x="213" y="751" type="curve" smooth="yes"/>
      <point x="213" y="715"/>
      <point x="245" y="684"/>
      <point x="283" y="684" type="curve" smooth="yes"/>
      <point x="320" y="684"/>
      <point x="353" y="715"/>
      <point x="353" y="750" type="curve" smooth="yes"/>
      <point x="353" y="787"/>
      <point x="321" y="818"/>
    </contour>
  </outline>
</glyph>
<glyph name="Ccedilla" format="1">
  <advance width="600"/>
  <unicode hex="00C7"/>
  <outline>
    <contour>
      <point x="337" y="-14" type="curve"/>
      <point x="337" y="-42" type="line"/>
      <point x="388" y="-52"/>
      <point x="412" y="-81"/>
      <point x="412" y="-132" type="curve" smooth="yes"/>
      <point x="412" y="-188"/>
      <point x="367" y="-229"/>
      <point x="307" y="-229" type="curve" smooth="yes"/>
      <point x="272" y="-229"/>
      <point x="230" y="-217"/>
      <point x="203" y="-199" type="curve" smooth="yes"/>
      <point x="192" y="-191"/>
      <point x="185" y="-179"/>
      <point x="185" y="-166" type="curve" smooth="yes"/>
      <point x="185" y="-147"/>
      <point x="201" y="-131"/>
      <point x="220" y="-131" type="curve" smooth="yes"/>
      <point x="228" y="-131"/>
      <point x="230" y="-132"/>
      <point x="249" y="-142" type="curve"/>
      <point x="267" y="-153"/>
      <point x="289" y="-159"/>
      <point x="306" y="-159" type="curve" smooth="yes"/>
      <point x="329" y="-159"/>
      <point x="342" y="-150"/>
      <point x="342" y="-134" type="curve" smooth="yes"/>
      <point x="342" y="-113"/>
      <point x="323" y="-100"/>
      <point x="292" y="-100" type="curve" smooth="yes"/>
      <point x="288" y="-100"/>
      <point x="284" y="-100"/>
      <point x="267" y="-102" type="curve"/>
      <point x="267" y="-9" type="line"/>
      <point x="208" y="3"/>
      <point x="174" y="16"/>
      <point x="137" y="43" type="curve" smooth="yes"/>
      <point x="71" y="92"/>
      <point x="33" y="167"/>
      <point x="33" y="249" type="curve" smooth="yes"/>
      <point x="33" y="315" type="line" smooth="yes"/>
      <point x="33" y="475"/>
      <point x="150" y="597"/>
      <point x="305" y="597" type="curve" smooth="yes"/>
      <point x="357" y="597"/>
      <point x="392" y="589"/>
      <point x="447" y="563" type="curve"/>
      <point x="457" y="559" type="line"/>
      <point x="470" y="577"/>
      <point x="482" y="583"/>
      <point x="499" y="583" type="curve" smooth="yes"/>
      <point x="517" y="583"/>
      <point x="533" y="574"/>
      <point x="542" y="559" type="curve" smooth="yes"/>
      <point x="548" y="550"/>
      <point x="549" y="542"/>
      <point x="549" y="517" type="curve" smooth="yes"/>
      <point x="549" y="433" type="line" smooth="yes"/>
      <point x="549" y="408"/>
      <point x="547" y="397"/>
      <point x="540" y="388" type="curve" smooth="yes"/>
      <point x="530" y="375"/>
      <point x="515" y="367"/>
      <point x="499" y="367" type="curve" smooth="yes"/>
      <point x="486" y="367"/>
      <point x="472" y="373"/>
      <point x="464" y="381" type="curve" smooth="yes"/>
      <point x="456" y="389"/>
      <point x="454" y="396"/>
      <point x="449" y="420" type="curve" smooth="yes"/>
      <point x="445" y="444"/>
      <point x="435" y="457"/>
      <point x="406" y="473" type="curve" smooth="yes"/>
      <point x="379" y="488"/>
      <point x="343" y="497"/>
      <point x="309" y="497" type="curve" smooth="yes"/>
      <point x="207" y="497"/>
      <point x="133" y="421"/>
      <point x="133" y="315" type="curve" smooth="yes"/>
      <point x="133" y="251" type="line" smooth="yes"/>
      <point x="133" y="151"/>
      <point x="210" y="86"/>
      <point x="329" y="86" type="curve" smooth="yes"/>
      <point x="375" y="86"/>
      <point x="415" y="94"/>
      <point x="440" y="109" type="curve" smooth="yes"/>
      <point x="451" y="115"/>
      <point x="451" y="115"/>
      <point x="478" y="143" type="curve" smooth="yes"/>
      <point x="489" y="154"/>
      <point x="501" y="159"/>
      <point x="514" y="159" type="curve" smooth="yes"/>
      <point x="541" y="159"/>
      <point x="564" y="136"/>
      <point x="564" y="108" type="curve" smooth="yes"/>
      <point x="564" y="82"/>
      <point x="535" y="48"/>
      <point x="491" y="23" type="curve" smooth="yes"/>
      <point x="451" y="1"/>
      <point x="406" y="-10"/>
    </contour>
  </outline>
</glyph>
<glyph name="Igrave" format="1">
  <advance width="600"/>
  <unicode hex="00CC"/>
  <outline>
    <contour>
      <point x="350" y="483" type="line"/>
      <point x="350" y="100" type="line"/>
      <point x="451" y="100" type="line" smooth="yes"/>
      <point x="478" y="100"/>
      <point x="486" y="98"/>
      <point x="496" y="91" type="curve" smooth="yes"/>
      <point x="510" y="81"/>
      <point x="517" y="66"/>
      <point x="517" y="50" type="curve" smooth="yes"/>
      <point x="517" y="17"/>
      <point x="495" y="0"/>
      <point x="451" y="0" type="curve" smooth="yes"/>
      <point x="149" y="0" type="line" smooth="yes"/>
      <point x="125" y="0"/>
      <point x="113" y="3"/>
      <point x="104" y="10" type="curve" smooth="yes"/>
      <point x="91" y="19"/>
      <point x="83" y="35"/>
      <point x="83" y="50" type="curve" smooth="yes"/>
      <point x="83" y="67"/>
      <point x="92" y="84"/>
      <point x="107" y="93" type="curve" smooth="yes"/>
      <point x="116" y="99"/>
      <point x="123" y="100"/>
      <point x="149" y="100" type="curve" smooth="yes"/>
      <point x="250" y="100" type="line"/>
      <point x="250" y="483" type="line"/>
      <point x="149" y="483" type="line" smooth="yes"/>
      <point x="124" y="483"/>
      <point x="113" y="485"/>
      <point x="104" y="492" type="curve" smooth="yes"/>
      <point x="91" y="502"/>
      <point x="83" y="517"/>
      <point x="83" y="533" type="curve" smooth="yes"/>
      <point x="83" y="550"/>
      <point x="92" y="567"/>
      <point x="107" y="576" type="curve" smooth="yes"/>
      <point x="116" y="582"/>
      <point x="123" y="583"/>
      <point x="149" y="583" type="curve" smooth="yes"/>
      <point x="451" y="583" type="line" smooth="yes"/>
      <point x="478" y="583"/>
      <point x="486" y="581"/>
      <point x="496" y="574" type="curve" smooth="yes"/>
      <point x="510" y="564"/>
      <point x="517" y="549"/>
      <point x="517" y="533" type="curve" smooth="yes"/>
      <point x="517" y="516"/>
      <point x="508" y="499"/>
      <point x="493" y="490" type="curve" smooth="yes"/>
      <point x="485" y="485"/>
      <point x="474" y="483"/>
      <point x="451" y="483" type="curve" smooth="yes"/>
    </contour>
    <contour>
      <point x="220" y="824" type="curve" smooth="yes"/>
      <point x="353" y="712" type="line" smooth="yes"/>
      <point x="369" y="699"/>
      <point x="376" y="688"/>
      <point x="376" y="676" type="curve" smooth="yes"/>
      <point x="376" y="657"/>
      <point x="359" y="640"/>
      <point x="339" y="640" type="curve" smooth="yes"/>
      <point x="330" y="640"/>
      <point x="320" y="645"/>
      <point x="307" y="656" type="curve" smooth="yes"/>
      <point x="174" y="767" type="line" smooth="yes"/>
      <point x="157" y="781"/>
      <point x="151" y="790"/>
      <point x="151" y="803" type="curve" smooth="yes"/>
      <point x="151" y="823"/>
      <point x="167" y="839"/>
      <point x="188" y="839" type="curve" smooth="yes"/>
      <point x="198" y="839"/>
      <point x="206" y="835"/>
    </contour>
  </outline>
</glyph>
<glyph name="Eth" format="1">
  <advance width="600"/>
  <unicode hex="00D0"/>
  <outline>
    <contour>
      <point x="74" y="243" type="line"/>
      <point x="66" y="243" type="line" smooth="yes"/>
      <point x="43" y="243"/>
      <point x="30" y="246"/>
      <point x="21" y="253" type="curve" smooth="yes"/>
      <point x="8" y="262"/>
      <point x="0" y="277"/>
      <point x="0" y="293" type="curve" smooth="yes"/>
      <point x="0" y="310"/>
      <point x="9" y="327"/>
      <point x="24" y="336" type="curve" smooth="yes"/>
      <point x="33" y="342"/>
      <point x="40" y="343"/>
      <point x="67" y="343" type="curve" smooth="yes"/>
      <point x="74" y="343" type="line"/>
      <point x="74" y="483" type="line"/>
      <point x="35" y="483"/>
      <point x="13" y="501"/>
      <point x="13" y="533" type="curve" smooth="yes"/>
      <point x="13" y="550"/>
      <point x="22" y="567"/>
      <point x="37" y="576" type="curve" smooth="yes"/>
      <point x="46" y="582"/>
      <point x="53" y="583"/>
      <point x="80" y="583" type="curve" smooth="yes"/>
      <point x="292" y="583" type="line" smooth="yes"/>
      <point x="438" y="583"/>
      <point x="550" y="462"/>
      <point x="550" y="305" type="curve" smooth="yes"/>
      <point x="550" y="258" type="line" smooth="yes"/>
      <point x="550" y="185"/>
      <point x="526" y="123"/>
      <point x="480" y="75" type="curve" smooth="yes"/>
      <point x="431" y="23"/>
      <point x="371" y="0"/>
      <point x="284" y="0" type="curve" smooth="yes"/>
      <point x="79" y="0" type="line" smooth="yes"/>
      <point x="56" y="0"/>
      <point x="43" y="3"/>
      <point x="34" y="10" type="curve" smooth="yes"/>
      <point x="21" y="19"/>
      <point x="13" y="35"/>
      <point x="13" y="50" type="curve" smooth="yes"/>
      <point x="13" y="82"/>
      <point x="36" y="100"/>
      <point x="74" y="100" type="curve"/>
    </contour>
    <contour>
      <point x="174" y="243" type="line"/>
      <point x="174" y="100" type="line"/>
      <point x="285" y="100" type="line" smooth="yes"/>
      <point x="345" y="100"/>
      <point x="378" y="112"/>
      <point x="409" y="144" type="curve"/>
      <point x="437" y="175"/>
      <point x="450" y="210"/>
      <point x="450" y="261" type="curve" smooth="yes"/>
      <point x="450" y="307" type="line" smooth="yes"/>
      <point x="450" y="354"/>
      <point x="434" y="398"/>
      <point x="405" y="432" type="curve" smooth="yes"/>
      <point x="375" y="467"/>
      <point x="337" y="483"/>
      <point x="284" y="483" type="curve" smooth="yes"/>
      <point x="174" y="483" type="line"/>
      <point x="174" y="343" type="line"/>
      <point x="248" y="343" type="line" smooth="yes"/>
      <point x="275" y="343"/>
      <point x="283" y="341"/>
      <point x="293" y="334" type="curve" smooth="yes"/>
      <point x="307" y="324"/>
      <point x="314" y="309"/>
      <point x="314" y="293" type="curve" smooth="yes"/>
      <point x="314" y="260"/>
      <point x="292" y="243"/>
      <point x="248" y="243" type="curve" smooth="yes"/>
    </contour>
  </outline>
</glyph>
<glyph name="Oacute" format="1">
  <advance width="600"/>
  <unicode hex="00D3"/>
  <outline>
    <contour>
      <point x="300" y="597" type="curve" smooth="yes"/>
      <point x="367" y="597"/>
      <point x="432" y="570"/>
      <point x="485" y="520" type="curve" smooth="yes"/>
      <point x="548" y="460"/>
      <point x="579" y="383"/>
      <point x="579" y="287" type="curve" smooth="yes"/>
      <point x="579" y="123"/>
      <point x="452" y="-14"/>
      <point x="300" y="-14" type="curve" smooth="yes"/>
      <point x="146" y="-14"/>
      <point x="21" y="123"/>
      <point x="21" y="292" type="curve" smooth="yes"/>
      <point x="21" y="460"/>
      <point x="146" y="597"/>
    </contour>
    <contour>
      <point x="300" y="497" type="curve" smooth="yes"/>
      <point x="202" y="497"/>
      <point x="121" y="404"/>
      <point x="121" y="292" type="curve" smooth="yes"/>
      <point x="121" y="179"/>
      <point x="202" y="86"/>
      <point x="300" y="86" type="curve" smooth="yes"/>
      <point x="397" y="86"/>
      <point x="479" y="179"/>
      <point x="479" y="289" type="curve" smooth="yes"/>
      <point x="479" y="404"/>
      <point x="399" y="497"/>
    </contour>
    <contour>
      <point x="423" y="767" type="curve" smooth="yes"/>
      <point x="290" y="656" type="line" smooth="yes"/>
      <point x="277" y="645"/>
      <point x="267" y="640"/>
      <point x="258" y="640" type="curve" smooth="yes"/>
      <point x="238" y="640"/>
      <point x="221" y="657"/>
      <point x="221" y="676" type="curve" smooth="yes"/>
      <point x="221" y="688"/>
      <point x="228" y="700"/>
      <point x="244" y="712" type="curve"/>
      <point x="377" y="824" type="line" smooth="yes"/>
      <point x="391" y="835"/>
      <point x="399" y="839"/>
      <point x="409" y="839" type="curve" smooth="yes"/>
      <point x="430" y="839"/>
      <point x="446" y="823"/>
      <point x="446" y="803" type="curve" smooth="yes"/>
      <point x="446" y="790"/>
      <point x="440" y="780"/>
    </contour>
  </outline>
</glyph>
<glyph name="Odieresis" format="1">
  <advance width="600"/>
  <unicode hex="00D6"/>
  <outline>
    <contour>
      <point x="300" y="597" type="curve" smooth="yes"/>
      <point x="367" y="597"/>
      <point x="432" y="570"/>
      <point x="485" y="520" type="curve" smooth="yes"/>
      <point x="548" y="460"/>
      <point x="579" y="383"/>
      <point x="579" y="287" type="curve" smooth="yes"/>
      <point x="579" y="123"/>
      <point x="452" y="-14"/>
      <point x="300" y="-14" type="curve" smooth="yes"/>
      <point x="146" y="-14"/>
      <point x="21" y="123"/>
      <point x="21" y="292" type="curve" smooth="yes"/>
      <point x="21" y="460"/>
      <point x="146" y="597"/>
    </contour>
    <contour>
      <point x="300" y="497" type="curve" smooth="yes"/>
      <point x="202" y="497"/>
      <point x="121" y="404"/>
      <point x="121" y="292" type="curve" smooth="yes"/>
      <point x="121" y="179"/>
      <point x="202" y="86"/>
      <point x="300" y="86" type="curve" smooth="yes"/>
      <point x="397" y="86"/>
      <point x="479" y="179"/>
      <point x="479" y="289" type="curve" smooth="yes"/>
      <point x="479" y="404"/>
      <point x="399" y="497"/>
    </contour>
    <contour>
      <point x="196" y="798" type="curve" smooth="yes"/>
      <point x="230" y="798"/>
      <point x="256" y="771"/>
      <point x="256" y="737" type="curve" smooth="yes"/>
      <point x="256" y="705"/>
      <point x="229" y="678"/>
      <point x="196" y="678" type="curve" smooth="yes"/>
      <point x="163" y="678"/>
      <point x="136" y="705"/>
      <point x="136" y="738" type="curve" smooth="yes"/>
      <point x="136" y="771"/>
      <point x="163" y="798"/>
    </contour>
    <contour>
      <point x="404" y="798" type="curve" smooth="yes"/>
      <point x="438" y="798"/>
      <point x="464" y="771"/>
      <point x="464" y="737" type="curve" smooth="yes"/>
      <point x="464" y="705"/>
      <point x="437" y="678"/>
      <point x="404" y="678" type="curve" smooth="yes"/>
      <point x="371" y="678"/>
      <point x="344" y="705"/>
      <point x="344" y="738" type="curve" smooth="yes"/>
      <point x="344" y="771"/>
      <point x="371" y="798"/>
    </contour>
  </outline>
</glyph>
<glyph name="Oslash" format="1">
  <advance width="600"/>
  <unicode hex="00D8"/>
  <outline>
    <contour>
      <point x="159" y="28" type="curve"/>
      <point x="105" y="-40" type="line" smooth="yes"/>
      <point x="85" y="-65"/>
      <point x="77" y="-70"/>
      <point x="58" y="-70" type="curve" smooth="yes"/>
      <point x="31" y="-70"/>
      <point x="9" y="-49"/>
      <point x="9" y="-23" type="curve" smooth="yes"/>
      <point x="9" y="-10"/>
      <point x="13" y="-2"/>
      <point x="30" y="19" type="curve" smooth="yes"/>
      <point x="87" y="92" type="line"/>
      <point x="42" y="151"/>
      <point x="20" y="214"/>
      <point x="20" y="292" type="curve" smooth="yes"/>
      <point x="20" y="460"/>
      <point x="145" y="597"/>
      <point x="300" y="597" type="curve" smooth="yes"/>
      <point x="352" y="597"/>
      <point x="401" y="581"/>
      <point x="449" y="549" type="curve"/>
      <point x="495" y="607" type="line" smooth="yes"/>
      <point x="514" y="632"/>
      <point x="523" y="638"/>
      <point x="542" y="638" type="curve" smooth="yes"/>
      <point x="568" y="638"/>
      <point x="590" y="616"/>
      <point x="590" y="590" type="curve" smooth="yes"/>
      <point x="590" y="577"/>
      <point x="586" y="569"/>
      <point x="570" y="548" type="curve" smooth="yes"/>
      <point x="518" y="483" type="line"/>
      <point x="559" y="429"/>
      <point x="579" y="364"/>
      <point x="579" y="291" type="curve" smooth="yes"/>
      <point x="579" y="123"/>
      <point x="454" y="-14"/>
      <point x="300" y="-14" type="curve" smooth="yes"/>
      <point x="251" y="-14"/>
      <point x="202" y="1"/>
    </contour>
    <contour>
      <point x="452" y="400" type="curve"/>
      <point x="221" y="107" type="line"/>
      <point x="246" y="93"/>
      <point x="273" y="86"/>
      <point x="300" y="86" type="curve" smooth="yes"/>
      <point x="397" y="86"/>
      <point x="479" y="179"/>
      <point x="479" y="290" type="curve" smooth="yes"/>
      <point x="479" y="328"/>
      <point x="469" y="369"/>
    </contour>
    <contour>
      <point x="152" y="174" type="curve"/>
      <point x="387" y="471" type="line"/>
      <point x="358" y="488"/>
      <point x="330" y="497"/>
      <point x="299" y="497" type="curve" smooth="yes"/>
      <point x="201" y="497"/>
      <point x="120" y="404"/>
      <point x="120" y="292" type="curve" smooth="yes"/>
      <point x="120" y="248"/>
      <point x="130" y="211"/>
    </contour>
  </outline>
</glyph>
<glyph name="agrave" format="1">
  <advance width="600"/>
  <unicode hex="00E0"/>
  <outline>
    <contour>
      <point x="388" y="0" type="line"/>
      <point x="388" y="23" type="line"/>
      <point x="340" y="-2"/>
      <point x="281" y="-16"/>
      <point x="222" y="-16" type="curve" smooth="yes"/>
      <point x="123" y="-16"/>
      <point x="42" y="45"/>
      <point x="42" y="119" type="curve" smooth="yes"/>
      <point x="42" y="150"/>
      <point x="57" y="185"/>
      <point x="81" y="212" type="curve" smooth="yes"/>
      <point x="126" y="262"/>
      <point x="195" y="288"/>
      <point x="284" y="288" type="curve" smooth="yes"/>
      <point x="316" y="288"/>
      <point x="347" y="285"/>
      <point x="388" y="278" type="curve"/>
      <point x="388" y="301" type="line" smooth="yes"/>
      <point x="388" y="335"/>
      <point x="359" y="350"/>
      <point x="295" y="350" type="curve" smooth="yes"/>
      <point x="262" y="350"/>
      <point x="225" y="345"/>
      <point x="179" y="333" type="curve" smooth="yes"/>
      <point x="162" y="329"/>
      <point x="148" y="327"/>
      <point x="139" y="327" type="curve" smooth="yes"/>
      <point x="111" y="327"/>
      <point x="90" y="349"/>
      <point x="90" y="378" type="curve" smooth="yes"/>
      <point x="90" y="399"/>
      <point x="100" y="413"/>
      <point x="120" y="420" type="curve" smooth="yes"/>
      <point x="168" y="437"/>
      <point x="242" y="450"/>
      <point x="292" y="450" type="curve" smooth="yes"/>
      <point x="415" y="450"/>
      <point x="489" y="395"/>
      <point x="489" y="302" type="curve" smooth="yes"/>
      <point x="489" y="100" type="line"/>
      <point x="505" y="100" type="line" smooth="yes"/>
      <point x="532" y="100"/>
      <point x="541" y="98"/>
      <point x="551" y="91" type="curve"/>
      <point x="563" y="81"/>
      <point x="571" y="66"/>
      <point x="571" y="50" type="curve" smooth="yes"/>
      <point x="571" y="33"/>
      <point x="562" y="16"/>
      <point x="547" y="7" type="curve" smooth="yes"/>
      <point x="540" y="2"/>
      <point x="526" y="0"/>
      <point x="505" y="0" type="curve" smooth="yes"/>
    </contour>
    <contour>
      <point x="389" y="135" type="curve"/>
      <point x="389" y="185" type="line"/>
      <point x="349" y="192"/>
      <point x="312" y="196"/>
      <point x="278" y="196" type="curve" smooth="yes"/>
      <point x="210" y="196"/>
      <point x="148" y="161"/>
      <point x="148" y="123" type="curve" smooth="yes"/>
      <point x="148" y="101"/>
      <point x="181" y="84"/>
      <point x="224" y="84" type="curve" smooth="yes"/>
      <point x="278" y="84"/>
      <point x="334" y="101"/>
    </contour>
    <contour>
      <point x="206" y="680" type="curve" smooth="yes"/>
      <point x="339" y="569" type="line" smooth="yes"/>
      <point x="355" y="556"/>
      <point x="362" y="545"/>
      <point x="362" y="532" type="curve" smooth="yes"/>
      <point x="362" y="513"/>
      <point x="345" y="496"/>
      <point x="325" y="496" type="curve" smooth="yes"/>
      <point x="315" y="496"/>
      <point x="308" y="500"/>
      <point x="293" y="512" type="curve" smooth="yes"/>
      <point x="160" y="624" type="line"/>
      <point x="143" y="637"/>
      <point x="137" y="647"/>
      <point x="137" y="660" type="curve" smooth="yes"/>
      <point x="137" y="680"/>
      <point x="153" y="696"/>
      <point x="174" y="696" type="curve" smooth="yes"/>
      <point x="185" y="696"/>
      <point x="190" y="693"/>
    </contour>
  </outline>
</glyph>
<glyph name="aring" format="1">
  <advance width="600"/>
  <unicode hex="00E5"/>
  <outline>
    <contour>
      <point x="388" y="0" type="line"/>
      <point x="388" y="23" type="line"/>
      <point x="340" y="-2"/>
      <point x="281" y="-16"/>
      <point x="222" y="-16" type="curve" smooth="yes"/>
      <point x="123" y="-16"/>
      <point x="42" y="45"/>
      <point x="42" y="119" type="curve" smooth="yes"/>
      <point x="42" y="150"/>
      <point x="57" y="185"/>
      <point x="81" y="212" type="curve" smooth="yes"/>
      <point x="126" y="262"/>
      <point x="195" y="288"/>
      <point x="284" y="288" type="curve" smooth="yes"/>
      <point x="316" y="288"/>
      <point x="347" y="285"/>
      <point x="388" y="278" type="curve"/>
      <point x="388" y="301" type="line" smooth="yes"/>
      <point x="388" y="335"/>
      <point x="359" y="350"/>
      <point x="295" y="350" type="curve" smooth="yes"/>
      <point x="262" y="350"/>
      <point x="225" y="345"/>
      <point x="179" y="333" type="curve" smooth="yes"/>
      <point x="162" y="329"/>
      <point x="148" y="327"/>
      <point x="139" y="327" type="curve" smooth="yes"/>
      <point x="111" y="327"/>
      <point x="90" y="349"/>
      <point x="90" y="378" type="curve" smooth="yes"/>
      <point x="90" y="399"/>
      <point x="100" y="413"/>
      <point x="120" y="420" type="curve" smooth="yes"/>
      <point x="168" y="437"/>
      <point x="242" y="450"/>
      <point x="292" y="450" type="curve" smooth="yes"/>
      <point x="415" y="450"/>
      <point x="489" y="395"/>
      <point x="489" y="302" type="curve" smooth="yes"/>
      <point x="489" y="100" type="line"/>
      <point x="505" y="100" type="line" smooth="yes"/>
      <point x="532" y="100"/>
      <point x="541" y="98"/>
      <point x="551" y="91" type="curve"/>
      <point x="563" y="81"/>
      <point x="571" y="66"/>
      <point x="571" y="50" type="curve" smooth="yes"/>
      <point x="571" y="33"/>
      <point x="562" y="16"/>
      <point x="547" y="7" type="curve" smooth="yes"/>
      <point x="540" y="2"/>
      <point x="526" y="0"/>
      <point x="505" y="0" type="curve" smooth="yes"/>
    </contour>
    <contour>
      <point x="389" y="135" type="curve"/>
      <point x="389" y="185" type="line"/>
      <point x="349" y="192"/>
      <point x="312" y="196"/>
      <point x="278" y="196" type="curve" smooth="yes"/>
      <point x="210" y="196"/>
      <point x="148" y="161"/>
      <point x="148" y="123" type="curve" smooth="yes"/>
      <point x="148" y="101"/>
      <point x="181" y="84"/>
      <point x="224" y="84" type="curve" smooth="yes"/>
      <point x="278" y="84"/>
      <point x="334" y="101"/>
    </contour>
    <contour>
      <point x="289" y="727" type="curve" smooth="yes"/>
      <point x="357" y="727"/>
      <point x="412" y="672"/>
      <point x="412" y="605" type="curve" smooth="yes"/>
      <point x="412" y="541"/>
      <point x="355" y="486"/>
      <point x="289" y="486" type="curve" smooth="yes"/>
      <point x="222" y="486"/>
      <point x="166" y="541"/>
      <point x="166" y="607" type="curve" smooth="yes"/>
      <point x="166" y="672"/>
      <point x="222" y="727"/>
    </contour>
    <contour>
      <point x="289" y="674" type="curve" smooth="yes"/>
      <point x="251" y="674"/>
      <point x="219" y="643"/>
      <point x="219" y="607" type="curve" smooth="yes"/>
      <point x="219" y="571"/>
      <point x="251" y="540"/>
      <point x="289" y="540" type="curve" smooth="yes"/>
      <point x="326" y="540"/>
      <point x="359" y="571"/>
      <point x="359" y="606" type="curve" smooth="yes"/>
      <point x="359" y="643"/>
      <point x="327" y="674"/>
    </contour>
  </outline>
</glyph>
<glyph name="ae" format="1">
  <advance width="600"/>
  <unicode hex="00E6"/>
  <outline>
    <contour>
      <point x="611" y="172" type="line"/>
      <point x="360" y="172" type="line"/>
      <point x="377" y="109"/>
      <point x="400" y="84"/>
      <point x="441" y="84" type="curve" smooth="yes"/>
      <point x="463" y="84"/>
      <point x="482" y="89"/>
      <point x="509" y="101" type="curve" smooth="yes"/>
      <point x="538" y="113"/>
      <point x="553" y="118"/>
      <point x="566" y="118" type="curve" smooth="yes"/>
      <point x="592" y="118"/>
      <point x="612" y="96"/>
      <point x="612" y="66" type="curve" smooth="yes"/>
      <point x="612" y="47"/>
      <point x="603" y="32"/>
      <point x="587" y="22" type="curve" smooth="yes"/>
      <point x="552" y="0"/>
      <point x="489" y="-16"/>
      <point x="442" y="-16" type="curve" smooth="yes"/>
      <point x="402" y="-16"/>
      <point x="379" y="-9"/>
      <point x="342" y="16" type="curve"/>
      <point x="333" y="5"/>
      <point x="321" y="-1"/>
      <point x="305" y="-1" type="curve" smooth="yes"/>
      <point x="290" y="-1"/>
      <point x="279" y="5"/>
      <point x="269" y="16" type="curve"/>
      <point x="232" y="-7"/>
      <point x="202" y="-16"/>
      <point x="159" y="-16" type="curve" smooth="yes"/>
      <point x="55" y="-16"/>
      <point x="-13" y="48"/>
      <point x="-13" y="145" type="curve" smooth="yes"/>
      <point x="-13" y="189"/>
      <point x="3" y="216"/>
      <point x="45" y="242" type="curve"/>
      <point x="85" y="268"/>
      <point x="148" y="286"/>
      <point x="195" y="286" type="curve" smooth="yes"/>
      <point x="210" y="286"/>
      <point x="229" y="284"/>
      <point x="255" y="281" type="curve"/>
      <point x="255" y="301" type="line" smooth="yes"/>
      <point x="255" y="329"/>
      <point x="235" y="350"/>
      <point x="207" y="350" type="curve" smooth="yes"/>
      <point x="190" y="350"/>
      <point x="181" y="348"/>
      <point x="117" y="329" type="curve" smooth="yes"/>
      <point x="108" y="326"/>
      <point x="100" y="325"/>
      <point x="94" y="325" type="curve" smooth="yes"/>
      <point x="68" y="325"/>
      <point x="46" y="348"/>
      <point x="46" y="376" type="curve" smooth="yes"/>
      <point x="46" y="401"/>
      <point x="60" y="417"/>
      <point x="87" y="426" type="curve" smooth="yes"/>
      <point x="124" y="438"/>
      <point x="182" y="450"/>
      <point x="207" y="450" type="curve" smooth="yes"/>
      <point x="253" y="450"/>
      <point x="288" y="433"/>
      <point x="323" y="394" type="curve"/>
      <point x="359" y="433"/>
      <point x="393" y="450"/>
      <point x="435" y="450" type="curve" smooth="yes"/>
      <point x="482" y="450"/>
      <point x="528" y="426"/>
      <point x="563" y="381" type="curve" smooth="yes"/>
      <point x="594" y="341"/>
      <point x="611" y="285"/>
      <point x="611" y="218" type="curve" smooth="yes"/>
    </contour>
    <contour>
      <point x="255" y="130" type="curve"/>
      <point x="255" y="189" type="line"/>
      <point x="232" y="195"/>
      <point x="216" y="197"/>
      <point x="199" y="197" type="curve" smooth="yes"/>
      <point x="162" y="197"/>
      <point x="121" y="186"/>
      <point x="101" y="171" type="curve" smooth="yes"/>
      <point x="93" y="164"/>
      <point x="88" y="154"/>
      <point x="88" y="142" type="curve" smooth="yes"/>
      <point x="88" y="107"/>
      <point x="116" y="84"/>
      <point x="158" y="84" type="curve" smooth="yes"/>
      <point x="189" y="84"/>
      <point x="215" y="96"/>
    </contour>
    <contour>
      <point x="362" y="258" type="curve"/>
      <point x="502" y="258" type="line"/>
      <point x="498" y="285"/>
      <point x="495" y="299"/>
      <point x="487" y="313" type="curve" smooth="yes"/>
      <point x="476" y="335"/>
      <point x="454" y="350"/>
      <point x="432" y="350" type="curve" smooth="yes"/>
      <point x="409" y="350"/>
      <point x="386" y="333"/>
      <point x="375" y="307" type="curve" smooth="yes"/>
      <point x="369" y="294"/>
      <point x="366" y="281"/>
    </contour>
  </outline>
</glyph>
<glyph name="eacute" format="1">
  <advance width="600"/>
  <unicode hex="00E9"/>
  <outline>
    <contour>
      <point x="550" y="172" type="line"/>
      <point x="142" y="172" type="line"/>
      <point x="165" y="112"/>
      <point x="218" y="84"/>
      <point x="306" y="84" type="curve" smooth="yes"/>
      <point x="352" y="84"/>
      <point x="377" y="88"/>
      <point x="469" y="112" type="curve" smooth="yes"/>
      <point x="481" y="115"/>
      <point x="493" y="117"/>
      <point x="502" y="117" type="curve" smooth="yes"/>
      <point x="529" y="117"/>
      <point x="550" y="95"/>
      <point x="550" y="67" type="curve" smooth="yes"/>
      <point x="550" y="47"/>
      <point x="539" y="33"/>
      <point x="515" y="22" type="curve" smooth="yes"/>
      <point x="470" y="2"/>
      <point x="368" y="-16"/>
      <point x="297" y="-16" type="curve" smooth="yes"/>
      <point x="142" y="-16"/>
      <point x="33" y="80"/>
      <point x="33" y="216" type="curve" smooth="yes"/>
      <point x="33" y="348"/>
      <point x="145" y="450"/>
      <point x="291" y="450" type="curve" smooth="yes"/>
      <point x="440" y="450"/>
      <point x="550" y="349"/>
      <point x="550" y="211" type="curve" smooth="yes"/>
    </contour>
    <contour>
      <point x="145" y="260" type="curve"/>
      <point x="439" y="260" type="line"/>
      <point x="423" y="315"/>
      <point x="365" y="350"/>
      <point x="292" y="350" type="curve" smooth="yes"/>
      <point x="219" y="350"/>
      <point x="160" y="314"/>
    </contour>
    <contour>
      <point x="431" y="624" type="curve"/>
      <point x="298" y="512" type="line" smooth="yes"/>
      <point x="283" y="500"/>
      <point x="276" y="496"/>
      <point x="266" y="496" type="curve" smooth="yes"/>
      <point x="246" y="496"/>
      <point x="229" y="513"/>
      <point x="229" y="532" type="curve" smooth="yes"/>
      <point x="229" y="545"/>
      <point x="236" y="556"/>
      <point x="252" y="569" type="curve" smooth="yes"/>
      <point x="385" y="680" type="line" smooth="yes"/>
      <point x="401" y="693"/>
      <point x="406" y="696"/>
      <point x="417" y="696" type="curve" smooth="yes"/>
      <point x="438" y="696"/>
      <point x="454" y="680"/>
      <point x="454" y="659" type="curve" smooth="yes"/>
      <point x="454" y="647"/>
      <point x="448" y="637"/>
    </contour>
  </outline>
</glyph>
<glyph name="eth" format="1">
  <advance width="600"/>
  <unicode hex="00F0"/>
  <outline>
    <contour>
      <point x="417" y="583" type="curve"/>
      <point x="372" y="558" type="line"/>
      <point x="501" y="468"/>
      <point x="558" y="368"/>
      <point x="558" y="233" type="curve" smooth="yes"/>
      <point x="558" y="153"/>
      <point x="537" y="99"/>
      <point x="489" y="55" type="curve" smooth="yes"/>
      <point x="439" y="10"/>
      <point x="370" y="-16"/>
      <point x="300" y="-16" type="curve" smooth="yes"/>
      <point x="157" y="-16"/>
      <point x="42" y="85"/>
      <point x="42" y="211" type="curve" smooth="yes"/>
      <point x="42" y="339"/>
      <point x="151" y="443"/>
      <point x="286" y="443" type="curve" smooth="yes"/>
      <point x="336" y="443"/>
      <point x="367" y="433"/>
      <point x="430" y="396" type="curve"/>
      <point x="391" y="445"/>
      <point x="341" y="490"/>
      <point x="293" y="518" type="curve"/>
      <point x="201" y="468" type="line" smooth="yes"/>
      <point x="182" y="457"/>
      <point x="178" y="456"/>
      <point x="169" y="456" type="curve" smooth="yes"/>
      <point x="152" y="456"/>
      <point x="139" y="472"/>
      <point x="139" y="493" type="curve" smooth="yes"/>
      <point x="139" y="507"/>
      <point x="142" y="510"/>
      <point x="163" y="522" type="curve" smooth="yes"/>
      <point x="213" y="551" type="line"/>
      <point x="204" y="555"/>
      <point x="195" y="559"/>
      <point x="192" y="560" type="curve" smooth="yes"/>
      <point x="182" y="564"/>
      <point x="176" y="567"/>
      <point x="174" y="568" type="curve" smooth="yes"/>
      <point x="158" y="573" type="line" smooth="yes"/>
      <point x="141" y="579"/>
      <point x="132" y="590"/>
      <point x="132" y="604" type="curve" smooth="yes"/>
      <point x="132" y="623"/>
      <point x="151" y="640"/>
      <point x="172" y="640" type="curve" smooth="yes"/>
      <point x="195" y="640"/>
      <point x="225" y="631"/>
      <point x="271" y="609" type="curve" smooth="yes"/>
      <point x="299" y="596" type="line"/>
      <point x="376" y="637" type="line" smooth="yes"/>
      <point x="388" y="643"/>
      <point x="399" y="646"/>
      <point x="409" y="646" type="curve" smooth="yes"/>
      <point x="426" y="646"/>
      <point x="440" y="632"/>
      <point x="440" y="613" type="curve" smooth="yes"/>
      <point x="440" y="601"/>
      <point x="432" y="590"/>
    </contour>
    <contour>
      <point x="300" y="350" type="curve" smooth="yes"/>
      <point x="213" y="350"/>
      <point x="144" y="289"/>
      <point x="144" y="212" type="curve" smooth="yes"/>
      <point x="144" y="141"/>
      <point x="214" y="84"/>
      <point x="300" y="84" type="curve" smooth="yes"/>
      <point x="385" y="84"/>
      <point x="456" y="141"/>
      <point x="456" y="210" type="curve" smooth="yes"/>
      <point x="456" y="289"/>
      <point x="388" y="350"/>
    </contour>
  </outline>
</glyph>
<glyph name="odieresis" format="1">
  <advance width="600"/>
  <unicode hex="00F6"/>
  <outline>
    <contour>
      <point x="303" y="450" type="curve" smooth="yes"/>
      <point x="444" y="450"/>
      <point x="558" y="346"/>
      <point x="558" y="217" type="curve" smooth="yes"/>
      <point x="558" y="87"/>
      <point x="444" y="-16"/>
      <point x="300" y="-16" type="curve" smooth="yes"/>
      <point x="156" y="-16"/>
      <point x="42" y="87"/>
      <point x="42" y="217" type="curve" smooth="yes"/>
      <point x="42" y="349"/>
      <point x="155" y="450"/>
    </contour>
    <contour>
      <point x="302" y="350" type="curve" smooth="yes"/>
      <point x="211" y="350"/>
      <point x="142" y="293"/>
      <point x="142" y="217" type="curve" smooth="yes"/>
      <point x="142" y="142"/>
      <point x="211" y="84"/>
      <point x="300" y="84" type="curve" smooth="yes"/>
      <point x="389" y="84"/>
      <point x="458" y="142"/>
      <point x="458" y="217" type="curve" smooth="yes"/>
      <point x="458" y="291"/>
      <point x="389" y="350"/>
    </contour>
    <contour>
      <point x="196" y="654" type="curve" smooth="yes"/>
      <point x="230" y="654"/>
      <point x="256" y="627"/>
      <point x="256" y="593" type="curve" smooth="yes"/>
      <point x="256" y="561"/>
      <point x="229" y="534"/>
      <point x="196" y="534" type="curve" smooth="yes"/>
      <point x="163" y="534"/>
      <point x="136" y="561"/>
      <point x="136" y="594" type="curve" smooth="yes"/>
      <point x="136" y="627"/>
      <point x="163" y="654"/>
    </contour>
    <contour>
      <point x="404" y="654" type="curve" smooth="yes"/>
      <point x="438" y="654"/>
      <point x="464" y="627"/>
      <point x="464" y="593" type="curve" smooth="yes"/>
      <point x="464" y="561"/>
      <point x="437" y="534"/>
      <point x="404" y="534" type="curve" smooth="yes"/>
      <point x="371" y="534"/>
      <point x="344" y="561"/>
      <point x="344" y="594" type="curve" smooth="yes"/>
      <point x="344" y="627"/>
      <point x="371" y="654"/>
    </contour>
  </outline>
</glyph>
<glyph name="oslash" format="1">
  <advance width="600"/>
  <unicode hex="00F8"/>
  <outline>
    <contour>
      <point x="548" y="402" type="curve"/>
      <point x="506" y="359" type="line"/>
      <point x="540" y="316"/>
      <point x="558" y="267"/>
      <point x="558" y="217" type="curve" smooth="yes"/>
      <point x="558" y="87"/>
      <point x="444" y="-16"/>
      <point x="300" y="-16" type="curve" smooth="yes"/>
      <point x="255" y="-16"/>
      <point x="213" y="-6"/>
      <point x="172" y="14" type="curve"/>
      <point x="116" y="-44" type="line" smooth="yes"/>
      <point x="95" y="-65"/>
      <point x="87" y="-70"/>
      <point x="71" y="-70" type="curve" smooth="yes"/>
      <point x="44" y="-70"/>
      <point x="23" y="-49"/>
      <point x="23" y="-22" type="curve" smooth="yes"/>
      <point x="23" y="-7"/>
      <point x="28" y="2"/>
      <point x="48" y="22" type="curve" smooth="yes"/>
      <point x="96" y="72" type="line"/>
      <point x="62" y="114"/>
      <point x="42" y="167"/>
      <point x="42" y="217" type="curve" smooth="yes"/>
      <point x="42" y="347"/>
      <point x="156" y="450"/>
      <point x="298" y="450" type="curve" smooth="yes"/>
      <point x="342" y="450"/>
      <point x="398" y="437"/>
      <point x="432" y="419" type="curve"/>
      <point x="480" y="468" type="line" smooth="yes"/>
      <point x="501" y="489"/>
      <point x="509" y="494"/>
      <point x="526" y="494" type="curve" smooth="yes"/>
      <point x="552" y="494"/>
      <point x="573" y="473"/>
      <point x="573" y="447" type="curve" smooth="yes"/>
      <point x="573" y="430"/>
      <point x="569" y="422"/>
    </contour>
    <contour>
      <point x="436" y="286" type="curve"/>
      <point x="247" y="91" type="line"/>
      <point x="265" y="86"/>
      <point x="279" y="84"/>
      <point x="299" y="84" type="curve" smooth="yes"/>
      <point x="389" y="84"/>
      <point x="458" y="142"/>
      <point x="458" y="217" type="curve" smooth="yes"/>
      <point x="458" y="241"/>
      <point x="450" y="264"/>
    </contour>
    <contour>
      <point x="167" y="145" type="curve"/>
      <point x="357" y="342" type="line"/>
      <point x="336" y="347"/>
      <point x="319" y="350"/>
      <point x="300" y="350" type="curve" smooth="yes"/>
      <point x="211" y="350"/>
      <point x="142" y="292"/>
      <point x="142" y="217" type="curve" smooth="yes"/>
      <point x="142" y="192"/>
      <point x="150" y="168"/>
    </contour>
  </outline>
</glyph>
<glyph name="ucircumflex" format="1">
  <advance width="600"/>
  <unicode hex="00FB"/>
  <outline>
    <contour>
      <point x="510" y="437" type="line"/>
      <point x="510" y="100" type="line"/>
      <point x="549" y="100"/>
      <point x="571" y="82"/>
      <point x="571" y="50" type="curve" smooth="yes"/>
      <point x="571" y="33"/>
      <point x="562" y="17"/>
      <point x="547" y="7" type="curve" smooth="yes"/>
      <point x="539" y="2"/>
      <point x="526" y="0"/>
      <point x="505" y="0" type="curve" smooth="yes"/>
      <point x="410" y="0" type="line"/>
      <point x="410" y="48" type="line"/>
      <point x="360" y="1"/>
      <point x="328" y="-13"/>
      <point x="273" y="-13" type="curve" smooth="yes"/>
      <point x="228" y="-13"/>
      <point x="186" y="0"/>
      <point x="154" y="24" type="curve" smooth="yes"/>
      <point x="114" y="54"/>
      <point x="95" y="97"/>
      <point x="95" y="156" type="curve" smooth="yes"/>
      <point x="95" y="338" type="line"/>
      <point x="79" y="338" type="line"/>
      <point x="68" y="337" type="line" smooth="yes"/>
      <point x="38" y="335"/>
      <point x="13" y="358"/>
      <point x="13" y="387" type="curve" smooth="yes"/>
      <point x="13" y="404"/>
      <point x="22" y="421"/>
      <point x="37" y="430" type="curve" smooth="yes"/>
      <point x="46" y="436"/>
      <point x="54" y="437"/>
      <point x="79" y="437" type="curve" smooth="yes"/>
      <point x="195" y="437" type="line"/>
      <point x="195" y="159" type="line" smooth="yes"/>
      <point x="195" y="110"/>
      <point x="223" y="87"/>
      <point x="283" y="87" type="curve" smooth="yes"/>
      <point x="333" y="87"/>
      <point x="358" y="100"/>
      <point x="410" y="155" type="curve"/>
      <point x="410" y="337" type="line"/>
      <point x="375" y="337" type="line" smooth="yes"/>
      <point x="350" y="337"/>
      <point x="339" y="339"/>
      <point x="330" y="347" type="curve"/>
      <point x="317" y="356"/>
      <point x="309" y="372"/>
      <point x="309" y="387" type="curve" smooth="yes"/>
      <point x="309" y="404"/>
      <point x="318" y="421"/>
      <point x="333" y="430" type="curve" smooth="yes"/>
      <point x="342" y="436"/>
      <point x="351" y="437"/>
      <point x="375" y="437" type="curve" smooth="yes"/>
    </contour>
    <contour>
      <point x="296" y="607" type="line"/>
      <point x="183" y="510" type="line" smooth="yes"/>
      <point x="172" y="501"/>
      <point x="164" y="497"/>
      <point x="155" y="497" type="curve" smooth="yes"/>
      <point x="136" y="497"/>
      <point x="120" y="514"/>
      <point x="120" y="532" type="curve" smooth="yes"/>
      <point x="120" y="546"/>
      <point x="122" y="549"/>
      <point x="144" y="567" type="curve" smooth="yes"/>
      <point x="296" y="696" type="line"/>
      <point x="447" y="567" type="line" smooth="yes"/>
      <point x="450" y="565"/>
      <point x="454" y="562"/>
      <point x="456" y="560" type="curve" smooth="yes"/>
      <point x="467" y="551"/>
      <point x="471" y="543"/>
      <point x="471" y="532" type="curve" smooth="yes"/>
      <point x="471" y="514"/>
      <point x="455" y="497"/>
      <point x="437" y="497" type="curve" smooth="yes"/>
      <point x="428" y="497"/>
      <point x="419" y="501"/>
      <point x="408" y="510" type="curve" smooth="yes"/>
    </contour>
  </outline>
</glyph>
<glyph name="thorn" format="1">
  <advance width="600"/>
  <unicode hex="00FE"/>
  <outline>
    <contour>
      <point x="174" y="66" type="curve"/>
      <point x="174" y="-105" type="line"/>
      <point x="232" y="-105" type="line" smooth="yes"/>
      <point x="258" y="-105"/>
      <point x="268" y="-107"/>
      <point x="278" y="-114" type="curve" smooth="yes"/>
      <point x="291" y="-124"/>
      <point x="298" y="-139"/>
      <point x="298" y="-155" type="curve" smooth="yes"/>
      <point x="298" y="-172"/>
      <point x="289" y="-188"/>
      <point x="274" y="-198" type="curve" smooth="yes"/>
      <point x="266" y="-203"/>
      <point x="254" y="-205"/>
      <point x="232" y="-205" type="curve" smooth="yes"/>
      <point x="58" y="-205" type="line" smooth="yes"/>
      <point x="33" y="-205"/>
      <point x="22" y="-203"/>
      <point x="12" y="-195" type="curve" smooth="yes"/>
      <point x="0" y="-186"/>
      <point x="-8" y="-171"/>
      <point x="-8" y="-155" type="curve" smooth="yes"/>
      <point x="-8" y="-138"/>
      <point x="1" y="-121"/>
      <point x="16" y="-112" type="curve" smooth="yes"/>
      <point x="25" y="-106"/>
      <point x="34" y="-105"/>
      <point x="58" y="-105" type="curve" smooth="yes"/>
      <point x="74" y="-105" type="line"/>
      <point x="74" y="524" type="line"/>
      <point x="58" y="524" type="line" smooth="yes"/>
      <point x="32" y="524"/>
      <point x="22" y="526"/>
      <point x="12" y="533" type="curve"/>
      <point x="0" y="543"/>
      <point x="-8" y="558"/>
      <point x="-8" y="574" type="curve" smooth="yes"/>
      <point x="-8" y="591"/>
      <point x="1" y="608"/>
      <point x="16" y="617" type="curve" smooth="yes"/>
      <point x="25" y="622"/>
      <point x="34" y="624"/>
      <point x="58" y="624" type="curve" smooth="yes"/>
      <point x="174" y="624" type="line"/>
      <point x="174" y="392" type="line"/>
      <point x="223" y="434"/>
      <point x="265" y="450"/>
      <point x="328" y="450" type="curve" smooth="yes"/>
      <point x="467" y="450"/>
      <point x="571" y="354"/>
      <point x="571" y="224" type="curve" smooth="yes"/>
      <point x="571" y="101"/>
      <point x="468" y="10"/>
      <point x="329" y="10" type="curve" smooth="yes"/>
      <point x="270" y="10"/>
      <point x="226" y="26"/>
    </contour>
    <contour>
      <point x="323" y="350" type="curve" smooth="yes"/>
      <point x="281" y="350"/>
      <point x="248" y="341"/>
      <point x="222" y="321" type="curve" smooth="yes"/>
      <point x="193" y="300"/>
      <point x="174" y="263"/>
      <point x="174" y="231" type="curve" smooth="yes"/>
      <point x="174" y="160"/>
      <point x="235" y="110"/>
      <point x="323" y="110" type="curve" smooth="yes"/>
      <point x="409" y="110"/>
      <point x="471" y="160"/>
      <point x="471" y="230" type="curve" smooth="yes"/>
      <point x="471" y="263"/>
      <point x="452" y="300"/>
      <point x="423" y="321" type="curve" smooth="yes"/>
      <point x="397" y="341"/>
      <point x="364" y="350"/>
    </contour>
  </outline>
</glyph>
<glyph name="Cacute" format="1">
  <advance width="600"/>
  <unicode hex="0106"/>
  <outline>
    <contour>
      <point x="447" y="563" type="curve"/>
      <point x="457" y="559" type="line"/>
      <point x="470" y="577"/>
      <point x="482" y="583"/>
      <point x="499" y="583" type="curve" smooth="yes"/>
      <point x="517" y="583"/>
      <point x="533" y="574"/>
      <point x="542" y="559" type="curve" smooth="yes"/>
      <point x="548" y="550"/>
      <point x="549" y="542"/>
      <point x="549" y="517" type="curve" smooth="yes"/>
      <point x="549" y="433" type="line" smooth="yes"/>
      <point x="549" y="408"/>
      <point x="547" y="397"/>
      <point x="540" y="388" type="curve" smooth="yes"/>
      <point x="530" y="375"/>
      <point x="515" y="367"/>
      <point x="499" y="367" type="curve" smooth="yes"/>
      <point x="486" y="367"/>
      <point x="472" y="373"/>
      <point x="464" y="381" type="curve" smooth="yes"/>
      <point x="456" y="389"/>
      <point x="454" y="396"/>
      <point x="450" y="420" type="curve" smooth="yes"/>
      <point x="445" y="444"/>
      <point x="435" y="457"/>
      <point x="406" y="473" type="curve" smooth="yes"/>
      <point x="379" y="488"/>
      <point x="343" y="497"/>
      <point x="309" y="497" type="curve" smooth="yes"/>
      <point x="207" y="497"/>
      <point x="133" y="420"/>
      <point x="133" y="315" type="curve" smooth="yes"/>
      <point x="133" y="251" type="line" smooth="yes"/>
      <point x="133" y="151"/>
      <point x="210" y="86"/>
      <point x="330" y="86" type="curve" smooth="yes"/>
      <point x="375" y="86"/>
      <point x="415" y="94"/>
      <point x="440" y="109" type="curve" smooth="yes"/>
      <point x="451" y="115"/>
      <point x="451" y="115"/>
      <point x="478" y="143" type="curve" smooth="yes"/>
      <point x="489" y="154"/>
      <point x="501" y="159"/>
      <point x="514" y="159" type="curve" smooth="yes"/>
      <point x="541" y="159"/>
      <point x="564" y="136"/>
      <point x="564" y="109" type="curve" smooth="yes"/>
      <point x="564" y="86"/>
      <point x="545" y="60"/>
      <point x="511" y="36" type="curve" smooth="yes"/>
      <point x="467" y="4"/>
      <point x="399" y="-14"/>
      <point x="327" y="-14" type="curve" smooth="yes"/>
      <point x="157" y="-14"/>
      <point x="33" y="97"/>
      <point x="33" y="249" type="curve" smooth="yes"/>
      <point x="33" y="315" type="line" smooth="yes"/>
      <point x="33" y="475"/>
      <point x="151" y="597"/>
      <point x="305" y="597" type="curve" smooth="yes"/>
      <point x="357" y="597"/>
      <point x="392" y="589"/>
    </contour>
    <contour>
      <point x="452" y="767" type="curve" smooth="yes"/>
      <point x="319" y="656" type="line" smooth="yes"/>
      <point x="306" y="645"/>
      <point x="296" y="640"/>
      <point x="287" y="640" type="curve" smooth="yes"/>
      <point x="267" y="640"/>
      <point x="250" y="657"/>
      <point x="250" y="676" type="curve" smooth="yes"/>
      <point x="250" y="688"/>
      <point x="257" y="700"/>
      <point x="273" y="712" type="curve"/>
      <point x="406" y="824" type="line" smooth="yes"/>
      <point x="420" y="835"/>
      <point x="428" y="839"/>
      <point x="438" y="839" type="curve" smooth="yes"/>
      <point x="459" y="839"/>
      <point x="475" y="823"/>
      <point x="475" y="803" type="curve" smooth="yes"/>
      <point x="475" y="790"/>
      <point x="469" y="780"/>
    </contour>
  </outline>
</glyph>
<glyph name="Ccircumflex" format="1">
  <advance width="600"/>
  <unicode hex="0108"/>
  <outline>
    <contour>
      <point x="300" y="710" type="line"/>
      <point x="191" y="616" type="line" smooth="yes"/>
      <point x="180" y="607"/>
      <point x="173" y="604"/>
      <point x="164" y="604" type="curve" smooth="yes"/>
      <point x="145" y="604"/>
      <point x="130" y="621"/>
      <point x="130" y="637" type="curve" smooth="yes"/>
      <point x="130" y="651"/>
      <point x="132" y="654"/>
      <point x="153" y="671" type="curve" smooth="yes"/>
      <point x="300" y="797" type="line"/>
      <point x="446" y="671" type="line"/>
      <point x="450" y="671"/>
      <point x="454" y="666"/>
      <point x="455" y="664" type="curve"/>
      <point x="466" y="656"/>
      <point x="470" y="647"/>
      <point x="470" y="637" type="curve" smooth="yes"/>
      <point x="470" y="621"/>
      <point x="455" y="604"/>
      <point x="437" y="604" type="curve" smooth="yes"/>
      <point x="428" y="604"/>
      <point x="420" y="607"/>
      <point x="409" y="616" type="curve" smooth="yes"/>
    </contour>
    <contour>
      <point x="444" y="546" type="curve"/>
      <point x="454" y="542" type="line"/>
      <point x="467" y="558"/>
      <point x="478" y="565"/>
      <point x="495" y="565" type="curve" smooth="yes"/>
      <point x="512" y="565"/>
      <point x="527" y="556"/>
      <point x="536" y="542" type="curve"/>
      <point x="543" y="533"/>
      <point x="543" y="525"/>
      <point x="543" y="501" type="curve" smooth="yes"/>
      <point x="543" y="419" type="line" smooth="yes"/>
      <point x="543" y="395"/>
      <point x="541" y="384"/>
      <point x="534" y="376" type="curve" smooth="yes"/>
      <point x="524" y="363"/>
      <point x="510" y="356"/>
      <point x="495" y="356" type="curve" smooth="yes"/>
      <point x="481" y="356"/>
      <point x="468" y="361"/>
      <point x="461" y="369" type="curve" smooth="yes"/>
      <point x="453" y="378"/>
      <point x="451" y="384"/>
      <point x="447" y="407" type="curve" smooth="yes"/>
      <point x="442" y="430"/>
      <point x="431" y="443"/>
      <point x="405" y="458" type="curve" smooth="yes"/>
      <point x="378" y="473"/>
      <point x="343" y="482"/>
      <point x="310" y="482" type="curve" smooth="yes"/>
      <point x="213" y="482"/>
      <point x="140" y="407"/>
      <point x="140" y="306" type="curve" smooth="yes"/>
      <point x="140" y="243" type="line" smooth="yes"/>
      <point x="140" y="146"/>
      <point x="214" y="84"/>
      <point x="330" y="84" type="curve" smooth="yes"/>
      <point x="374" y="84"/>
      <point x="413" y="90"/>
      <point x="438" y="105" type="curve" smooth="yes"/>
      <point x="448" y="112"/>
      <point x="448" y="112"/>
      <point x="474" y="139" type="curve" smooth="yes"/>
      <point x="485" y="149"/>
      <point x="496" y="154"/>
      <point x="510" y="154" type="curve" smooth="yes"/>
      <point x="535" y="154"/>
      <point x="557" y="132"/>
      <point x="557" y="105" type="curve" smooth="yes"/>
      <point x="557" y="84"/>
      <point x="539" y="57"/>
      <point x="506" y="35" type="curve"/>
      <point x="464" y="4"/>
      <point x="398" y="-15"/>
      <point x="327" y="-15" type="curve" smooth="yes"/>
      <point x="163" y="-15"/>
      <point x="43" y="94"/>
      <point x="43" y="241" type="curve" smooth="yes"/>
      <point x="43" y="306" type="line" smooth="yes"/>
      <point x="43" y="460"/>
      <point x="157" y="578"/>
      <point x="306" y="578" type="curve" smooth="yes"/>
      <point x="357" y="578"/>
      <point x="391" y="570"/>
    </contour>
  </outline>
</glyph>
<glyph name="ccircumflex" format="1">
  <advance width="600"/>
  <unicode hex="0109"/>
  <outline>
    <contour>
      <point x="299" y="569" type="line"/>
      <point x="190" y="475" type="line" smooth="yes"/>
      <point x="179" y="466"/>
      <point x="172" y="463"/>
      <point x="163" y="463" type="curve" smooth="yes"/>
      <point x="144" y="463"/>
      <point x="129" y="480"/>
      <point x="129" y="496" type="curve" smooth="yes"/>
      <point x="129" y="510"/>
      <point x="131" y="513"/>
      <point x="152" y="530" type="curve" smooth="yes"/>
      <point x="299" y="656" type="line"/>
      <point x="445" y="530" type="line"/>
      <point x="449" y="530"/>
      <point x="453" y="525"/>
      <point x="454" y="523" type="curve"/>
      <point x="465" y="515"/>
      <point x="469" y="506"/>
      <point x="469" y="496" type="curve" smooth="yes"/>
      <point x="469" y="480"/>
      <point x="454" y="463"/>
      <point x="436" y="463" type="curve" smooth="yes"/>
      <point x="427" y="463"/>
      <point x="419" y="466"/>
      <point x="408" y="475" type="curve" smooth="yes"/>
    </contour>
    <contour>
      <point x="523" y="371" type="curve" smooth="yes"/>
      <point x="523" y="298" type="line" smooth="yes"/>
      <point x="523" y="273"/>
      <point x="521" y="263"/>
      <point x="515" y="254" type="curve" smooth="yes"/>
      <point x="505" y="241"/>
      <point x="490" y="234"/>
      <point x="474" y="234" type="curve" smooth="yes"/>
      <point x="462" y="234"/>
      <point x="448" y="240"/>
      <point x="440" y="247" type="curve" smooth="yes"/>
      <point x="433" y="253"/>
      <point x="430" y="259"/>
      <point x="425" y="280" type="curve" smooth="yes"/>
      <point x="420" y="298"/>
      <point x="415" y="306"/>
      <point x="403" y="315" type="curve"/>
      <point x="378" y="330"/>
      <point x="343" y="339"/>
      <point x="299" y="339" type="curve" smooth="yes"/>
      <point x="250" y="339"/>
      <point x="215" y="326"/>
      <point x="188" y="298" type="curve"/>
      <point x="162" y="273"/>
      <point x="149" y="237"/>
      <point x="149" y="202" type="curve" smooth="yes"/>
      <point x="149" y="121"/>
      <point x="208" y="81"/>
      <point x="319" y="81" type="curve" smooth="yes"/>
      <point x="358" y="81"/>
      <point x="398" y="86"/>
      <point x="420" y="94" type="curve"/>
      <point x="440" y="100"/>
      <point x="445" y="104"/>
      <point x="470" y="123" type="curve"/>
      <point x="479" y="132"/>
      <point x="487" y="136"/>
      <point x="499" y="136" type="curve" smooth="yes"/>
      <point x="525" y="136"/>
      <point x="549" y="113"/>
      <point x="549" y="86" type="curve" smooth="yes"/>
      <point x="549" y="61"/>
      <point x="525" y="35"/>
      <point x="485" y="16" type="curve"/>
      <point x="446" y="-4"/>
      <point x="384" y="-16"/>
      <point x="313" y="-16" type="curve" smooth="yes"/>
      <point x="219" y="-16"/>
      <point x="159" y="5"/>
      <point x="112" y="51" type="curve" smooth="yes"/>
      <point x="73" y="90"/>
      <point x="51" y="141"/>
      <point x="51" y="202" type="curve" smooth="yes"/>
      <point x="51" y="339"/>
      <point x="154" y="436"/>
      <point x="299" y="436" type="curve" smooth="yes"/>
      <point x="356" y="436"/>
      <point x="402" y="427"/>
      <point x="440" y="407" type="curve"/>
      <point x="446" y="427"/>
      <point x="456" y="436"/>
      <point x="477" y="436" type="curve" smooth="yes"/>
      <point x="508" y="436"/>
      <point x="523" y="417"/>
    </contour>
  </outline>
</glyph>
<glyph name="cdotaccent" format="1">
  <advance width="600"/>
  <unicode hex="010B"/>
  <outline>
    <contour>
      <point x="300" y="579" type="curve" smooth="yes"/>
      <point x="333" y="579"/>
      <point x="358" y="553"/>
      <point x="358" y="519" type="curve" smooth="yes"/>
      <point x="358" y="488"/>
      <point x="331" y="463"/>
      <point x="300" y="463" type="curve" smooth="yes"/>
      <point x="268" y="463"/>
      <point x="241" y="488"/>
      <point x="241" y="519" type="curve" smooth="yes"/>
      <point x="241" y="553"/>
      <point x="268" y="579"/>
    </contour>
    <contour>
      <point x="523" y="371" type="curve" smooth="yes"/>
      <point x="523" y="298" type="line" smooth="yes"/>
      <point x="523" y="273"/>
      <point x="521" y="263"/>
      <point x="515" y="254" type="curve" smooth="yes"/>
      <point x="505" y="241"/>
      <point x="490" y="234"/>
      <point x="474" y="234" type="curve" smooth="yes"/>
      <point x="462" y="234"/>
      <point x="448" y="240"/>
      <point x="440" y="247" type="curve" smooth="yes"/>
      <point x="433" y="253"/>
      <point x="430" y="259"/>
      <point x="425" y="280" type="curve" smooth="yes"/>
      <point x="420" y="298"/>
      <point x="415" y="306"/>
      <point x="403" y="315" type="curve"/>
      <point x="378" y="330"/>
      <point x="343" y="339"/>
      <point x="299" y="339" type="curve" smooth="yes"/>
      <point x="250" y="339"/>
      <point x="215" y="326"/>
      <point x="188" y="298" type="curve"/>
      <point x="162" y="273"/>
      <point x="149" y="237"/>
      <point x="149" y="202" type="curve" smooth="yes"/>
      <point x="149" y="121"/>
      <point x="208" y="81"/>
      <point x="319" y="81" type="curve" smooth="yes"/>
      <point x="358" y="81"/>
      <point x="398" y="86"/>
      <point x="420" y="94" type="curve"/>
      <point x="440" y="100"/>
      <point x="445" y="104"/>
      <point x="470" y="123" type="curve"/>
      <point x="479" y="132"/>
      <point x="487" y="136"/>
      <point x="499" y="136" type="curve" smooth="yes"/>
      <point x="525" y="136"/>
      <point x="549" y="113"/>
      <point x="549" y="86" type="curve" smooth="yes"/>
      <point x="549" y="61"/>
      <point x="525" y="35"/>
      <point x="485" y="16" type="curve"/>
      <point x="446" y="-4"/>
      <point x="384" y="-16"/>
      <point x="313" y="-16" type="curve" smooth="yes"/>
      <point x="219" y="-16"/>
      <point x="159" y="5"/>
      <point x="112" y="51" type="curve" smooth="yes"/>
      <point x="73" y="90"/>
      <point x="51" y="141"/>
      <point x="51" y="202" type="curve" smooth="yes"/>
      <point x="51" y="339"/>
      <point x="154" y="436"/>
      <point x="299" y="436" type="curve" smooth="yes"/>
      <point x="356" y="436"/>
      <point x="402" y="427"/>
      <point x="440" y="407" type="curve"/>
      <point x="446" y="427"/>
      <point x="456" y="436"/>
      <point x="477" y="436" type="curve" smooth="yes"/>
      <point x="508" y="436"/>
      <point x="523" y="417"/>
    </contour>
  </outline>
</glyph>
<glyph name="Dcaron" format="1">
  <advance width="600"/>
  <unicode hex="010E"/>
  <outline>
    <contour>
      <point x="74" y="100" type="curve"/>
      <point x="74" y="483" type="line"/>
      <point x="35" y="483"/>
      <point x="13" y="501"/>
      <point x="13" y="533" type="curve" smooth="yes"/>
      <point x="13" y="550"/>
      <point x="22" y="567"/>
      <point x="37" y="576" type="curve" smooth="yes"/>
      <point x="46" y="582"/>
      <point x="53" y="583"/>
      <point x="80" y="583" type="curve" smooth="yes"/>
      <point x="292" y="583" type="line" smooth="yes"/>
      <point x="438" y="583"/>
      <point x="550" y="462"/>
      <point x="550" y="305" type="curve" smooth="yes"/>
      <point x="550" y="258" type="line" smooth="yes"/>
      <point x="550" y="185"/>
      <point x="526" y="123"/>
      <point x="480" y="75" type="curve" smooth="yes"/>
      <point x="431" y="23"/>
      <point x="371" y="0"/>
      <point x="284" y="0" type="curve" smooth="yes"/>
      <point x="80" y="0" type="line" smooth="yes"/>
      <point x="56" y="0"/>
      <point x="43" y="3"/>
      <point x="34" y="10" type="curve" smooth="yes"/>
      <point x="21" y="19"/>
      <point x="13" y="35"/>
      <point x="13" y="50" type="curve" smooth="yes"/>
      <point x="13" y="82"/>
      <point x="36" y="100"/>
    </contour>
    <contour>
      <point x="174" y="100" type="line"/>
      <point x="285" y="100" type="line" smooth="yes"/>
      <point x="345" y="100"/>
      <point x="378" y="112"/>
      <point x="409" y="144" type="curve"/>
      <point x="437" y="175"/>
      <point x="450" y="210"/>
      <point x="450" y="261" type="curve" smooth="yes"/>
      <point x="450" y="307" type="line" smooth="yes"/>
      <point x="450" y="354"/>
      <point x="434" y="398"/>
      <point x="405" y="432" type="curve" smooth="yes"/>
      <point x="375" y="467"/>
      <point x="337" y="483"/>
      <point x="284" y="483" type="curve" smooth="yes"/>
      <point x="174" y="483" type="line"/>
    </contour>
    <contour>
      <point x="301" y="729" type="line"/>
      <point x="413" y="826" type="line"/>
      <point x="425" y="835"/>
      <point x="432" y="839"/>
      <point x="442" y="839" type="curve" smooth="yes"/>
      <point x="460" y="839"/>
      <point x="476" y="822"/>
      <point x="476" y="804" type="curve" smooth="yes"/>
      <point x="476" y="792"/>
      <point x="472" y="785"/>
      <point x="461" y="776" type="curve" smooth="yes"/>
      <point x="452" y="768" type="line"/>
      <point x="301" y="640" type="line"/>
      <point x="149" y="768" type="line" smooth="yes"/>
      <point x="127" y="787"/>
      <point x="125" y="790"/>
      <point x="125" y="803" type="curve" smooth="yes"/>
      <point x="125" y="822"/>
      <point x="141" y="839"/>
      <point x="160" y="839" type="curve" smooth="yes"/>
      <point x="169" y="839"/>
      <point x="176" y="835"/>
      <point x="188" y="826" type="curve" smooth="yes"/>
    </contour>
  </outline>
</glyph>
<glyph name="eogonek" format="1">
  <advance width="600"/>
  <unicode hex="0119"/>
  <outline>
    <contour>
      <point x="550" y="172" type="line"/>
      <point x="142" y="172" type="line"/>
      <point x="165" y="112"/>
      <point x="218" y="84"/>
      <point x="306" y="84" type="curve" smooth="yes"/>
      <point x="352" y="84"/>
      <point x="377" y="88"/>
      <point x="469" y="112" type="curve" smooth="yes"/>
      <point x="481" y="115"/>
      <point x="493" y="117"/>
      <point x="502" y="117" type="curve" smooth="yes"/>
      <point x="529" y="117"/>
      <point x="550" y="95"/>
      <point x="550" y="67" type="curve" smooth="yes"/>
      <point x="550" y="45"/>
      <point x="538" y="32"/>
      <point x="508" y="19" type="curve" smooth="yes"/>
      <point x="418" y="-17"/>
      <point x="360" y="-68"/>
      <point x="360" y="-112" type="curve" smooth="yes"/>
      <point x="360" y="-125"/>
      <point x="369" y="-132"/>
      <point x="384" y="-132" type="curve" smooth="yes"/>
      <point x="396" y="-132"/>
      <point x="407" y="-128"/>
      <point x="435" y="-114" type="curve" smooth="yes"/>
      <point x="445" y="-109"/>
      <point x="450" y="-108"/>
      <point x="457" y="-108" type="curve" smooth="yes"/>
      <point x="479" y="-108"/>
      <point x="496" y="-125"/>
      <point x="496" y="-146" type="curve" smooth="yes"/>
      <point x="496" y="-164"/>
      <point x="485" y="-178"/>
      <point x="461" y="-189" type="curve" smooth="yes"/>
      <point x="434" y="-201"/>
      <point x="404" y="-208"/>
      <point x="377" y="-208" type="curve" smooth="yes"/>
      <point x="319" y="-208"/>
      <point x="283" y="-174"/>
      <point x="283" y="-119" type="curve" smooth="yes"/>
      <point x="283" y="-77"/>
      <point x="302" y="-43"/>
      <point x="341" y="-14" type="curve"/>
      <point x="321" y="-16"/>
      <point x="311" y="-16"/>
      <point x="299" y="-16" type="curve" smooth="yes"/>
      <point x="142" y="-16"/>
      <point x="33" y="79"/>
      <point x="33" y="216" type="curve" smooth="yes"/>
      <point x="33" y="348"/>
      <point x="145" y="450"/>
      <point x="291" y="450" type="curve" smooth="yes"/>
      <point x="440" y="450"/>
      <point x="550" y="349"/>
      <point x="550" y="211" type="curve" smooth="yes"/>
    </contour>
    <contour>
      <point x="145" y="260" type="curve"/>
      <point x="439" y="260" type="line"/>
      <point x="423" y="315"/>
      <point x="365" y="350"/>
      <point x="292" y="350" type="curve" smooth="yes"/>
      <point x="219" y="350"/>
      <point x="160" y="314"/>
    </contour>
  </outline>
</glyph>
<glyph name="Gcircumflex" format="1">
  <advance width="600"/>
  <unicode hex="011C"/>
  <outline>
    <contour>
      <point x="300" y="710" type="line"/>
      <point x="191" y="616" type="line" smooth="yes"/>
      <point x="180" y="607"/>
      <point x="173" y="604"/>
      <point x="164" y="604" type="curve" smooth="yes"/>
      <point x="145" y="604"/>
      <point x="130" y="621"/>
      <point x="130" y="637" type="curve" smooth="yes"/>
      <point x="130" y="651"/>
      <point x="132" y="654"/>
      <point x="153" y="671" type="curve" smooth="yes"/>
      <point x="300" y="797" type="line"/>
      <point x="446" y="671" type="line"/>
      <point x="450" y="671"/>
      <point x="454" y="666"/>
      <point x="455" y="664" type="curve"/>
      <point x="466" y="656"/>
      <point x="470" y="647"/>
      <point x="470" y="637" type="curve" smooth="yes"/>
      <point x="470" y="621"/>
      <point x="455" y="604"/>
      <point x="437" y="604" type="curve" smooth="yes"/>
      <point x="428" y="604"/>
      <point x="420" y="607"/>
      <point x="409" y="616" type="curve" smooth="yes"/>
    </contour>
    <contour>
      <point x="530" y="174" type="curve"/>
      <point x="530" y="47" type="line"/>
      <point x="443" y="1"/>
      <point x="393" y="-15"/>
      <point x="318" y="-15" type="curve" smooth="yes"/>
      <point x="223" y="-15"/>
      <point x="140" y="15"/>
      <point x="94" y="64" type="curve"/>
      <point x="53" y="105"/>
      <point x="29" y="170"/>
      <point x="29" y="239" type="curve" smooth="yes"/>
      <point x="29" y="307" type="line" smooth="yes"/>
      <point x="29" y="381"/>
      <point x="59" y="453"/>
      <point x="110" y="503" type="curve" smooth="yes"/>
      <point x="161" y="554"/>
      <point x="225" y="578"/>
      <point x="304" y="578" type="curve" smooth="yes"/>
      <point x="357" y="578"/>
      <point x="404" y="567"/>
      <point x="445" y="549" type="curve"/>
      <point x="457" y="570"/>
      <point x="466" y="578"/>
      <point x="484" y="578" type="curve" smooth="yes"/>
      <point x="500" y="578"/>
      <point x="516" y="570"/>
      <point x="522" y="555" type="curve"/>
      <point x="529" y="546"/>
      <point x="530" y="538"/>
      <point x="530" y="515" type="curve" smooth="yes"/>
      <point x="530" y="439" type="line" smooth="yes"/>
      <point x="530" y="412"/>
      <point x="529" y="404"/>
      <point x="521" y="395" type="curve"/>
      <point x="512" y="381"/>
      <point x="497" y="375"/>
      <point x="481" y="375" type="curve" smooth="yes"/>
      <point x="469" y="375"/>
      <point x="455" y="381"/>
      <point x="447" y="389" type="curve"/>
      <point x="442" y="396"/>
      <point x="442" y="396"/>
      <point x="434" y="427" type="curve"/>
      <point x="424" y="460"/>
      <point x="376" y="482"/>
      <point x="305" y="482" type="curve" smooth="yes"/>
      <point x="251" y="482"/>
      <point x="207" y="466"/>
      <point x="177" y="436" type="curve" smooth="yes"/>
      <point x="145" y="404"/>
      <point x="126" y="356"/>
      <point x="126" y="307" type="curve" smooth="yes"/>
      <point x="126" y="244" type="line" smooth="yes"/>
      <point x="126" y="189"/>
      <point x="140" y="152"/>
      <point x="169" y="126" type="curve"/>
      <point x="202" y="98"/>
      <point x="251" y="84"/>
      <point x="312" y="84" type="curve" smooth="yes"/>
      <point x="358" y="84"/>
      <point x="395" y="90"/>
      <point x="433" y="107" type="curve"/>
      <point x="433" y="174" type="line"/>
      <point x="336" y="174" type="line" smooth="yes"/>
      <point x="312" y="174"/>
      <point x="301" y="177"/>
      <point x="292" y="185" type="curve"/>
      <point x="280" y="193"/>
      <point x="272" y="208"/>
      <point x="272" y="224" type="curve" smooth="yes"/>
      <point x="272" y="240"/>
      <point x="280" y="257"/>
      <point x="295" y="264" type="curve"/>
      <point x="304" y="270"/>
      <point x="312" y="271"/>
      <point x="336" y="271" type="curve" smooth="yes"/>
      <point x="505" y="271" type="line" smooth="yes"/>
      <point x="532" y="271"/>
      <point x="540" y="270"/>
      <point x="551" y="263" type="curve"/>
      <point x="564" y="253"/>
      <point x="571" y="239"/>
      <point x="571" y="224" type="curve" smooth="yes"/>
      <point x="571" y="198"/>
      <point x="557" y="182"/>
    </contour>
  </outline>
</glyph>
<glyph name="gcircumflex" format="1">
  <advance width="600"/>
  <unicode hex="011D"/>
  <outline>
    <contour>
      <point x="300" y="569" type="line"/>
      <point x="191" y="475" type="line" smooth="yes"/>
      <point x="180" y="466"/>
      <point x="173" y="463"/>
      <point x="164" y="463" type="curve" smooth="yes"/>
      <point x="145" y="463"/>
      <point x="130" y="480"/>
      <point x="130" y="496" type="curve" smooth="yes"/>
      <point x="130" y="510"/>
      <point x="132" y="513"/>
      <point x="153" y="530" type="curve" smooth="yes"/>
      <point x="300" y="656" type="line"/>
      <point x="446" y="530" type="line"/>
      <point x="450" y="530"/>
      <point x="454" y="525"/>
      <point x="455" y="523" type="curve"/>
      <point x="466" y="515"/>
      <point x="470" y="506"/>
      <point x="470" y="496" type="curve" smooth="yes"/>
      <point x="470" y="480"/>
      <point x="455" y="463"/>
      <point x="437" y="463" type="curve" smooth="yes"/>
      <point x="428" y="463"/>
      <point x="420" y="466"/>
      <point x="409" y="475" type="curve" smooth="yes"/>
    </contour>
    <contour>
      <point x="394" y="388" type="curve"/>
      <point x="394" y="423" type="line"/>
      <point x="505" y="423" type="line" smooth="yes"/>
      <point x="533" y="423"/>
      <point x="541" y="420"/>
      <point x="551" y="415" type="curve"/>
      <point x="563" y="404"/>
      <point x="571" y="391"/>
      <point x="571" y="375" type="curve" smooth="yes"/>
      <point x="571" y="358"/>
      <point x="562" y="342"/>
      <point x="547" y="332" type="curve"/>
      <point x="539" y="329"/>
      <point x="529" y="326"/>
      <point x="505" y="326" type="curve" smooth="yes"/>
      <point x="491" y="326" type="line"/>
      <point x="491" y="-19" type="line" smooth="yes"/>
      <point x="491" y="-122"/>
      <point x="412" y="-198"/>
      <point x="306" y="-198" type="curve" smooth="yes"/>
      <point x="199" y="-198" type="line" smooth="yes"/>
      <point x="174" y="-198"/>
      <point x="163" y="-197"/>
      <point x="153" y="-189" type="curve" smooth="yes"/>
      <point x="141" y="-180"/>
      <point x="133" y="-166"/>
      <point x="133" y="-150" type="curve" smooth="yes"/>
      <point x="133" y="-133"/>
      <point x="143" y="-117"/>
      <point x="157" y="-108" type="curve" smooth="yes"/>
      <point x="166" y="-102"/>
      <point x="172" y="-102"/>
      <point x="199" y="-102" type="curve" smooth="yes"/>
      <point x="303" y="-102" type="line" smooth="yes"/>
      <point x="358" y="-102"/>
      <point x="394" y="-70"/>
      <point x="394" y="-19" type="curve" smooth="yes"/>
      <point x="394" y="34" type="line"/>
      <point x="350" y="1"/>
      <point x="309" y="-15"/>
      <point x="257" y="-15" type="curve" smooth="yes"/>
      <point x="128" y="-15"/>
      <point x="29" y="84"/>
      <point x="29" y="211" type="curve" smooth="yes"/>
      <point x="29" y="340"/>
      <point x="128" y="437"/>
      <point x="257" y="437" type="curve" smooth="yes"/>
      <point x="310" y="437"/>
      <point x="357" y="420"/>
    </contour>
    <contour>
      <point x="260" y="340" type="curve" smooth="yes"/>
      <point x="186" y="340"/>
      <point x="126" y="283"/>
      <point x="126" y="211" type="curve" smooth="yes"/>
      <point x="126" y="140"/>
      <point x="186" y="84"/>
      <point x="260" y="84" type="curve" smooth="yes"/>
      <point x="333" y="84"/>
      <point x="394" y="140"/>
      <point x="394" y="210" type="curve" smooth="yes"/>
      <point x="394" y="283"/>
      <point x="336" y="340"/>
    </contour>
  </outline>
</glyph>
<glyph name="gdotaccent" format="1">
  <advance width="600"/>
  <unicode hex="0121"/>
  <outline>
    <contour>
      <point x="300" y="579" type="curve" smooth="yes"/>
      <point x="333" y="579"/>
      <point x="358" y="553"/>
      <point x="358" y="519" type="curve" smooth="yes"/>
      <point x="358" y="488"/>
      <point x="331" y="463"/>
      <point x="300" y="463" type="curve" smooth="yes"/>
      <point x="268" y="463"/>
      <point x="241" y="488"/>
      <point x="241" y="519" type="curve" smooth="yes"/>
      <point x="241" y="553"/>
      <point x="268" y="579"/>
    </contour>
    <contour>
      <point x="394" y="388" type="curve"/>
      <point x="394" y="423" type="line"/>
      <point x="505" y="423" type="line" smooth="yes"/>
      <point x="533" y="423"/>
      <point x="541" y="420"/>
      <point x="551" y="415" type="curve"/>
      <point x="563" y="404"/>
      <point x="571" y="391"/>
      <point x="571" y="375" type="curve" smooth="yes"/>
      <point x="571" y="358"/>
      <point x="562" y="342"/>
      <point x="547" y="332" type="curve"/>
      <point x="539" y="329"/>
      <point x="529" y="326"/>
      <point x="505" y="326" type="curve" smooth="yes"/>
      <point x="491" y="326" type="line"/>
      <point x="491" y="-19" type="line" smooth="yes"/>
      <point x="491" y="-122"/>
      <point x="412" y="-198"/>
      <point x="306" y="-198" type="curve" smooth="yes"/>
      <point x="199" y="-198" type="line" smooth="yes"/>
      <point x="174" y="-198"/>
      <point x="163" y="-197"/>
      <point x="153" y="-189" type="curve" smooth="yes"/>
      <point x="141" y="-180"/>
      <point x="133" y="-166"/>
      <point x="133" y="-150" type="curve" smooth="yes"/>
      <point x="133" y="-133"/>
      <point x="143" y="-117"/>
      <point x="157" y="-108" type="curve" smooth="yes"/>
      <point x="166" y="-102"/>
      <point x="172" y="-102"/>
      <point x="199" y="-102" type="curve" smooth="yes"/>
      <point x="303" y="-102" type="line" smooth="yes"/>
      <point x="358" y="-102"/>
      <point x="394" y="-70"/>
      <point x="394" y="-19" type="curve" smooth="yes"/>
      <point x="394" y="34" type="line"/>
      <point x="350" y="1"/>
      <point x="309" y="-15"/>
      <point x="257" y="-15" type="curve" smooth="yes"/>
      <point x="128" y="-15"/>
      <point x="29" y="84"/>
      <point x="29" y="211" type="curve" smooth="yes"/>
      <point x="29" y="340"/>
      <point x="128" y="437"/>
      <point x="257" y="437" type="curve" smooth="yes"/>
      <point x="310" y="437"/>
      <point x="357" y="420"/>
    </contour>
    <contour>
      <point x="260" y="340" type="curve" smooth="yes"/>
      <point x="186" y="340"/>
      <point x="126" y="283"/>
      <point x="126" y="211" type="curve" smooth="yes"/>
      <point x="126" y="140"/>
      <point x="186" y="84"/>
      <point x="260" y="84" type="curve" smooth="yes"/>
      <point x="333" y="84"/>
      <point x="394" y="140"/>
      <point x="394" y="210" type="curve" smooth="yes"/>
      <point x="394" y="283"/>
      <point x="336" y="340"/>
    </contour>
  </outline>
</glyph>
<glyph name="hcircumflex" format="1">
  <advance width="600"/>
  <unicode hex="0125"/>
  <outline>
    <contour>
      <point x="300" y="750" type="line"/>
      <point x="190" y="656" type="line" smooth="yes"/>
      <point x="180" y="647"/>
      <point x="172" y="644"/>
      <point x="164" y="644" type="curve" smooth="yes"/>
      <point x="144" y="644"/>
      <point x="130" y="661"/>
      <point x="130" y="677" type="curve" smooth="yes"/>
      <point x="130" y="691"/>
      <point x="132" y="694"/>
      <point x="152" y="711" type="curve" smooth="yes"/>
      <point x="300" y="837" type="line"/>
      <point x="446" y="711" type="line"/>
      <point x="450" y="711"/>
      <point x="454" y="706"/>
      <point x="454" y="704" type="curve"/>
      <point x="466" y="696"/>
      <point x="470" y="687"/>
      <point x="470" y="677" type="curve" smooth="yes"/>
      <point x="470" y="661"/>
      <point x="454" y="644"/>
      <point x="436" y="644" type="curve" smooth="yes"/>
      <point x="428" y="644"/>
      <point x="420" y="647"/>
      <point x="408" y="656" type="curve"/>
    </contour>
    <contour>
      <point x="201" y="604" type="line"/>
      <point x="201" y="378" type="line"/>
      <point x="240" y="417"/>
      <point x="284" y="436"/>
      <point x="334" y="436" type="curve" smooth="yes"/>
      <point x="438" y="436"/>
      <point x="504" y="371"/>
      <point x="504" y="275" type="curve" smooth="yes"/>
      <point x="504" y="97" type="line"/>
      <point x="512" y="97" type="line" smooth="yes"/>
      <point x="538" y="97"/>
      <point x="546" y="95"/>
      <point x="556" y="88" type="curve"/>
      <point x="568" y="78"/>
      <point x="576" y="64"/>
      <point x="576" y="48" type="curve" smooth="yes"/>
      <point x="576" y="32"/>
      <point x="566" y="16"/>
      <point x="552" y="7" type="curve" smooth="yes"/>
      <point x="544" y="2"/>
      <point x="532" y="0"/>
      <point x="512" y="0" type="curve" smooth="yes"/>
      <point x="404" y="0" type="line" smooth="yes"/>
      <point x="380" y="0"/>
      <point x="368" y="2"/>
      <point x="358" y="8" type="curve"/>
      <point x="344" y="19"/>
      <point x="338" y="33"/>
      <point x="338" y="48" type="curve" smooth="yes"/>
      <point x="338" y="65"/>
      <point x="346" y="81"/>
      <point x="362" y="90" type="curve" smooth="yes"/>
      <point x="370" y="95"/>
      <point x="378" y="97"/>
      <point x="404" y="97" type="curve" smooth="yes"/>
      <point x="408" y="97" type="line"/>
      <point x="408" y="263" type="line" smooth="yes"/>
      <point x="408" y="295"/>
      <point x="404" y="307"/>
      <point x="388" y="321" type="curve" smooth="yes"/>
      <point x="372" y="334"/>
      <point x="354" y="339"/>
      <point x="324" y="339" type="curve" smooth="yes"/>
      <point x="278" y="339"/>
      <point x="256" y="329"/>
      <point x="201" y="274" type="curve"/>
      <point x="201" y="97" type="line"/>
      <point x="208" y="97" type="line" smooth="yes"/>
      <point x="234" y="97"/>
      <point x="242" y="95"/>
      <point x="252" y="88" type="curve"/>
      <point x="264" y="78"/>
      <point x="272" y="64"/>
      <point x="272" y="48" type="curve" smooth="yes"/>
      <point x="272" y="32"/>
      <point x="262" y="16"/>
      <point x="248" y="7" type="curve" smooth="yes"/>
      <point x="240" y="2"/>
      <point x="228" y="0"/>
      <point x="208" y="0" type="curve" smooth="yes"/>
      <point x="98" y="0" type="line" smooth="yes"/>
      <point x="76" y="0"/>
      <point x="64" y="2"/>
      <point x="56" y="8" type="curve" smooth="yes"/>
      <point x="44" y="19"/>
      <point x="34" y="34"/>
      <point x="34" y="48" type="curve" smooth="yes"/>
      <point x="34" y="65"/>
      <point x="44" y="81"/>
      <point x="58" y="90" type="curve" smooth="yes"/>
      <point x="66" y="95"/>
      <point x="74" y="97"/>
      <point x="98" y="97" type="curve" smooth="yes"/>
      <point x="104" y="97" type="line"/>
      <point x="104" y="508" type="line"/>
      <point x="90" y="508" type="line" smooth="yes"/>
      <point x="64" y="508"/>
      <point x="52" y="508"/>
      <point x="44" y="516" type="curve"/>
      <point x="32" y="525"/>
      <point x="24" y="542"/>
      <point x="24" y="556" type="curve" smooth="yes"/>
      <point x="24" y="573"/>
      <point x="34" y="589"/>
      <point x="48" y="598" type="curve" smooth="yes"/>
      <point x="58" y="604"/>
      <point x="66" y="604"/>
      <point x="90" y="604" type="curve" smooth="yes"/>
    </contour>
  </outline>
</glyph>
<glyph name="Hbar" format="1">
  <advance width="600"/>
  <unicode hex="0126"/>
  <outline>
    <contour>
      <point x="404" y="224" type="line"/>
      <point x="196" y="224" type="line"/>
      <point x="196" y="97" type="line"/>
      <point x="210" y="97" type="line" smooth="yes"/>
      <point x="236" y="97"/>
      <point x="246" y="95"/>
      <point x="254" y="88" type="curve"/>
      <point x="268" y="78"/>
      <point x="274" y="64"/>
      <point x="274" y="48" type="curve" smooth="yes"/>
      <point x="274" y="32"/>
      <point x="266" y="16"/>
      <point x="252" y="7" type="curve" smooth="yes"/>
      <point x="244" y="2"/>
      <point x="232" y="0"/>
      <point x="210" y="0" type="curve" smooth="yes"/>
      <point x="94" y="0" type="line" smooth="yes"/>
      <point x="72" y="0"/>
      <point x="58" y="2"/>
      <point x="48" y="8" type="curve"/>
      <point x="38" y="19"/>
      <point x="30" y="34"/>
      <point x="30" y="48" type="curve" smooth="yes"/>
      <point x="30" y="65"/>
      <point x="38" y="81"/>
      <point x="54" y="90" type="curve"/>
      <point x="62" y="97"/>
      <point x="70" y="97"/>
      <point x="94" y="97" type="curve" smooth="yes"/>
      <point x="100" y="97" type="line"/>
      <point x="100" y="347" type="line"/>
      <point x="81" y="348"/>
      <point x="71" y="350"/>
      <point x="63" y="357" type="curve"/>
      <point x="50" y="366"/>
      <point x="42" y="376"/>
      <point x="42" y="392" type="curve" smooth="yes"/>
      <point x="42" y="409"/>
      <point x="51" y="421"/>
      <point x="66" y="430" type="curve" smooth="yes"/>
      <point x="74" y="435"/>
      <point x="81" y="437"/>
      <point x="100" y="437" type="curve"/>
      <point x="100" y="468" type="line"/>
      <point x="68" y="470"/>
      <point x="48" y="488"/>
      <point x="48" y="516" type="curve" smooth="yes"/>
      <point x="48" y="533"/>
      <point x="58" y="549"/>
      <point x="72" y="558" type="curve" smooth="yes"/>
      <point x="82" y="565"/>
      <point x="88" y="565"/>
      <point x="112" y="565" type="curve" smooth="yes"/>
      <point x="210" y="565" type="line" smooth="yes"/>
      <point x="236" y="565"/>
      <point x="246" y="563"/>
      <point x="254" y="556" type="curve"/>
      <point x="268" y="546"/>
      <point x="274" y="532"/>
      <point x="274" y="516" type="curve" smooth="yes"/>
      <point x="274" y="500"/>
      <point x="266" y="484"/>
      <point x="252" y="474" type="curve"/>
      <point x="244" y="470"/>
      <point x="234" y="468"/>
      <point x="210" y="468" type="curve" smooth="yes"/>
      <point x="196" y="468" type="line"/>
      <point x="196" y="437" type="line"/>
      <point x="404" y="437" type="line"/>
      <point x="404" y="468" type="line"/>
      <point x="388" y="468" type="line" smooth="yes"/>
      <point x="364" y="468"/>
      <point x="356" y="470"/>
      <point x="346" y="477" type="curve"/>
      <point x="334" y="487"/>
      <point x="326" y="501"/>
      <point x="326" y="516" type="curve" smooth="yes"/>
      <point x="326" y="533"/>
      <point x="334" y="549"/>
      <point x="348" y="558" type="curve"/>
      <point x="356" y="565"/>
      <point x="364" y="565"/>
      <point x="388" y="565" type="curve" smooth="yes"/>
      <point x="488" y="565" type="line" smooth="yes"/>
      <point x="512" y="565"/>
      <point x="522" y="563"/>
      <point x="532" y="556" type="curve"/>
      <point x="544" y="546"/>
      <point x="550" y="532"/>
      <point x="550" y="516" type="curve" smooth="yes"/>
      <point x="550" y="488"/>
      <point x="532" y="470"/>
      <point x="500" y="468" type="curve"/>
      <point x="500" y="437" type="line"/>
      <point x="521" y="437"/>
      <point x="528" y="434"/>
      <point x="537" y="428" type="curve" smooth="yes"/>
      <point x="550" y="418"/>
      <point x="558" y="408"/>
      <point x="558" y="392" type="curve" smooth="yes"/>
      <point x="558" y="375"/>
      <point x="549" y="363"/>
      <point x="534" y="354" type="curve" smooth="yes"/>
      <point x="527" y="350"/>
      <point x="517" y="348"/>
      <point x="500" y="347" type="curve"/>
      <point x="500" y="97" type="line"/>
      <point x="506" y="97" type="line" smooth="yes"/>
      <point x="532" y="97"/>
      <point x="542" y="95"/>
      <point x="550" y="88" type="curve" smooth="yes"/>
      <point x="562" y="78"/>
      <point x="570" y="64"/>
      <point x="570" y="48" type="curve" smooth="yes"/>
      <point x="570" y="32"/>
      <point x="562" y="16"/>
      <point x="546" y="7" type="curve"/>
      <point x="540" y="2"/>
      <point x="526" y="0"/>
      <point x="506" y="0" type="curve" smooth="yes"/>
      <point x="388" y="0" type="line" smooth="yes"/>
      <point x="366" y="0"/>
      <point x="354" y="2"/>
      <point x="346" y="8" type="curve" smooth="yes"/>
      <point x="334" y="19"/>
      <point x="326" y="34"/>
      <point x="326" y="48" type="curve" smooth="yes"/>
      <point x="326" y="65"/>
      <point x="334" y="81"/>
      <point x="348" y="90" type="curve"/>
      <point x="356" y="97"/>
      <point x="366" y="97"/>
      <point x="388" y="97" type="curve" smooth="yes"/>
      <point x="404" y="97" type="line"/>
    </contour>
    <contour>
      <point x="404" y="347" type="line"/>
      <point x="196" y="347" type="line"/>
      <point x="196" y="320" type="line"/>
      <point x="404" y="320" type="line"/>
    </contour>
  </outline>
</glyph>
<glyph name="hbar" format="1">
  <advance width="600"/>
  <unicode hex="0127"/>
  <outline>
    <contour>
      <point x="104" y="436" type="line"/>
      <point x="91" y="436" type="line" smooth="yes"/>
      <point x="67" y="436"/>
      <point x="55" y="438"/>
      <point x="46" y="446" type="curve"/>
      <point x="33" y="455"/>
      <point x="25" y="470"/>
      <point x="25" y="486" type="curve" smooth="yes"/>
      <point x="25" y="503"/>
      <point x="34" y="520"/>
      <point x="49" y="529" type="curve" smooth="yes"/>
      <point x="58" y="535"/>
      <point x="66" y="536"/>
      <point x="91" y="536" type="curve" smooth="yes"/>
      <point x="104" y="536" type="line"/>
      <point x="104" y="566" type="line"/>
      <point x="90" y="566" type="line" smooth="yes"/>
      <point x="64" y="566"/>
      <point x="52" y="566"/>
      <point x="44" y="574" type="curve"/>
      <point x="32" y="583"/>
      <point x="24" y="600"/>
      <point x="24" y="614" type="curve" smooth="yes"/>
      <point x="24" y="631"/>
      <point x="34" y="647"/>
      <point x="48" y="656" type="curve" smooth="yes"/>
      <point x="58" y="662"/>
      <point x="66" y="662"/>
      <point x="90" y="662" type="curve" smooth="yes"/>
      <point x="202" y="662" type="line"/>
      <point x="202" y="536" type="line"/>
      <point x="214" y="536" type="line" smooth="yes"/>
      <point x="241" y="536"/>
      <point x="249" y="534"/>
      <point x="259" y="527" type="curve" smooth="yes"/>
      <point x="272" y="517"/>
      <point x="280" y="502"/>
      <point x="280" y="486" type="curve" smooth="yes"/>
      <point x="280" y="469"/>
      <point x="271" y="452"/>
      <point x="256" y="443" type="curve" smooth="yes"/>
      <point x="248" y="438"/>
      <point x="236" y="436"/>
      <point x="214" y="436" type="curve" smooth="yes"/>
      <point x="202" y="436" type="line"/>
      <point x="202" y="378" type="line"/>
      <point x="240" y="417"/>
      <point x="284" y="436"/>
      <point x="334" y="436" type="curve" smooth="yes"/>
      <point x="438" y="436"/>
      <point x="504" y="371"/>
      <point x="504" y="275" type="curve" smooth="yes"/>
      <point x="504" y="97" type="line"/>
      <point x="512" y="97" type="line" smooth="yes"/>
      <point x="538" y="97"/>
      <point x="546" y="95"/>
      <point x="556" y="88" type="curve"/>
      <point x="568" y="78"/>
      <point x="576" y="64"/>
      <point x="576" y="48" type="curve" smooth="yes"/>
      <point x="576" y="32"/>
      <point x="566" y="16"/>
      <point x="552" y="7" type="curve" smooth="yes"/>
      <point x="544" y="2"/>
      <point x="532" y="0"/>
      <point x="512" y="0" type="curve" smooth="yes"/>
      <point x="404" y="0" type="line" smooth="yes"/>
      <point x="380" y="0"/>
      <point x="368" y="2"/>
      <point x="358" y="8" type="curve"/>
      <point x="344" y="19"/>
      <point x="338" y="33"/>
      <point x="338" y="48" type="curve" smooth="yes"/>
      <point x="338" y="65"/>
      <point x="346" y="81"/>
      <point x="362" y="90" type="curve" smooth="yes"/>
      <point x="370" y="95"/>
      <point x="378" y="97"/>
      <point x="404" y="97" type="curve" smooth="yes"/>
      <point x="408" y="97" type="line"/>
      <point x="408" y="263" type="line" smooth="yes"/>
      <point x="408" y="295"/>
      <point x="404" y="307"/>
      <point x="388" y="321" type="curve" smooth="yes"/>
      <point x="372" y="334"/>
      <point x="354" y="339"/>
      <point x="324" y="339" type="curve" smooth="yes"/>
      <point x="278" y="339"/>
      <point x="256" y="329"/>
      <point x="202" y="274" type="curve"/>
      <point x="202" y="97" type="line"/>
      <point x="208" y="97" type="line" smooth="yes"/>
      <point x="234" y="97"/>
      <point x="242" y="95"/>
      <point x="252" y="88" type="curve"/>
      <point x="264" y="78"/>
      <point x="272" y="64"/>
      <point x="272" y="48" type="curve" smooth="yes"/>
      <point x="272" y="32"/>
      <point x="262" y="16"/>
      <point x="248" y="7" type="curve" smooth="yes"/>
      <point x="240" y="2"/>
      <point x="228" y="0"/>
      <point x="208" y="0" type="curve" smooth="yes"/>
      <point x="98" y="0" type="line" smooth="yes"/>
      <point x="76" y="0"/>
      <point x="64" y="2"/>
      <point x="56" y="8" type="curve" smooth="yes"/>
      <point x="44" y="19"/>
      <point x="34" y="34"/>
      <point x="34" y="48" type="curve" smooth="yes"/>
      <point x="34" y="65"/>
      <point x="44" y="81"/>
      <point x="58" y="90" type="curve" smooth="yes"/>
      <point x="66" y="95"/>
      <point x="74" y="97"/>
      <point x="98" y="97" type="curve" smooth="yes"/>
      <point x="104" y="97" type="line"/>
    </contour>
  </outline>
</glyph>
<glyph name="itilde" format="1">
  <advance width="600"/>
  <unicode hex="0129"/>
  <outline>
    <contour>
      <point x="448" y="591" type="curve" smooth="yes"/>
      <point x="466" y="591"/>
      <point x="480" y="577"/>
      <point x="480" y="563" type="curve" smooth="yes"/>
      <point x="480" y="549"/>
      <point x="472" y="535"/>
      <point x="452" y="509" type="curve" smooth="yes"/>
      <point x="424" y="474"/>
      <point x="402" y="462"/>
      <point x="374" y="462" type="curve" smooth="yes"/>
      <point x="352" y="462"/>
      <point x="322" y="474"/>
      <point x="278" y="504" type="curve" smooth="yes"/>
      <point x="252" y="521"/>
      <point x="244" y="524"/>
      <point x="230" y="524" type="curve" smooth="yes"/>
      <point x="212" y="524"/>
      <point x="204" y="517"/>
      <point x="176" y="479" type="curve" smooth="yes"/>
      <point x="168" y="468"/>
      <point x="162" y="463"/>
      <point x="150" y="463" type="curve" smooth="yes"/>
      <point x="134" y="463"/>
      <point x="122" y="478"/>
      <point x="122" y="494" type="curve" smooth="yes"/>
      <point x="122" y="507"/>
      <point x="130" y="527"/>
      <point x="148" y="546" type="curve"/>
      <point x="172" y="575"/>
      <point x="200" y="591"/>
      <point x="228" y="591" type="curve" smooth="yes"/>
      <point x="250" y="591"/>
      <point x="266" y="584"/>
      <point x="316" y="553" type="curve"/>
      <point x="348" y="535"/>
      <point x="360" y="529"/>
      <point x="370" y="529" type="curve" smooth="yes"/>
      <point x="386" y="529"/>
      <point x="390" y="532"/>
      <point x="410" y="561" type="curve" smooth="yes"/>
      <point x="424" y="581"/>
      <point x="436" y="591"/>
    </contour>
    <contour>
      <point x="349" y="423" type="line"/>
      <point x="349" y="97" type="line"/>
      <point x="466" y="97" type="line" smooth="yes"/>
      <point x="494" y="97"/>
      <point x="500" y="95"/>
      <point x="510" y="88" type="curve"/>
      <point x="522" y="78"/>
      <point x="530" y="64"/>
      <point x="530" y="48" type="curve" smooth="yes"/>
      <point x="530" y="32"/>
      <point x="522" y="16"/>
      <point x="508" y="7" type="curve" smooth="yes"/>
      <point x="500" y="2"/>
      <point x="486" y="0"/>
      <point x="466" y="0" type="curve" smooth="yes"/>
      <point x="132" y="0" type="line" smooth="yes"/>
      <point x="112" y="0"/>
      <point x="98" y="2"/>
      <point x="90" y="9" type="curve" smooth="yes"/>
      <point x="78" y="19"/>
      <point x="70" y="33"/>
      <point x="70" y="48" type="curve" smooth="yes"/>
      <point x="70" y="65"/>
      <point x="80" y="81"/>
      <point x="94" y="90" type="curve"/>
      <point x="102" y="97"/>
      <point x="108" y="97"/>
      <point x="132" y="97" type="curve" smooth="yes"/>
      <point x="252" y="97" type="line"/>
      <point x="252" y="326" type="line"/>
      <point x="176" y="326" type="line" smooth="yes"/>
      <point x="152" y="326"/>
      <point x="140" y="329"/>
      <point x="132" y="336" type="curve"/>
      <point x="118" y="345"/>
      <point x="112" y="360"/>
      <point x="112" y="375" type="curve" smooth="yes"/>
      <point x="112" y="391"/>
      <point x="120" y="408"/>
      <point x="134" y="417" type="curve" smooth="yes"/>
      <point x="142" y="422"/>
      <point x="150" y="423"/>
      <point x="176" y="423" type="curve" smooth="yes"/>
    </contour>
  </outline>
</glyph>
<glyph name="ij" format="1">
  <advance width="600"/>
  <unicode hex="0133"/>
  <outline>
    <contour>
      <point x="383" y="326" type="line"/>
      <point x="187" y="326" type="line" smooth="yes"/>
      <point x="163" y="326"/>
      <point x="153" y="329"/>
      <point x="143" y="336" type="curve" smooth="yes"/>
      <point x="130" y="345"/>
      <point x="123" y="361"/>
      <point x="123" y="375" type="curve" smooth="yes"/>
      <point x="123" y="391"/>
      <point x="132" y="408"/>
      <point x="147" y="417" type="curve" smooth="yes"/>
      <point x="155" y="422"/>
      <point x="162" y="423"/>
      <point x="187" y="423" type="curve" smooth="yes"/>
      <point x="480" y="423" type="line"/>
      <point x="480" y="-19" type="line" smooth="yes"/>
      <point x="480" y="-121"/>
      <point x="401" y="-198"/>
      <point x="295" y="-198" type="curve" smooth="yes"/>
      <point x="184" y="-198" type="line" smooth="yes"/>
      <point x="160" y="-198"/>
      <point x="150" y="-197"/>
      <point x="140" y="-189" type="curve" smooth="yes"/>
      <point x="128" y="-180"/>
      <point x="120" y="-164"/>
      <point x="120" y="-150" type="curve" smooth="yes"/>
      <point x="120" y="-133"/>
      <point x="130" y="-117"/>
      <point x="143" y="-108" type="curve" smooth="yes"/>
      <point x="153" y="-102"/>
      <point x="160" y="-102"/>
      <point x="184" y="-102" type="curve" smooth="yes"/>
      <point x="292" y="-102" type="line" smooth="yes"/>
      <point x="347" y="-102"/>
      <point x="383" y="-70"/>
      <point x="383" y="-19" type="curve" smooth="yes"/>
    </contour>
    <contour>
      <point x="424" y="604" type="line"/>
      <point x="424" y="502" type="line"/>
      <point x="308" y="502" type="line"/>
      <point x="308" y="604" type="line"/>
    </contour>
  </outline>
</glyph>
<glyph name="Jcircumflex" format="1">
  <advance width="600"/>
  <unicode hex="0134"/>
  <outline>
    <contour>
      <point x="384" y="710" type="line"/>
      <point x="274" y="616" type="line" smooth="yes"/>
      <point x="264" y="607"/>
      <point x="256" y="604"/>
      <point x="248" y="604" type="curve" smooth="yes"/>
      <point x="228" y="604"/>
      <point x="214" y="621"/>
      <point x="214" y="637" type="curve" smooth="yes"/>
      <point x="214" y="651"/>
      <point x="216" y="654"/>
      <point x="236" y="671" type="curve" smooth="yes"/>
      <point x="384" y="797" type="line"/>
      <point x="530" y="671" type="line"/>
      <point x="534" y="671"/>
      <point x="538" y="666"/>
      <point x="538" y="664" type="curve"/>
      <point x="550" y="656"/>
      <point x="554" y="647"/>
      <point x="554" y="637" type="curve" smooth="yes"/>
      <point x="554" y="621"/>
      <point x="538" y="604"/>
      <point x="520" y="604" type="curve" smooth="yes"/>
      <point x="512" y="604"/>
      <point x="504" y="607"/>
      <point x="492" y="616" type="curve"/>
    </contour>
    <contour>
      <point x="452" y="468" type="line"/>
      <point x="452" y="181" type="line" smooth="yes"/>
      <point x="452" y="117"/>
      <point x="436" y="81"/>
      <point x="390" y="40" type="curve"/>
      <point x="348" y="6"/>
      <point x="296" y="-15"/>
      <point x="238" y="-15" type="curve" smooth="yes"/>
      <point x="182" y="-15"/>
      <point x="118" y="6"/>
      <point x="28" y="50" type="curve"/>
      <point x="28" y="208" type="line" smooth="yes"/>
      <point x="28" y="232"/>
      <point x="32" y="242"/>
      <point x="38" y="250" type="curve" smooth="yes"/>
      <point x="48" y="264"/>
      <point x="64" y="271"/>
      <point x="78" y="271" type="curve" smooth="yes"/>
      <point x="94" y="271"/>
      <point x="110" y="263"/>
      <point x="120" y="248" type="curve" smooth="yes"/>
      <point x="126" y="240"/>
      <point x="126" y="231"/>
      <point x="126" y="208" type="curve" smooth="yes"/>
      <point x="126" y="113" type="line"/>
      <point x="174" y="92"/>
      <point x="206" y="84"/>
      <point x="240" y="84" type="curve" smooth="yes"/>
      <point x="276" y="84"/>
      <point x="310" y="97"/>
      <point x="334" y="119" type="curve"/>
      <point x="352" y="139"/>
      <point x="356" y="147"/>
      <point x="356" y="192" type="curve" smooth="yes"/>
      <point x="356" y="468" type="line"/>
      <point x="240" y="468" type="line" smooth="yes"/>
      <point x="216" y="468"/>
      <point x="206" y="470"/>
      <point x="196" y="477" type="curve"/>
      <point x="186" y="487"/>
      <point x="176" y="501"/>
      <point x="176" y="516" type="curve" smooth="yes"/>
      <point x="176" y="533"/>
      <point x="186" y="549"/>
      <point x="200" y="558" type="curve"/>
      <point x="208" y="565"/>
      <point x="214" y="565"/>
      <point x="240" y="565" type="curve" smooth="yes"/>
      <point x="508" y="565" type="line" smooth="yes"/>
      <point x="534" y="565"/>
      <point x="542" y="563"/>
      <point x="552" y="556" type="curve"/>
      <point x="564" y="546"/>
      <point x="572" y="532"/>
      <point x="572" y="516" type="curve" smooth="yes"/>
      <point x="572" y="500"/>
      <point x="562" y="484"/>
      <point x="548" y="474" type="curve"/>
      <point x="540" y="470"/>
      <point x="530" y="468"/>
      <point x="508" y="468" type="curve" smooth="yes"/>
    </contour>
  </outline>
</glyph>
<glyph name="jcircumflex" format="1">
  <advance width="600"/>
  <unicode hex="0135"/>
  <outline>
    <contour>
      <point x="383" y="326" type="line"/>
      <point x="187" y="326" type="line" smooth="yes"/>
      <point x="163" y="326"/>
      <point x="153" y="329"/>
      <point x="143" y="336" type="curve" smooth="yes"/>
      <point x="130" y="345"/>
      <point x="123" y="361"/>
      <point x="123" y="375" type="curve" smooth="yes"/>
      <point x="123" y="391"/>
      <point x="132" y="408"/>
      <point x="147" y="417" type="curve" smooth="yes"/>
      <point x="155" y="422"/>
      <point x="162" y="423"/>
      <point x="187" y="423" type="curve" smooth="yes"/>
      <point x="480" y="423" type="line"/>
      <point x="480" y="-19" type="line" smooth="yes"/>
      <point x="480" y="-121"/>
      <point x="401" y="-198"/>
      <point x="295" y="-198" type="curve" smooth="yes"/>
      <point x="184" y="-198" type="line" smooth="yes"/>
      <point x="160" y="-198"/>
      <point x="150" y="-197"/>
      <point x="140" y="-189" type="curve" smooth="yes"/>
      <point x="128" y="-180"/>
      <point x="120" y="-164"/>
      <point x="120" y="-150" type="curve" smooth="yes"/>
      <point x="120" y="-133"/>
      <point x="130" y="-117"/>
      <point x="143" y="-108" type="curve" smooth="yes"/>
      <point x="153" y="-102"/>
      <point x="160" y="-102"/>
      <point x="184" y="-102" type="curve" smooth="yes"/>
      <point x="292" y="-102" type="line" smooth="yes"/>
      <point x="347" y="-102"/>
      <point x="383" y="-70"/>
      <point x="383" y="-19" type="curve" smooth="yes"/>
    </contour>
    <contour>
      <point x="301" y="686" type="line"/>
      <point x="192" y="591" type="line"/>
      <point x="179" y="583"/>
      <point x="173" y="580"/>
      <point x="163" y="580" type="curve" smooth="yes"/>
      <point x="146" y="580"/>
      <point x="130" y="596"/>
      <point x="130" y="613" type="curve" smooth="yes"/>
      <point x="130" y="627"/>
      <point x="132" y="629"/>
      <point x="153" y="646" type="curve" smooth="yes"/>
      <point x="301" y="772" type="line"/>
      <point x="447" y="646" type="line"/>
      <point x="450" y="645"/>
      <point x="453" y="642"/>
      <point x="457" y="640" type="curve" smooth="yes"/>
      <point x="467" y="632"/>
      <point x="470" y="624"/>
      <point x="470" y="613" type="curve" smooth="yes"/>
      <point x="470" y="596"/>
      <point x="455" y="580"/>
      <point x="437" y="580" type="curve" smooth="yes"/>
      <point x="427" y="580"/>
      <point x="419" y="583"/>
      <point x="409" y="591" type="curve" smooth="yes"/>
    </contour>
  </outline>
</glyph>
<glyph name="Lacute" format="1">
  <advance width="600"/>
  <unicode hex="0139"/>
  <outline>
    <contour>
      <point x="256" y="483" type="line"/>
      <point x="256" y="100" type="line"/>
      <point x="471" y="100" type="line"/>
      <point x="471" y="192" type="line" smooth="yes"/>
      <point x="471" y="219"/>
      <point x="473" y="228"/>
      <point x="480" y="238" type="curve" smooth="yes"/>
      <point x="490" y="252"/>
      <point x="505" y="259"/>
      <point x="521" y="259" type="curve" smooth="yes"/>
      <point x="538" y="259"/>
      <point x="554" y="250"/>
      <point x="564" y="235" type="curve" smooth="yes"/>
      <point x="570" y="226"/>
      <point x="571" y="217"/>
      <point x="571" y="192" type="curve" smooth="yes"/>
      <point x="571" y="0" type="line"/>
      <point x="99" y="0" type="line" smooth="yes"/>
      <point x="76" y="0"/>
      <point x="62" y="3"/>
      <point x="54" y="10" type="curve"/>
      <point x="41" y="19"/>
      <point x="33" y="34"/>
      <point x="33" y="50" type="curve" smooth="yes"/>
      <point x="33" y="67"/>
      <point x="42" y="84"/>
      <point x="57" y="93" type="curve" smooth="yes"/>
      <point x="66" y="99"/>
      <point x="73" y="100"/>
      <point x="99" y="100" type="curve" smooth="yes"/>
      <point x="156" y="100" type="line"/>
      <point x="156" y="483" type="line"/>
      <point x="99" y="483" type="line" smooth="yes"/>
      <point x="74" y="483"/>
      <point x="63" y="485"/>
      <point x="54" y="492" type="curve" smooth="yes"/>
      <point x="41" y="502"/>
      <point x="33" y="517"/>
      <point x="33" y="533" type="curve" smooth="yes"/>
      <point x="33" y="550"/>
      <point x="42" y="567"/>
      <point x="57" y="576" type="curve" smooth="yes"/>
      <point x="66" y="582"/>
      <point x="73" y="583"/>
      <point x="99" y="583" type="curve" smooth="yes"/>
      <point x="313" y="583" type="line" smooth="yes"/>
      <point x="340" y="583"/>
      <point x="348" y="581"/>
      <point x="358" y="574" type="curve" smooth="yes"/>
      <point x="371" y="564"/>
      <point x="379" y="549"/>
      <point x="379" y="533" type="curve" smooth="yes"/>
      <point x="379" y="516"/>
      <point x="370" y="499"/>
      <point x="355" y="490" type="curve" smooth="yes"/>
      <point x="347" y="485"/>
      <point x="336" y="483"/>
      <point x="313" y="483" type="curve" smooth="yes"/>
    </contour>
    <contour>
      <point x="372" y="767" type="curve" smooth="yes"/>
      <point x="239" y="656" type="line" smooth="yes"/>
      <point x="226" y="645"/>
      <point x="216" y="640"/>
      <point x="207" y="640" type="curve" smooth="yes"/>
      <point x="187" y="640"/>
      <point x="170" y="657"/>
      <point x="170" y="676" type="curve" smooth="yes"/>
      <point x="170" y="688"/>
      <point x="177" y="700"/>
      <point x="193" y="712" type="curve"/>
      <point x="326" y="824" type="line" smooth="yes"/>
      <point x="340" y="835"/>
      <point x="348" y="839"/>
      <point x="358" y="839" type="curve" smooth="yes"/>
      <point x="379" y="839"/>
      <point x="395" y="823"/>
      <point x="395" y="803" type="curve" smooth="yes"/>
      <point x="395" y="790"/>
      <point x="389" y="780"/>
    </contour>
  </outline>
</glyph>
<glyph name="Lcommaaccent" format="1">
  <advance width="600"/>
  <unicode hex="013B"/>
  <outline>
    <contour>
      <point x="256" y="483" type="line"/>
      <point x="256" y="100" type="line"/>
      <point x="471" y="100" type="line"/>
      <point x="471" y="192" type="line" smooth="yes"/>
      <point x="471" y="219"/>
      <point x="473" y="228"/>
      <point x="480" y="238" type="curve" smooth="yes"/>
      <point x="490" y="252"/>
      <point x="505" y="259"/>
      <point x="521" y="259" type="curve" smooth="yes"/>
      <point x="538" y="259"/>
      <point x="554" y="250"/>
      <point x="564" y="235" type="curve" smooth="yes"/>
      <point x="570" y="226"/>
      <point x="571" y="217"/>
      <point x="571" y="192" type="curve" smooth="yes"/>
      <point x="571" y="0" type="line"/>
      <point x="99" y="0" type="line" smooth="yes"/>
      <point x="76" y="0"/>
      <point x="62" y="3"/>
      <point x="54" y="10" type="curve"/>
      <point x="41" y="19"/>
      <point x="33" y="34"/>
      <point x="33" y="50" type="curve" smooth="yes"/>
      <point x="33" y="67"/>
      <point x="42" y="84"/>
      <point x="57" y="93" type="curve" smooth="yes"/>
      <point x="66" y="99"/>
      <point x="73" y="100"/>
      <point x="99" y="100" type="curve" smooth="yes"/>
      <point x="156" y="100" type="line"/>
      <point x="156" y="483" type="line"/>
      <point x="99" y="483" type="line" smooth="yes"/>
      <point x="74" y="483"/>
      <point x="63" y="485"/>
      <point x="54" y="492" type="curve" smooth="yes"/>
      <point x="41" y="502"/>
      <point x="33" y="517"/>
      <point x="33" y="533" type="curve" smooth="yes"/>
      <point x="33" y="550"/>
      <point x="42" y="567"/>
      <point x="57" y="576" type="curve" smooth="yes"/>
      <point x="66" y="582"/>
      <point x="73" y="583"/>
      <point x="99" y="583" type="curve" smooth="yes"/>
      <point x="313" y="583" type="line" smooth="yes"/>
      <point x="340" y="583"/>
      <point x="348" y="581"/>
      <point x="358" y="574" type="curve" smooth="yes"/>
      <point x="371" y="564"/>
      <point x="379" y="549"/>
      <point x="379" y="533" type="curve" smooth="yes"/>
      <point x="379" y="516"/>
      <point x="370" y="499"/>
      <point x="355" y="490" type="curve" smooth="yes"/>
      <point x="347" y="485"/>
      <point x="336" y="483"/>
      <point x="313" y="483" type="curve" smooth="yes"/>
    </contour>
    <contour>
      <point x="338" y="-126" type="curve" smooth="yes"/>
      <point x="256" y="-252" type="line" smooth="yes"/>
      <point x="243" y="-272"/>
      <point x="234" y="-278"/>
      <point x="220" y="-278" type="curve" smooth="yes"/>
      <point x="200" y="-278"/>
      <point x="183" y="-262"/>
      <point x="183" y="-243" type="curve" smooth="yes"/>
      <point x="183" y="-234"/>
      <point x="187" y="-223"/>
      <point x="195" y="-211" type="curve" smooth="yes"/>
      <point x="277" y="-85" type="line" smooth="yes"/>
      <point x="290" y="-65"/>
      <point x="299" y="-59"/>
      <point x="315" y="-59" type="curve" smooth="yes"/>
      <point x="335" y="-59"/>
      <point x="351" y="-76"/>
      <point x="351" y="-96" type="curve" smooth="yes"/>
      <point x="351" y="-103"/>
      <point x="346" y="-114"/>
    </contour>
  </outline>
</glyph>
<glyph name="Lcaron" format="1">
  <advance width="600"/>
  <unicode hex="013D"/>
  <outline>
    <contour>
      <point x="256" y="483" type="line"/>
      <point x="256" y="100" type="line"/>
      <point x="471" y="100" type="line"/>
      <point x="471" y="192" type="line" smooth="yes"/>
      <point x="471" y="219"/>
      <point x="473" y="228"/>
      <point x="480" y="238" type="curve" smooth="yes"/>
      <point x="490" y="252"/>
      <point x="505" y="259"/>
      <point x="521" y="259" type="curve" smooth="yes"/>
      <point x="538" y="259"/>
      <point x="554" y="250"/>
      <point x="564" y="235" type="curve" smooth="yes"/>
      <point x="570" y="226"/>
      <point x="571" y="217"/>
      <point x="571" y="192" type="curve" smooth="yes"/>
      <point x="571" y="0" type="line"/>
      <point x="99" y="0" type="line" smooth="yes"/>
      <point x="76" y="0"/>
      <point x="62" y="3"/>
      <point x="54" y="10" type="curve"/>
      <point x="41" y="19"/>
      <point x="33" y="34"/>
      <point x="33" y="50" type="curve" smooth="yes"/>
      <point x="33" y="67"/>
      <point x="42" y="84"/>
      <point x="57" y="93" type="curve" smooth="yes"/>
      <point x="66" y="99"/>
      <point x="73" y="100"/>
      <point x="99" y="100" type="curve" smooth="yes"/>
      <point x="156" y="100" type="line"/>
      <point x="156" y="483" type="line"/>
      <point x="99" y="483" type="line" smooth="yes"/>
      <point x="74" y="483"/>
      <point x="63" y="485"/>
      <point x="54" y="492" type="curve" smooth="yes"/>
      <point x="41" y="502"/>
      <point x="33" y="517"/>
      <point x="33" y="533" type="curve" smooth="yes"/>
      <point x="33" y="550"/>
      <point x="42" y="567"/>
      <point x="57" y="576" type="curve" smooth="yes"/>
      <point x="66" y="582"/>
      <point x="73" y="583"/>
      <point x="99" y="583" type="curve" smooth="yes"/>
      <point x="313" y="583" type="line" smooth="yes"/>
      <point x="340" y="583"/>
      <point x="348" y="581"/>
      <point x="358" y="574" type="curve" smooth="yes"/>
      <point x="371" y="564"/>
      <point x="379" y="549"/>
      <point x="379" y="533" type="curve" smooth="yes"/>
      <point x="379" y="516"/>
      <point x="370" y="499"/>
      <point x="355" y="490" type="curve" smooth="yes"/>
      <point x="347" y="485"/>
      <point x="336" y="483"/>
      <point x="313" y="483" type="curve" smooth="yes"/>
    </contour>
    <contour>
      <point x="557" y="531" type="curve" smooth="yes"/>
      <point x="475" y="405" type="line" smooth="yes"/>
      <point x="462" y="385"/>
      <point x="453" y="379"/>
      <point x="439" y="379" type="curve" smooth="yes"/>
      <point x="419" y="379"/>
      <point x="402" y="395"/>
      <point x="402" y="414" type="curve" smooth="yes"/>
      <point x="402" y="423"/>
      <point x="406" y="434"/>
      <point x="414" y="446" type="curve" smooth="yes"/>
      <point x="496" y="572" type="line" smooth="yes"/>
      <point x="509" y="592"/>
      <point x="518" y="598"/>
      <point x="534" y="598" type="curve" smooth="yes"/>
      <point x="554" y="598"/>
      <point x="570" y="581"/>
      <point x="570" y="561" type="curve" smooth="yes"/>
      <point x="570" y="554"/>
      <point x="565" y="543"/>
    </contour>
  </outline>
</glyph>
<glyph name="Ldot" format="1">
  <advance width="600"/>
  <unicode hex="013F"/>
  <outline>
    <contour>
      <point x="382" y="219" type="curve" smooth="yes"/>
      <point x="365" y="219" type="line" smooth="yes"/>
      <point x="330" y="219"/>
      <point x="301" y="247"/>
      <point x="301" y="282" type="curve" smooth="yes"/>
      <point x="301" y="317"/>
      <point x="330" y="346"/>
      <point x="365" y="346" type="curve" smooth="yes"/>
      <point x="382" y="346" type="line" smooth="yes"/>
      <point x="418" y="346"/>
      <point x="446" y="318"/>
      <point x="446" y="282" type="curve" smooth="yes"/>
      <point x="446" y="247"/>
      <point x="418" y="219"/>
    </contour>
    <contour>
      <point x="255" y="468" type="line"/>
      <point x="255" y="97" type="line"/>
      <point x="463" y="97" type="line"/>
      <point x="463" y="186" type="line" smooth="yes"/>
      <point x="463" y="211"/>
      <point x="465" y="221"/>
      <point x="473" y="231" type="curve"/>
      <point x="481" y="244"/>
      <point x="496" y="250"/>
      <point x="512" y="250" type="curve" smooth="yes"/>
      <point x="528" y="250"/>
      <point x="543" y="242"/>
      <point x="553" y="228" type="curve" smooth="yes"/>
      <point x="559" y="219"/>
      <point x="561" y="210"/>
      <point x="561" y="186" type="curve" smooth="yes"/>
      <point x="561" y="0" type="line"/>
      <point x="104" y="0" type="line" smooth="yes"/>
      <point x="81" y="0"/>
      <point x="67" y="2"/>
      <point x="58" y="9" type="curve" smooth="yes"/>
      <point x="47" y="19"/>
      <point x="39" y="33"/>
      <point x="39" y="48" type="curve" smooth="yes"/>
      <point x="39" y="65"/>
      <point x="47" y="81"/>
      <point x="62" y="90" type="curve"/>
      <point x="71" y="97"/>
      <point x="78" y="97"/>
      <point x="104" y="97" type="curve" smooth="yes"/>
      <point x="159" y="97" type="line"/>
      <point x="159" y="468" type="line"/>
      <point x="104" y="468" type="line" smooth="yes"/>
      <point x="78" y="468"/>
      <point x="68" y="470"/>
      <point x="58" y="477" type="curve"/>
      <point x="47" y="487"/>
      <point x="39" y="501"/>
      <point x="39" y="516" type="curve" smooth="yes"/>
      <point x="39" y="533"/>
      <point x="47" y="549"/>
      <point x="62" y="558" type="curve"/>
      <point x="71" y="565"/>
      <point x="78" y="565"/>
      <point x="104" y="565" type="curve" smooth="yes"/>
      <point x="310" y="565" type="line" smooth="yes"/>
      <point x="336" y="565"/>
      <point x="344" y="563"/>
      <point x="354" y="556" type="curve" smooth="yes"/>
      <point x="367" y="546"/>
      <point x="374" y="532"/>
      <point x="374" y="516" type="curve" smooth="yes"/>
      <point x="374" y="500"/>
      <point x="365" y="484"/>
      <point x="352" y="474" type="curve"/>
      <point x="343" y="470"/>
      <point x="333" y="468"/>
      <point x="310" y="468" type="curve" smooth="yes"/>
    </contour>
  </outline>
</glyph>
<glyph name="ldot" format="1">
  <advance width="600"/>
  <unicode hex="0140"/>
  <outline>
    <contour>
      <point x="473" y="208" type="curve" smooth="yes"/>
      <point x="456" y="208" type="line" smooth="yes"/>
      <point x="421" y="208"/>
      <point x="392" y="236"/>
      <point x="392" y="271" type="curve" smooth="yes"/>
      <point x="392" y="306"/>
      <point x="421" y="335"/>
      <point x="456" y="335" type="curve" smooth="yes"/>
      <point x="473" y="335" type="line" smooth="yes"/>
      <point x="509" y="335"/>
      <point x="537" y="307"/>
      <point x="537" y="271" type="curve" smooth="yes"/>
      <point x="537" y="236"/>
      <point x="509" y="208"/>
    </contour>
    <contour>
      <point x="342" y="604" type="line"/>
      <point x="342" y="97" type="line"/>
      <point x="460" y="97" type="line" smooth="yes"/>
      <point x="487" y="97"/>
      <point x="494" y="95"/>
      <point x="504" y="88" type="curve"/>
      <point x="516" y="78"/>
      <point x="524" y="64"/>
      <point x="524" y="48" type="curve" smooth="yes"/>
      <point x="524" y="32"/>
      <point x="515" y="16"/>
      <point x="502" y="7" type="curve" smooth="yes"/>
      <point x="494" y="2"/>
      <point x="480" y="0"/>
      <point x="460" y="0" type="curve" smooth="yes"/>
      <point x="126" y="0" type="line" smooth="yes"/>
      <point x="105" y="0"/>
      <point x="91" y="2"/>
      <point x="84" y="9" type="curve"/>
      <point x="71" y="19"/>
      <point x="63" y="34"/>
      <point x="63" y="48" type="curve" smooth="yes"/>
      <point x="63" y="65"/>
      <point x="73" y="81"/>
      <point x="87" y="90" type="curve"/>
      <point x="95" y="97"/>
      <point x="102" y="97"/>
      <point x="126" y="97" type="curve" smooth="yes"/>
      <point x="245" y="97" type="line"/>
      <point x="245" y="508" type="line"/>
      <point x="170" y="508" type="line" smooth="yes"/>
      <point x="146" y="508"/>
      <point x="134" y="508"/>
      <point x="125" y="518" type="curve"/>
      <point x="111" y="525"/>
      <point x="105" y="541"/>
      <point x="105" y="556" type="curve" smooth="yes"/>
      <point x="105" y="574"/>
      <point x="113" y="589"/>
      <point x="128" y="598" type="curve"/>
      <point x="136" y="604"/>
      <point x="146" y="604"/>
      <point x="170" y="604" type="curve" smooth="yes"/>
    </contour>
  </outline>
</glyph>
<glyph name="Lslash" format="1">
  <advance width="600"/>
  <unicode hex="0141"/>
  <outline>
    <contour>
      <point x="256" y="483" type="line"/>
      <point x="256" y="359" type="line"/>
      <point x="344" y="411" type="line" smooth="yes"/>
      <point x="363" y="422"/>
      <point x="373" y="426"/>
      <point x="385" y="426" type="curve" smooth="yes"/>
      <point x="410" y="426"/>
      <point x="432" y="402"/>
      <point x="432" y="376" type="curve" smooth="yes"/>
      <point x="432" y="353"/>
      <point x="424" y="343"/>
      <point x="393" y="325" type="curve" smooth="yes"/>
      <point x="256" y="244" type="line"/>
      <point x="256" y="100" type="line"/>
      <point x="471" y="100" type="line"/>
      <point x="471" y="191" type="line" smooth="yes"/>
      <point x="471" y="218"/>
      <point x="473" y="228"/>
      <point x="480" y="237" type="curve" smooth="yes"/>
      <point x="490" y="251"/>
      <point x="505" y="258"/>
      <point x="521" y="258" type="curve" smooth="yes"/>
      <point x="539" y="258"/>
      <point x="554" y="249"/>
      <point x="564" y="234" type="curve" smooth="yes"/>
      <point x="569" y="225"/>
      <point x="571" y="216"/>
      <point x="571" y="191" type="curve" smooth="yes"/>
      <point x="571" y="0" type="line"/>
      <point x="99" y="0" type="line" smooth="yes"/>
      <point x="55" y="0"/>
      <point x="33" y="17"/>
      <point x="33" y="50" type="curve" smooth="yes"/>
      <point x="33" y="67"/>
      <point x="42" y="84"/>
      <point x="57" y="93" type="curve" smooth="yes"/>
      <point x="66" y="99"/>
      <point x="73" y="100"/>
      <point x="99" y="100" type="curve" smooth="yes"/>
      <point x="156" y="100" type="line"/>
      <point x="156" y="203" type="line"/>
      <point x="102" y="171" type="line" smooth="yes"/>
      <point x="86" y="161"/>
      <point x="71" y="156"/>
      <point x="60" y="156" type="curve" smooth="yes"/>
      <point x="35" y="156"/>
      <point x="12" y="180"/>
      <point x="12" y="207" type="curve" smooth="yes"/>
      <point x="12" y="229"/>
      <point x="20" y="240"/>
      <point x="52" y="258" type="curve" smooth="yes"/>
      <point x="156" y="318" type="line"/>
      <point x="156" y="483" type="line"/>
      <point x="99" y="483" type="line" smooth="yes"/>
      <point x="74" y="483"/>
      <point x="63" y="485"/>
      <point x="53" y="492" type="curve"/>
      <point x="41" y="502"/>
      <point x="33" y="517"/>
      <point x="33" y="533" type="curve" smooth="yes"/>
      <point x="33" y="550"/>
      <point x="42" y="567"/>
      <point x="57" y="576" type="curve" smooth="yes"/>
      <point x="66" y="582"/>
      <point x="73" y="583"/>
      <point x="99" y="583" type="curve" smooth="yes"/>
      <point x="313" y="583" type="line" smooth="yes"/>
      <point x="340" y="583"/>
      <point x="348" y="581"/>
      <point x="358" y="574" type="curve" smooth="yes"/>
      <point x="371" y="564"/>
      <point x="379" y="549"/>
      <point x="379" y="533" type="curve" smooth="yes"/>
      <point x="379" y="516"/>
      <point x="370" y="499"/>
      <point x="355" y="490" type="curve" smooth="yes"/>
      <point x="346" y="485"/>
      <point x="336" y="483"/>
      <point x="313" y="483" type="curve" smooth="yes"/>
    </contour>
  </outline>
</glyph>
<glyph name="Omacron" format="1">
  <advance width="600"/>
  <unicode hex="014C"/>
  <outline>
    <contour>
      <point x="300" y="597" type="curve" smooth="yes"/>
      <point x="367" y="597"/>
      <point x="432" y="570"/>
      <point x="485" y="520" type="curve" smooth="yes"/>
      <point x="548" y="460"/>
      <point x="579" y="383"/>
      <point x="579" y="287" type="curve" smooth="yes"/>
      <point x="579" y="123"/>
      <point x="452" y="-14"/>
      <point x="300" y="-14" type="curve" smooth="yes"/>
      <point x="146" y="-14"/>
      <point x="21" y="123"/>
      <point x="21" y="292" type="curve" smooth="yes"/>
      <point x="21" y="460"/>
      <point x="146" y="597"/>
    </contour>
    <contour>
      <point x="300" y="497" type="curve" smooth="yes"/>
      <point x="202" y="497"/>
      <point x="121" y="404"/>
      <point x="121" y="292" type="curve" smooth="yes"/>
      <point x="121" y="179"/>
      <point x="202" y="86"/>
      <point x="300" y="86" type="curve" smooth="yes"/>
      <point x="397" y="86"/>
      <point x="479" y="179"/>
      <point x="479" y="289" type="curve" smooth="yes"/>
      <point x="479" y="404"/>
      <point x="399" y="497"/>
    </contour>
    <contour>
      <point x="178" y="769" type="curve" smooth="yes"/>
      <point x="422" y="769" type="line" smooth="yes"/>
      <point x="445" y="769"/>
      <point x="457" y="766"/>
      <point x="464" y="758" type="curve" smooth="yes"/>
      <point x="470" y="751"/>
      <point x="475" y="737"/>
      <point x="475" y="729" type="curve" smooth="yes"/>
      <point x="475" y="704"/>
      <point x="455" y="689"/>
      <point x="422" y="689" type="curve" smooth="yes"/>
      <point x="178" y="689" type="line" smooth="yes"/>
      <point x="153" y="689"/>
      <point x="145" y="691"/>
      <point x="136" y="701" type="curve" smooth="yes"/>
      <point x="130" y="709"/>
      <point x="125" y="721"/>
      <point x="125" y="729" type="curve" smooth="yes"/>
      <point x="125" y="754"/>
      <point x="144" y="769"/>
    </contour>
  </outline>
</glyph>
